<?xml version="1.0" encoding="utf-8"?>
<!-- Generator: Adobe Illustrator 23.0.3, SVG Export Plug-In . SVG Version: 6.00 Build 0)  -->
<svg version="1.1" id="图层_1" xmlns="http://www.w3.org/2000/svg" xmlns:xlink="http://www.w3.org/1999/xlink" x="0px" y="0px"
	 viewBox="0 0 595.3 841.9" style="enable-background:new 0 0 595.3 841.9;" xml:space="preserve">
<style type="text/css">
	.st0{fill:none;stroke:#5F5F5F;stroke-width:0.25;stroke-miterlimit:10;}
	.st1{fill:none;stroke:#5F5F5F;stroke-width:0.75;stroke-miterlimit:10;}
	.st2{fill:none;stroke:#444444;stroke-width:0.75;stroke-miterlimit:10;}
	.st3{fill:none;stroke:#444444;stroke-width:0.5;stroke-miterlimit:10;}
	.st4{fill:none;stroke:#5F5F5F;stroke-width:0.5;stroke-miterlimit:10;}
	.st5{fill:none;}
	.st6{fill:#589993;}
	.st7{fill:#FF8467;}
	.st8{fill:none;stroke:#000000;stroke-width:0.25;stroke-miterlimit:10;}
	.st9{fill:none;stroke:#159843;stroke-width:2;stroke-miterlimit:10;}
	.st10{fill:#68B834;}
	.st11{fill:#EBF6F9;stroke:#3D3D3D;stroke-miterlimit:10;}
	.st12{fill:#EBF6F9;stroke:#3D3D3D;stroke-width:2;stroke-miterlimit:10;}
	.st13{fill:#68B834;stroke:#3D3D3D;stroke-miterlimit:10;}
	.st14{fill:#68B834;stroke:#3D3D3D;stroke-width:2;stroke-miterlimit:10;}
	.st15{fill:#FF8467;stroke:#231815;stroke-miterlimit:10;}
	.st16{fill:#F08C57;}
	.st17{fill:#ED6F48;}
	.st18{fill:#FFFFFF;}
	.st19{font-family:'Impact';}
	.st20{font-size:39.1465px;}
</style>
<g id="底框">
	<line class="st0" x1="37.6" y1="128.7" x2="556.2" y2="128.7"/>
	<g>
		<line class="st0" x1="37.6" y1="142.8" x2="556.2" y2="142.8"/>
		<line class="st0" x1="37.6" y1="156.9" x2="556.2" y2="156.9"/>
		<line class="st1" x1="37.6" y1="171" x2="556.2" y2="171"/>
		<line class="st2" x1="37.6" y1="185.1" x2="556.2" y2="185.1"/>
		<line class="st0" x1="37.6" y1="199.6" x2="556.2" y2="199.6"/>
		<line class="st0" x1="37.6" y1="227.8" x2="556.2" y2="227.8"/>
		<line class="st1" x1="37.6" y1="241.9" x2="556.2" y2="241.9"/>
		<line class="st3" x1="37.6" y1="256" x2="556.2" y2="256"/>
		<line class="st4" x1="37.6" y1="284.6" x2="556.2" y2="284.6"/>
		<line class="st0" x1="37.6" y1="270.5" x2="556.2" y2="270.5"/>
		<line class="st4" x1="37.6" y1="312.8" x2="556.2" y2="312.8"/>
		<line class="st0" x1="37.6" y1="326.9" x2="556.2" y2="326.9"/>
		<line class="st1" x1="37.6" y1="355.4" x2="556.2" y2="355.4"/>
		<line class="st0" x1="37.6" y1="341.3" x2="556.2" y2="341.3"/>
		<line class="st0" x1="37.6" y1="369.5" x2="556.2" y2="369.5"/>
		<line class="st3" x1="37.6" y1="397.7" x2="556.2" y2="397.7"/>
		<line class="st1" x1="37.6" y1="426.3" x2="556.2" y2="426.3"/>
		<line class="st0" x1="37.6" y1="412.2" x2="556.2" y2="412.2"/>
		<line class="st4" x1="37.6" y1="454.5" x2="556.2" y2="454.5"/>
		<line class="st3" x1="37.6" y1="468.6" x2="556.2" y2="468.6"/>
		<line class="st1" x1="37.6" y1="497.2" x2="556.2" y2="497.2"/>
		<line class="st0" x1="37.6" y1="483.1" x2="556.2" y2="483.1"/>
		<line class="st0" x1="37.6" y1="511.3" x2="556.2" y2="511.3"/>
		<line class="st1" x1="37.6" y1="568" x2="556.2" y2="568"/>
		<line class="st0" x1="37.6" y1="553.9" x2="556.2" y2="553.9"/>
		<line class="st0" x1="37.6" y1="582.1" x2="556.2" y2="582.1"/>
		<line class="st1" x1="37.6" y1="596.2" x2="556.2" y2="596.2"/>
		<line class="st2" x1="37.6" y1="610.3" x2="556.2" y2="610.3"/>
		<line class="st0" x1="37.6" y1="624.8" x2="556.2" y2="624.8"/>
		<line class="st0" x1="37.6" y1="653" x2="556.2" y2="653"/>
		<line class="st1" x1="37.6" y1="667.1" x2="556.2" y2="667.1"/>
		<line class="st2" x1="37.6" y1="681.2" x2="556.2" y2="681.2"/>
		<line class="st1" x1="37.6" y1="709.8" x2="556.2" y2="709.8"/>
		<line class="st0" x1="37.6" y1="723.9" x2="556.2" y2="723.9"/>
	</g>
	<line class="st1" x1="37.6" y1="738" x2="556.2" y2="738"/>
	<line class="st5" x1="37.6" y1="735" x2="556.2" y2="735"/>
	<path class="st6" d="M563.3,784.4H30.9c-4.4,0-7.9-3.6-7.9-7.9V760c0-4.4,3.6-7.9,7.9-7.9h532.4c4.4,0,7.9,3.6,7.9,7.9v16.5
		C571.2,780.8,567.6,784.4,563.3,784.4z"/>
	<path class="st6" d="M563.8,109.3H31.5c-4.4,0-7.9-3.6-7.9-7.9v-0.3c0-4.4,3.6-7.9,7.9-7.9h532.4c4.4,0,7.9,3.6,7.9,7.9v0.3
		C571.8,105.8,568.2,109.3,563.8,109.3z"/>
</g>
<g>
	<path class="st7" d="M424.9,491.1l-2,9.5c-0.2,1.3-1.7,2.1-3,1.9l-7.7-1.7c-1.4,3.2-3.4,6-5.7,8.5l4.4,6.9c0.7,1.2,0.4,2.7-0.7,3.4
		l-8.2,5.2c-1.2,0.7-2.7,0.4-3.4-0.7l-4.3-6.6c-3.2,1.2-6.6,1.9-10.1,2l-1.8,7.9c-0.2,1.3-1.7,2.1-3,1.9l-9.5-2
		c-1.3-0.2-2.1-1.7-1.9-3l1.7-7.7c-3.2-1.4-6-3.4-8.5-5.7l-6.9,4.4c-1.2,0.7-2.7,0.4-3.4-0.7l-5.2-8.2c-0.7-1.2-0.4-2.7,0.7-3.4
		l6.6-4.3c-1.2-3.2-1.9-6.6-2-10.1l-7.9-1.8c-1.3-0.2-2.1-1.7-1.9-3l2-9.5c0.2-1.3,1.7-2.1,3-1.9l7.7,1.7c1.4-3.2,3.4-6,5.7-8.5
		l-4.4-6.9c-0.7-1.2-0.4-2.7,0.7-3.4l8.2-5.2c1.2-0.7,2.7-0.4,3.4,0.7l4.3,6.6c3.2-1.2,6.5-1.9,10.1-2l1.8-7.9
		c0.2-1.3,1.7-2.1,3-1.9l9.5,2c1.3,0.2,2.1,1.7,1.9,3l-1.7,7.7c3.2,1.4,6,3.4,8.5,5.7l6.9-4.4c1.2-0.7,2.7-0.4,3.4,0.7l5.2,8.2
		c0.7,1.2,0.4,2.7-0.7,3.4l-6.6,4.3c1.2,3.2,1.9,6.5,2,10.1l7.9,1.8C424.3,488.5,425.3,489.8,424.9,491.1z M405.5,492.4
		c2.7-12.3-5.2-24.5-17.5-27.1s-24.5,5.2-27.1,17.5c-2.7,12.3,5.2,24.5,17.5,27.1C390.7,512.6,402.9,504.7,405.5,492.4z"/>
	<g>
		<circle class="st8" cx="383.1" cy="487.7" r="22.9"/>
		<path class="st8" d="M423,488.3l-7.9-1.8c-0.1-3.6-0.8-6.9-2-10.1l6.6-4.3c1.2-0.7,1.4-2.3,0.7-3.4l-5.2-8.2
			c-0.7-1.2-2.3-1.4-3.4-0.7l-6.9,4.4c-2.5-2.4-5.3-4.3-8.5-5.7l1.7-7.7c0.2-1.3-0.6-2.6-1.9-3l-9.5-2c-1.3-0.2-2.6,0.6-3,1.9
			l-1.8,7.9c-3.6,0.1-6.9,0.8-10.1,2l-4.3-6.6c-0.7-1.2-2.3-1.4-3.4-0.7l-8.2,5.2c-1.2,0.7-1.4,2.3-0.7,3.4l4.4,6.9
			c-2.4,2.5-4.3,5.3-5.7,8.5l-7.7-1.7c-1.3-0.2-2.6,0.6-3,1.9l-2,9.5c-0.2,1.3,0.6,2.6,1.9,3l7.9,1.8c0.1,3.6,0.8,6.9,2,10.1
			l-6.6,4.3c-1.2,0.7-1.4,2.3-0.7,3.4l5.2,8.2c0.7,1.2,2.3,1.4,3.4,0.7l6.9-4.4c2.5,2.4,5.3,4.3,8.5,5.7l-1.7,7.7
			c-0.2,1.3,0.6,2.6,1.9,3l9.5,2c1.3,0.2,2.6-0.6,3-1.9l1.8-7.9c3.6-0.1,6.9-0.8,10.1-2l4.3,6.6c0.7,1.2,2.3,1.4,3.4,0.7l8.2-5.2
			c1.2-0.7,1.4-2.3,0.7-3.4l-4.4-6.9c2.4-2.5,4.3-5.3,5.7-8.5l7.7,1.7c1.3,0.2,2.6-0.6,3-1.9l2-9.5
			C425.3,489.8,424.3,488.5,423,488.3z"/>
	</g>
</g>
<g>
	<g>
		<line class="st9" x1="460" y1="563.5" x2="465.2" y2="542.8"/>
	</g>
</g>
<g>
	<g>
		<g>
			<circle class="st10" cx="455.9" cy="582" r="18.9"/>
		</g>
	</g>
</g>
<g>
	<g>
		<g>
			<circle class="st10" cx="395.1" cy="601" r="12"/>
		</g>
	</g>
</g>
<g>
	<g>
		<g>
			
				<ellipse transform="matrix(0.1602 -0.9871 0.9871 0.1602 -176.6717 1012.3473)" class="st10" cx="506.6" cy="610" rx="12" ry="12"/>
		</g>
	</g>
</g>
<g>
	<g>
		<g>
			<circle class="st10" cx="467" cy="530.8" r="12"/>
		</g>
	</g>
</g>
<g>
	<g>
		<line class="st9" x1="473.5" y1="589" x2="496" y2="604.3"/>
	</g>
</g>
<g>
	<g>
		<line class="st9" x1="438" y1="588.1" x2="407.1" y2="598"/>
	</g>
</g>
<path class="st11" d="M111.4,164.3c0,0-5.1,9.9-3,22.5l-11.6,8c0,0,0.8,3.4,2,4.9l-32.4,22.1c0,0,0.1,1.3,0.7,1.4
	s35.5-16.4,35.5-16.4s2.3,4.2,3.8,4.8c0,0,10.1-5.2,11.8-6.2c0,0,12.2,9.1,21.3,9L111.4,164.3z"/>
<polygon class="st12" points="249.3,151.4 141.4,213.3 113.3,163.3 221.2,101.2 "/>
<polygon class="st11" points="246.4,146.3 178.4,185.3 155.8,144.8 223.7,105.8 "/>
<polygon class="st13" points="192.6,152.2 180.2,130.7 184,128.7 196.3,150 "/>
<polygon class="st13" points="204.2,144 192.8,123.6 196.6,121.5 208,141.8 "/>
<polygon class="st13" points="214.6,134.5 204.7,116.8 208.4,114.6 218.3,132.3 "/>
<polygon class="st14" points="225.3,98.6 221.2,101.2 249.3,151.4 253.6,149.1 258.6,157.8 265.9,153.8 252.1,128.7 267.7,119.7 
	277,135.9 287.2,129.8 259.4,79.1 248.8,85.3 257.8,101.6 242,110.6 228.2,85.6 220.6,89.9 "/>
<path class="st15" d="M142.3,202.6l-19.9-35.5c-0.7-1.3-0.2-2.9,1.1-3.7l31.3-18c1.3-0.8,3-0.3,3.8,1l19.9,35.5
	c0.7,1.3,0.2,2.9-1.1,3.7l-31.3,18C144.7,204.3,143,203.9,142.3,202.6z"/>
<path class="st7" d="M62,234.6c-0.1,1.6,0.2,3.1,1.2,4.3c1.8,2.1,5.2,2.7,7.7,1.7c3.9-1.6,2.7-6.5,1.6-9.5c-0.3-0.9-5.9-10.2-6-10
	c-1.4,2.7-2.6,5.7-3.5,8.6C62.5,231.1,62.1,232.8,62,234.6z"/>
<g>
	<g>
		<g>
			<path class="st16" d="M491.7,721H199.3c-8.6,0-15.6-7-15.6-15.6v-36c0-8.6,7-15.6,15.6-15.6h292.4c8.6,0,15.6,7,15.6,15.6v36
				C507.3,714,500.3,721,491.7,721z"/>
		</g>
	</g>
	<path class="st17" d="M485.5,716.5H203.8c-8.6,0-15.6-7-15.6-15.6v-27.1c0-8.6,7-15.6,15.6-15.6h281.7c8.6,0,15.6,7,15.6,15.6V701
		C501.1,709.5,494.1,716.5,485.5,716.5z"/>
</g>
<text transform="matrix(1 0 0 1 200.5259 700.0016)" class="st18 st19 st20">Basic introduction</text>
<path class="st10" d="M337.4,414.6l6,33.6c0.8,4.7-2.3,9.3-7,10.2l-27.5,4.9c-0.4,12.4-2.9,24.3-7.2,35.5l23.7,16.5
	c4,2.7,4.9,8.2,2.2,12.1L308,555.5c-2.7,4-8.2,4.9-12.1,2.2l-22.9-16c-8.8,8.2-18.9,15-30.1,20.1l5.1,28.4c0.8,4.7-2.3,9.3-7,10.2
	l-33.6,6c-4.7,0.8-9.3-2.3-10.2-7l-4.9-27.5c-12.4-0.4-24.3-2.9-35.5-7.2l-16.5,23.7c-2.7,4-8.2,4.9-12.1,2.2L100,570.8
	c-4-2.7-4.9-8.2-2.2-12.1l16-22.9c-8.2-8.8-15-18.9-20.1-30.1l-28.4,5.1c-4.7,0.8-9.3-2.3-10.2-7l-6-33.6c-0.8-4.7,2.3-9.3,7-10.2
	l27.5-4.9c0.4-12.4,2.9-24.3,7.1-35.5L67,402.9c-4-2.7-4.9-8.2-2.2-12.1l19.6-28.1c2.7-4,8.2-4.9,12.1-2.2l22.9,16
	c8.8-8.2,18.9-15,30.1-20l-5.1-28.4c-0.8-4.7,2.3-9.3,7-10.2l33.6-6c4.7-0.8,9.3,2.3,10.2,7l4.9,27.5c12.4,0.4,24.3,2.9,35.5,7.2
	l16.5-23.7c2.7-4,8.2-4.9,12.1-2.2l28.1,19.5c4,2.7,4.9,8.2,2.2,12.1l-16,22.9c8.2,8.8,15,18.9,20,30.1l28.4-5.1
	C331.9,406.8,336.6,409.9,337.4,414.6z M275.6,444.9c-7.8-43.9-49.7-73.1-93.6-65.2c-43.9,7.8-73.1,49.7-65.2,93.6
	s49.7,73,93.6,65.2C254.4,530.6,283.5,488.7,275.6,444.9z"/>
<path class="st7" d="M183.1,510.8l-37.9-38.4c-7.2-7.3-7.2-19.3,0-26.6l37.9-38.4c7.2-7.3,19.1-7.3,26.3,0l37.9,38.4
	c7.2,7.3,7.2,19.3,0,26.6l-37.9,38.4C202.2,518.2,190.3,518.2,183.1,510.8z"/>
<polygon class="st18" points="228.9,444.1 208.4,444.1 208.4,423.3 184.2,423.3 184.2,444.1 163.7,444.1 163.7,468.6 184.2,468.6 
	184.2,489.4 208.4,489.4 208.4,468.6 228.9,468.6 "/>
<g>
	<path class="st7" d="M56,275.6c0-1.3,0.2-2.8,0.6-4.4c0.4-1.6,1.1-3.2,2-4.8c1.3-2.1,2.8-4.2,4.5-6.2s3.3-3.8,5-5.5
		c1.7-1.7,3.4-3.2,5.2-4.5s3.4-2.3,4.9-3.1c6.2-2.9,22-8,22,4.7c-9.5-5.1-18.9,0-26.1,6.5c-1,0.9-1.9,1.7-2.7,2.3
		c-1.1,1.1-2.1,2.3-3,3.5c-0.9,1.2-1.7,2.4-2.4,3.6c-0.7,1.2-1.2,2.5-1.5,3.7s-0.5,2.6-0.5,4c0,1.1,0.2,2,0.6,2.8
		c0.4,0.8,0.8,1.5,1.2,2.1c0.5,0.7,1.2,1.1,2,1.4c0.8,0.3,1.7,0.4,2.8,0.4c2.4,0,4.5-0.2,6.5-0.5c4.3-4.4,10.6-4.4,16.9-6.9
		c6.3-2.5,3.2,5.1,3.2,5.1c-3.2,7.6-12.6,7.6-21.7,8.3c-0.8,0.1-1.7,0.2-2.8,0.2c-1.1,0.1-2.4,0.1-4.1,0.1c-1,0-1.9-0.1-2.7-0.4
		s-1.6-0.6-2.2-0.9c-0.7-0.3-1.2-0.7-1.7-1.1c-0.5-0.4-0.8-0.7-1.1-1c-1.6-1.5-2.8-3.1-3.6-4.5C56.4,279,56,277.4,56,275.6z"/>
	<path class="st7" d="M124.1,284.1c1.3-12,10.7-24.7,10.7-37.4c-6.3,2.5-12.6,7.6-22.1,7.6c9.5-15.2,41-20.3,56.8-10.1
		c-31.5-5.1-34.7,25.4-37.9,43.1c-3.2-2.5-6.3,2.5-7.7-1.8C123.9,285.1,123.9,284.6,124.1,284.1z"/>
	<path class="st7" d="M158.7,284.1c17.2-9.4,20.4-29.7,10.9-42.4c18.9-2.5,41,0,44.2,15.2c6.3,20.3-28.4,38.1-56.7,28.6
		C157.4,285,157.9,284.5,158.7,284.1z M177.3,274.2c-1.4,3-1.4,5.5-1.4,8c12.6-5.1,31.5-7.6,31.5-20.3c0-7.6-9.5-17.8-22.1-15.2
		c-3.2,2.5-3.2,7.6-3.7,13.9C180.1,265.1,178.7,269.6,177.3,274.2z"/>
	<path class="st7" d="M220.2,277c6.1-10,15.6-22.7,31.4-17.6c3.2-7.6-3.2-20.3,12.6-22.8c-6.3,22.8,0,60.9-41,50.7
		c-3.2,0-3.2-5.1-3.4-8.6C219.9,278.2,220,277.7,220.2,277z M227.4,276.7c-1.1,8.1,8.4,5.5,11.5,5.5c6.3-2.5,12.6-12.7,9.5-17.8
		c-6.3-2.5-12.6,2.5-19.1,8.5C228.4,274.2,227.8,275.4,227.4,276.7z"/>
	<path class="st7" d="M269,304.3c-4.8,0.8,1.5-4.3-1.6-6.8c3.2,0,9.5,0,9.5,0c3.2-5.1,12.6-10.1,9.5-17.8
		c-6.3,5.1-12.6,10.1-18.9,2.5c-6.3-12.7,9.5-20.3,22.1-25.4c6.3-2.5,9.5,2.5,9.5,5.1c-3.2,12.7-3.2,33-22.3,41.4
		C274.3,304,271.8,304.3,269,304.3z M273.3,276.5c12.9,5.8,12.9-6.9,19.3-12c-12.6-5.1-12.6,5.1-18.1,9.4
		C274,274.6,273.6,275.5,273.3,276.5z"/>
	<path class="st7" d="M319.7,290.6c-8.2-10.9-17.7-21.1-5-33.8c6.3,7.6,3.2,17.8,6.3,25.4c9.5-7.6,9.5-20.3,25.2-25.4
		c-3.2,12.7-15.8,22.8-25.6,33.5C320.3,290.5,320,290.6,319.7,290.6z"/>
</g>
</svg>
