<?xml version="1.0" encoding="utf-8"?>
<!-- Generator: Adobe Illustrator 23.0.3, SVG Export Plug-In . SVG Version: 6.00 Build 0)  -->
<svg version="1.1" id="图层_1" xmlns="http://www.w3.org/2000/svg" xmlns:xlink="http://www.w3.org/1999/xlink" x="0px" y="0px"
	 viewBox="0 0 209.2 192.5" style="enable-background:new 0 0 209.2 192.5;" xml:space="preserve">
<style type="text/css">
	.st0{fill:#CB4856;}
	.st1{fill:#1D3B5C;}
	.st2{fill:#D6677C;}
	.st3{fill:#578CBC;}
	.st4{fill:#999999;}
	.st5{fill:#F5BD8F;}
	.st6{fill:#232323;stroke:#000000;stroke-width:4;stroke-miterlimit:10;}
	.st7{fill:#232323;}
</style>
<rect x="13" y="162.6" class="st0" width="57" height="11.7"/>
<rect x="156.8" y="162.6" class="st1" width="48.5" height="11.7"/>
<rect x="72.6" y="162.6" class="st2" width="30.3" height="11.7"/>
<rect x="124.2" y="162.6" class="st3" width="30.3" height="11.7"/>
<rect x="105.9" y="162.6" class="st4" width="15.1" height="11.7"/>
<path class="st5" d="M29.6,114.8c3.9,0.5,7.7-1.2,8.5-4C54.3,53.4,67,49.5,69.4,49.3c7.8-0.5,21.7,20.1,30,32.5
	c13.9,20.8,26.1,38.8,43.5,38.8c0.5,0,1.1,0,1.7-0.1c15-1,26.3-15,37.8-46.9c1-2.7-1.4-5.4-5.2-6.1c-3.9-0.6-7.7,0.9-8.8,3.6
	c-13.3,36.8-23.3,39.2-25.1,39.4c-8.3,0.6-22.3-20.4-30.7-33C98.2,56.2,85.8,37.8,67.7,39.3c-12.9,1.1-27.1,10.2-43.8,69.6
	c-0.6,2.8,1.8,5.4,5.6,5.9C29.5,114.8,29.6,114.8,29.6,114.8z"/>
<rect x="13.2" y="32.4" class="st6" width="1.7" height="125.6"/>
<rect x="38.2" y="131.2" class="st7" width="0.4" height="30.3"/>
<rect x="47.4" y="131.2" class="st7" width="0.5" height="30.3"/>
<rect x="53.1" y="131.2" class="st7" width="0.4" height="30.3"/>
<rect x="64.2" y="131.2" class="st7" width="0.5" height="30.3"/>
<rect x="83.7" y="131.2" class="st7" width="0.5" height="30.3"/>
<rect x="30.3" y="131.2" class="st7" width="0.4" height="30.3"/>
<rect x="43.9" y="131.2" class="st7" width="0.5" height="30.3"/>
<rect x="49.6" y="131.2" class="st7" width="0.4" height="30.3"/>
<rect x="60.6" y="131.2" class="st7" width="0.5" height="30.3"/>
<rect x="145.7" y="131.2" class="st7" width="0.4" height="30.3"/>
<rect x="154.9" y="131.2" class="st7" width="0.5" height="30.3"/>
<rect x="160.6" y="131.2" class="st7" width="0.4" height="30.3"/>
<rect x="171.7" y="131.2" class="st7" width="0.5" height="30.3"/>
</svg>
