<?xml version="1.0" encoding="utf-8"?>
<!-- Generator: Adobe Illustrator 23.0.3, SVG Export Plug-In . SVG Version: 6.00 Build 0)  -->
<svg version="1.1" id="图层_1" xmlns="http://www.w3.org/2000/svg" xmlns:xlink="http://www.w3.org/1999/xlink" x="0px" y="0px"
	 viewBox="0 0 352.4 350.1" style="enable-background:new 0 0 352.4 350.1;" xml:space="preserve">
<style type="text/css">
	.st0{opacity:0.6;fill:#ED907F;enable-background:new    ;}
	.st1{opacity:0.6;fill:#999999;enable-background:new    ;}
	.st2{fill:#BBBAC0;stroke:#BBBAC0;stroke-width:9.0571;stroke-miterlimit:10;}
	.st3{fill:#50B775;}
	.st4{fill:#27C59A;}
</style>
<path class="st0" d="M262.3,82.6c0,16.4,13.2,29.6,29.6,29.6c16.4,0,29.6-13.2,29.6-29.6l0,0c0-16.4-13.2-29.6-29.6-29.6
	C275.7,52.9,262.3,66.2,262.3,82.6L262.3,82.6z"/>
<path class="st0" d="M127.8,188.1c0,8.2,6.7,14.8,14.8,14.8c8.2,0,14.8-6.7,14.8-14.8s-6.7-14.8-14.8-14.8
	C134.5,173.2,127.8,179.8,127.8,188.1z"/>
<path class="st0" d="M200.2,176.4c0,10.3,8.3,18.5,18.5,18.5c10.3,0,18.5-8.3,18.5-18.5l0,0c0-10.3-8.3-18.5-18.5-18.5
	C208.5,157.9,200.2,166.2,200.2,176.4L200.2,176.4z"/>
<path class="st0" d="M199.9,112.1c0,14.1,11.4,25.4,25.4,25.4c14.1,0,25.4-11.4,25.4-25.4s-11.4-25.4-25.4-25.4
	S199.9,98,199.9,112.1z"/>
<path class="st0" d="M99.2,242.3c0,4.3,3.6,7.9,7.9,7.9c4.3,0,7.9-3.6,7.9-7.9s-3.6-7.9-7.9-7.9C102.8,234.4,99.2,238,99.2,242.3
	L99.2,242.3z"/>
<path class="st1" d="M162.7,273.2c0,5.8,4.7,10.6,10.6,10.6s10.6-4.7,10.6-10.6c0-5.8-4.7-10.6-10.6-10.6
	C167.5,262.7,162.7,267.3,162.7,273.2L162.7,273.2L162.7,273.2z"/>
<path class="st0" d="M65.9,273.2c0,6.7,5.4,12.2,12.1,12.2s12.2-5.4,12.2-12.1l0,0c0-6.7-5.4-12.2-12.2-12.2
	C71.4,261,65.9,266.5,65.9,273.2L65.9,273.2z"/>
<path class="st0" d="M81.3,219.2c0,4.9,4.1,9,9,9s9-4.1,9-9l0,0c0-4.9-4.1-9-9-9C85.2,210.2,81.3,214.2,81.3,219.2L81.3,219.2z"/>
<path class="st2" d="M16,317.1h274.7v2.1H16V317.1z M16,52.9h0.9v264.2H16V52.9z"/>
<path class="st3" d="M342,263.3v24.1c0,4-2,8-4,8H44.6c-2,0-4-4-4-8v-24.1c0-4,2-8,4-8H338C340,255.2,342,259.2,342,263.3z"/>
<path class="st4" d="M256.4,203v24.1c0,4-2,8-4,8h-207c-2,0-4-4-4-8V203c0-4,2-8,4-8h207C254.4,195,256.4,198.1,256.4,203z"/>
<path class="st3" d="M200.2,140.8v24.1c0,4-2,8-4,8H44.6c-2,0-4-4-4-8v-24.1c0-4,2-8,4-8h151.7C198.2,132.9,200.2,135.8,200.2,140.8
	z"/>
<path class="st4" d="M157.5,83.2v24.1c0,4-2,8-4,8H44.9c-2,0-4-4-4-8V83.2c0-4,2-8,4-8h108.7C155.5,75.2,157.5,78.1,157.5,83.2z"/>
<path class="st3" d="M298,31.8v24.1c0,4-2,8-4,8H44.6c-2,0-4-4-4-8V31.8c0-4,2-8,4-8h249.5C296.1,23.8,298,26.9,298,31.8L298,31.8z"
	/>
<g>
	<g>
		<path d="M273.6,91.6h-5l-5.3-7.7c0,0-0.2-0.2-0.2-0.3c-0.2-0.2-0.2-0.3-0.3-0.6l0,0v8.6h-4.1v-18h4.1v8.3l0,0
			c0-0.2,0.2-0.3,0.2-0.5c0.2-0.2,0.2-0.3,0.3-0.6l5-7.4h4.7l-6.2,8.5L273.6,91.6z"/>
		<path d="M286.4,91.6h-10.9v-18h10.5v3.3h-6.4v3.9h5.9v3.3h-5.9v4.1h6.8V91.6z"/>
		<path d="M304,90.2c-0.9,0.5-1.8,0.9-2.9,1.2c-1.1,0.3-2.3,0.5-3.6,0.5c-2.9,0-5.2-0.8-6.8-2.3c-1.7-1.5-2.6-3.8-2.6-6.8
			c0-2.7,0.9-5,2.6-6.8c1.7-1.8,4.1-2.7,7.1-2.7c1.1,0,2.1,0.2,3.2,0.3c0.9,0.2,2,0.5,3,0.9l-1.2,3.2c-0.9-0.3-1.7-0.6-2.4-0.8
			s-1.7-0.2-2.6-0.2c-1.7,0-3,0.5-3.9,1.5s-1.5,2.6-1.5,4.5c0,2,0.5,3.5,1.5,4.4s2.3,1.4,3.8,1.4c0.5,0,0.9,0,1.4-0.2
			c0.5,0,0.8-0.2,1.1-0.3v-3.5h-3.6v-3.2h7.7v8.8H304z"/>
		<path d="M322.3,90.2c-0.9,0.5-1.8,0.9-2.9,1.2c-1.1,0.3-2.3,0.5-3.6,0.5c-2.9,0-5.2-0.8-6.8-2.3c-1.7-1.5-2.6-3.8-2.6-6.8
			c0-2.7,0.9-5,2.6-6.8c1.7-1.8,4.1-2.7,7.1-2.7c1.1,0,2.1,0.2,3.2,0.3c0.9,0.2,2,0.5,3,0.9l-1.2,3.2c-0.9-0.3-1.7-0.6-2.4-0.8
			s-1.7-0.2-2.6-0.2c-1.7,0-3,0.5-3.9,1.5s-1.5,2.6-1.5,4.5c0,2,0.5,3.5,1.5,4.4s2.3,1.4,3.8,1.4c0.5,0,0.9,0,1.4-0.2
			c0.5-0.2,0.8-0.2,1.1-0.3v-3.5h-3.6v-3.2h7.7v8.8H322.3z"/>
	</g>
</g>
<g>
	<g>
		<path d="M253.2,280.8c-0.9,0.5-1.8,0.9-2.9,1.2c-1.1,0.3-2.3,0.5-3.6,0.5c-2.9,0-5.2-0.8-6.8-2.3c-1.7-1.5-2.6-3.8-2.6-6.8
			c0-2.7,0.9-5,2.6-6.8c1.7-1.8,4.1-2.7,7.1-2.7c1.1,0,2.1,0.2,3.2,0.3c0.9,0.2,2,0.5,3,0.9l-1.2,3.2c-0.9-0.3-1.7-0.6-2.4-0.8
			c-0.8-0.2-1.7-0.2-2.6-0.2c-1.7,0-3,0.5-3.9,1.5s-1.5,2.6-1.5,4.5c0,2,0.5,3.5,1.5,4.4c0.9,0.9,2.3,1.4,3.8,1.4
			c0.5,0,0.9,0,1.4-0.2c0.5,0,0.8-0.2,1.1-0.3v-3.5h-3.6V272h7.7v8.8H253.2z"/>
		<path d="M264.3,282.5c-2.6,0-4.7-0.9-6.4-2.6c-1.7-1.7-2.4-3.9-2.4-6.5c0-2.9,0.8-5.2,2.4-7c1.7-1.8,3.8-2.6,6.5-2.6
			c2.6,0,4.7,0.9,6.2,2.6c1.5,1.7,2.4,3.9,2.4,6.7c0,2.9-0.8,5.2-2.4,6.8C269.1,281.6,266.8,282.5,264.3,282.5z M264.3,279
			c1.4,0,2.6-0.5,3.3-1.5s1.2-2.4,1.2-4.2c0-1.8-0.5-3.3-1.2-4.4c-0.8-1.1-1.8-1.5-3.3-1.5c-1.4,0-2.6,0.6-3.3,1.7
			c-0.9,1.1-1.2,2.4-1.2,4.2c0,1.8,0.5,3.2,1.2,4.2C261.8,278.5,263,279,264.3,279z"/>
	</g>
</g>
</svg>
