<?xml version="1.0" encoding="utf-8"?>
<!-- Generator: Adobe Illustrator 23.0.3, SVG Export Plug-In . SVG Version: 6.00 Build 0)  -->
<svg version="1.1" id="图层_1" xmlns="http://www.w3.org/2000/svg" xmlns:xlink="http://www.w3.org/1999/xlink" x="0px" y="0px"
	 viewBox="0 0 209.2 192.5" style="enable-background:new 0 0 209.2 192.5;" xml:space="preserve">
<style type="text/css">
	.st0{fill:#303030;}
	.st1{fill:#BBBAC0;}
	.st2{fill:#FFFFFF;}
	.st3{fill:#348DCD;}
	.st4{fill:none;stroke:#72B7AD;stroke-width:3;stroke-miterlimit:10;}
	.st5{fill:none;stroke:#ED907F;stroke-width:5;stroke-miterlimit:10;}
	.st6{fill:#EC8E25;}
	.st7{fill:#FFFFFF;stroke:#EC8E25;stroke-miterlimit:10;}
	.st8{fill:none;stroke:#ED907F;stroke-width:3;stroke-miterlimit:10;}
	.st9{fill:none;stroke:#50B775;stroke-width:3;stroke-miterlimit:10;}
	.st10{fill:none;stroke:#BBBAC0;stroke-width:5;stroke-miterlimit:10;}
</style>
<path class="st0" d="M107.7,12.4v165.8c0,1.1-0.4,2-0.9,2h-1.3c-0.5,0-0.9-0.9-0.9-2V12.4c0-1.1,0.4-2,0.9-2h1.3
	C107.3,10.4,107.7,11.3,107.7,12.4z"/>
<path class="st0" d="M15.6,89.1h177c1.1,0,2,0.9,2,2v2.3c0,1.1-0.9,2-2,2h-177c-1.1,0-2-0.9-2-2v-2.3C13.6,90,14.5,89.1,15.6,89.1z"
	/>
<ellipse class="st1" cx="56.7" cy="44.9" rx="33.8" ry="22.2"/>
<ellipse class="st2" cx="61.2" cy="46.8" rx="25.9" ry="15.3"/>
<path class="st3" d="M50.5,36.2H75c0,0,7.4,2,9.1,8.6c1.7,6.6-6.4,12-8.1,11l11,17.6H74.3L66.7,59H62v14.5H50.5V36.2z"/>
<path class="st2" d="M62.3,43.8v6.6h8.1c0,0,4.7-3.9,0-6.6H62.3z"/>
<g>
	<line class="st4" x1="31" y1="151.4" x2="41.6" y2="163.6"/>
	<line class="st4" x1="44.2" y1="138.1" x2="54" y2="149.3"/>
	<line class="st4" x1="58.4" y1="129.2" x2="67.1" y2="139.2"/>
	<line class="st4" x1="73.6" y1="112.1" x2="83.4" y2="123.3"/>
	<line class="st4" x1="49.7" y1="131.1" x2="61.8" y2="145"/>
</g>
<path class="st5" d="M76.2,106c-6.3,4.9-8.9,13.3-6.4,20.9c2.4,7.3-0.2,14.2-6.1,19c-5.8,4.7-13.4,4.9-20.5,3.2
	c-7.2-1.7-15.8-0.2-20.1,6.4"/>
<g>
	<g>
		<path class="st5" d="M36.2,169.7c7.2-2.8,8.4-10.8,8.1-17.7c-0.3-6.8-3.6-15.3,2.1-20.9c6.1-6,15.9-4.8,23.6-4.3
			c7,0.4,14.9-0.1,19.3-6.4c0-0.1,0.1-0.1,0.2-0.2"/>
	</g>
</g>
<g>
	<path class="st6" d="M130,129.4c-4.8,0.2-8.1,6.7-8.4,10.9c-0.3,4,1.3,8.1,4,11c1.2,1.3,2.7,2.4,4.5,3c2.4,0.8,5.1,0.6,7.5,0.6
		c2.4,0,4.7-0.1,7.1-0.1l20.9,0c3.9,0,7.8,0,11.7,0.1c4.2,0,7.7-0.9,10-4.5c2.4-3.6,2.7-8.6,0.8-12.4c-1.9-3.9-5.9-6.7-10.2-7.2
		c0.8-3.7-0.2-7.7-2.5-10.8c-3.6-4.9-10.4-7.9-16.4-7.3c-3.3,0.3-6.4,1.8-8.9,4c-0.5,0.5-5.3,5.7-5.2,5.7
		c-5.5-3.3-13.4,0.1-14.8,6.4"/>
	<path class="st7" d="M133.6,152.3c-3.6-3.9-4.2-11.1-0.2-14.1c0.3-0.2,3-1.2,3-1.2c0.1-2.3,0.9-5,3.1-6.1c1.6-0.9,3.3-0.5,4.9,0.1
		c0.1,0.1,1.5,0.6,2.3,0.9c0.4,0.2,0.8,0,1-0.3c2-3,4.4-6.1,7.8-7.4c3-1.1,6.3-0.7,9.3,0.5c2.6,1.1,5,2.8,6.1,5.5
		c0.5,1.3,0.7,2.8,0.7,4.2c0,0.3-0.2,2.5-0.2,3.5c0,0.3,0.2,0.5,0.4,0.5c1.6,0.3,3.2,0.7,4.7,1.3c3.1,1.5,4.6,5.1,3.8,8.4
		c-0.5,2-1.8,3.5-3.6,4.3c-2.4,1.1-4.8,0.9-7.4,0.9c-3.4,0-6.9,0-10.3,0c-3.9,0-7.9,0-11.8,0c-3.4,0-6.9,0.1-10.3,0
		C135.5,153.3,134.4,153.1,133.6,152.3z"/>
	<path class="st6" d="M165.1,156.1h-3.6v-9.4c0-0.6-0.5-1.1-1.1-1.1h-5.8c-0.6,0-1.1,0.5-1.1,1.1v9.4H150c-0.5,0-0.8,0.5-0.5,0.9
		l3.7,5.3l3.8,5.5c0.2,0.3,0.8,0.3,1,0l3.8-5.5l3.7-5.3C165.9,156.6,165.6,156.1,165.1,156.1z"/>
</g>
<polyline class="st8" points="134.1,29 151,29 151,47.8 168.1,47.8 168.1,64.3 "/>
<polyline class="st9" points="137,39.3 157.6,39.3 157.6,59.3 179.2,59.3 "/>
<line class="st9" x1="174.6" y1="25.6" x2="180.7" y2="25.6"/>
<line class="st8" x1="174.7" y1="31.3" x2="180.7" y2="31.3"/>
<line class="st10" x1="189.4" y1="76" x2="126.7" y2="76"/>
<line class="st10" x1="126.5" y1="18" x2="127" y2="74.7"/>
</svg>
