<?xml version="1.0" encoding="utf-8"?>
<!-- Generator: Adobe Illustrator 23.0.3, SVG Export Plug-In . SVG Version: 6.00 Build 0)  -->
<svg version="1.1" id="图层_1" xmlns="http://www.w3.org/2000/svg" xmlns:xlink="http://www.w3.org/1999/xlink" x="0px" y="0px"
	 viewBox="0 0 2182.7 385" style="enable-background:new 0 0 2182.7 385;" xml:space="preserve">
<style type="text/css">
	.st0{fill:#FFFFFF;}
	.st1{fill:#142640;}
	.st2{fill:#F0F3FF;}
	.st3{fill:#567BFF;}
	.st4{fill:#24F2DC;}
	.st5{fill:#48DAE0;}
	.st6{fill:#00BFB7;}
	.st7{fill:#4C64E0;}
	.st8{fill:#2B3E5B;}
	.st9{fill:#E48558;stroke:#231815;stroke-width:0.4316;stroke-miterlimit:10;}
	.st10{fill:#7E62A7;}
	.st11{fill:#BAE1F6;}
	.st12{opacity:0.5;fill:#FFFFFF;enable-background:new    ;}
	.st13{fill:#6AB448;stroke:#0C233D;stroke-width:0.4406;stroke-miterlimit:10;}
	.st14{fill:#E48558;stroke:#231815;stroke-width:0.4406;stroke-miterlimit:10;}
	.st15{fill:#6AB448;stroke:#0C233D;stroke-width:0.3376;stroke-miterlimit:10;}
	.st16{fill:#5297D2;stroke:#231815;stroke-width:0.2203;stroke-miterlimit:10;}
</style>
<path class="st0" d="M2882.5,459.8"/>
<g id="背景">
	<g>
		<rect y="-1.6" class="st1" width="2182.7" height="388.2"/>
	</g>
</g>
<g>
	<path class="st2" d="M1035.3,365.2l13-23.6l4.3,2.4l-13,23.6L1035.3,365.2z M1045.5,340.1l2.8,1.5l-13,23.6l-2.8-1.5
		c-0.8-0.3-1.2-1.1-1.2-2h0.3l11.9-21.5l-0.1-0.3C1044,339.7,1044.9,339.7,1045.5,340.1z"/>
	<path class="st2" d="M1042.7,340.3c0.1-0.1,0.3-0.3,0.5-0.3l0.1,0.3l-11.9,21.5h-0.3c0-0.2,0-0.4,0-0.7l2-12.5L1042.7,340.3z
		 M1034.3,334c0.7,0.5,1,1.4,0.8,2.3l-2,12.5l-9.6,8.4c-0.7,0.5-1.5,0.8-2.4,0.5L1034.3,334z M1030.1,331.5l3.9,2.2
		c0.1,0.1,0.3,0.1,0.4,0.3l-13,23.6c-0.1-0.1-0.3-0.1-0.4-0.2l-3.9-2.2L1030.1,331.5z M1026.2,329.3l3.9,2.2l-13,23.6l-3.9-2.2
		c-0.1-0.1-0.3-0.1-0.4-0.3l13-23.6C1026,329.2,1026.1,329.3,1026.2,329.3z M1025.7,329.2l-13,23.6c-0.7-0.5-1-1.4-0.8-2.3l2-12.5
		l9.6-8.4C1024.1,329.1,1025,328.9,1025.7,329.2z M1003.7,346.4l11.9-21.5h0.3c0,0.2,0,0.4,0,0.7l-2,12.5l-9.6,8.4
		c-0.1,0.1-0.3,0.3-0.5,0.3L1003.7,346.4z"/>
	<path class="st2" d="M1011.8,321.5l2.8,1.5c0.8,0.3,1.2,1.1,1.2,2h-0.3l-11.9,21.5l0.1,0.3c-0.8,0.3-1.5,0.3-2.3-0.1l-2.8-1.5
		L1011.8,321.5z M994.4,342.8l13.2-23.7l4.3,2.4l-13.2,23.7L994.4,342.8z"/>
	<path class="st3" d="M1057.4,335.3c1.2,0.7,2.7,0.2,3.4-1s0.2-2.7-1-3.4l0,0c-1.2-0.7-2.7-0.2-3.4,1
		C1055.8,333.2,1056.2,334.7,1057.4,335.3L1057.4,335.3z"/>
	<path class="st4" d="M1038.5,326.4c1.2,0.7,2.7,0.2,3.4-1s0.2-2.7-1-3.4l0,0c-1.2-0.7-2.7-0.2-3.4,1
		C1036.9,324.1,1037.4,325.7,1038.5,326.4L1038.5,326.4z"/>
	<path class="st4" d="M992.8,355.9c1.2,0.7,2.7,0.2,3.4-1s0.2-2.7-1-3.4l0,0c-1.2-0.7-2.7-0.2-3.4,1
		C991.2,353.7,991.7,355.2,992.8,355.9L992.8,355.9z"/>
	<path class="st3" d="M1023.9,375.8c1.2,0.7,2.7,0.2,3.4-1s0.2-2.7-1-3.4c-1.2-0.7-2.7-0.2-3.4,1S1022.7,375.1,1023.9,375.8
		L1023.9,375.8z"/>
	<path class="st3" d="M1020.8,315.2c1.2,0.7,2.7,0.2,3.4-1s0.2-2.7-1-3.4l0,0c-1.2-0.7-2.7-0.2-3.4,1S1019.6,314.5,1020.8,315.2
		L1020.8,315.2z"/>
	<path class="st5" d="M1042.4,367.7l-1.2,2.2l-9.2-5.1c-1-0.5-1.7-1.6-2-2.8c-0.1-0.3,0-0.7,0-1l3.9-25c0.1-0.4-0.1-0.9-0.4-1.1
		c-0.1-0.1-0.1-0.1-0.2-0.1l-7.7-4.2c-0.1,0-0.1-0.1-0.2-0.1c-0.4-0.1-0.9-0.1-1.2,0.2l-19,16.6c-0.2,0.2-0.5,0.3-0.8,0.5
		c-1.1,0.5-2.4,0.5-3.4-0.1l-9.2-5.1l1.2-2.2l9.2,5.1c0.3,0.2,0.8,0.2,1.1,0c0.1-0.1,0.2-0.1,0.3-0.1l19-16.6c1-0.8,2.3-1.1,3.5-0.8
		c0.2,0.1,0.4,0.1,0.7,0.3l7.7,4.2c0.2,0.1,0.4,0.3,0.7,0.4c1,0.8,1.4,2.2,1.2,3.4l-3.9,25c0,0.1,0,0.2,0,0.3c0.1,0.3,0.3,0.8,0.5,1
		L1042.4,367.7z"/>
	<path class="st3" d="M1055.4,344.1l-1.2,2.2l-9.2-5.1c-0.3-0.2-0.8-0.2-1.1,0c-0.1,0.1-0.2,0.1-0.3,0.1l-19,16.6
		c-1,0.8-2.3,1.1-3.5,0.8c-0.2-0.1-0.4-0.1-0.7-0.3l-7.7-4.2c-0.2-0.1-0.4-0.3-0.7-0.4c-1-0.8-1.4-2.2-1.2-3.4l3.9-25
		c0-0.1,0-0.2,0-0.3c-0.1-0.3-0.3-0.8-0.5-1l-9.2-5.1l1.2-2.2l9.2,5.1c1,0.5,1.7,1.6,2,2.8c0.1,0.3,0,0.7,0,1l-3.9,25
		c-0.1,0.4,0.1,0.9,0.4,1.1c0.1,0.1,0.1,0.1,0.2,0.1l7.7,4.2c0.1,0,0.1,0.1,0.2,0.1c0.4,0.1,0.9,0.1,1.2-0.2l18.9-16.5
		c0.2-0.2,0.5-0.3,0.8-0.5c1.1-0.5,2.4-0.5,3.4,0.1L1055.4,344.1z"/>
	<path class="st6" d="M1003.3,345.6c0.1-0.1,0.2-0.1,0.3-0.1l3.9-3.5l6.3-11.4l0.8-5.2c0-0.1,0-0.2,0-0.3c0-0.2-0.1-0.4-0.2-0.5
		l-11.7,21.3C1002.9,345.7,1003.1,345.6,1003.3,345.6z"/>
	<path class="st7" d="M998.2,343.5l11.9-21.5l2.2,1.2l-11.9,21.5L998.2,343.5z M994,341.1l11.9-21.5l2.2,1.2l-11.9,21.5L994,341.1z
		 M1039.2,366l11.9-21.5l2.2,1.2l-12,21.5L1039.2,366z M1034.9,363.6l11.9-21.5l2.2,1.2l-11.9,21.5L1034.9,363.6z"/>
	<path class="st6" d="M1043.9,341.2c-0.1,0.1-0.2,0.1-0.3,0.1l-3.9,3.5l-6.3,11.4l-0.8,5.2c0,0.1,0,0.2,0,0.3c0,0.2,0.1,0.4,0.2,0.5
		l11.7-21.3C1044.3,341,1044.1,341,1043.9,341.2L1043.9,341.2z M1021.5,356.2c0.1,0,0.1,0.1,0.2,0.1c0.4,0.1,0.9,0.1,1.2-0.2
		l1.2-1.1l9.6-17.4l0.2-1.6c0.1-0.4-0.1-0.9-0.4-1.1c-0.1-0.1-0.1-0.1-0.2-0.1l-0.7-0.3l-11.9,21.5L1021.5,356.2z"/>
	<path class="st7" d="M1016.5,353.5l11.9-21.5l2.2,1.2l-11.9,21.5L1016.5,353.5z"/>
	<path class="st6" d="M1013.1,350.7c-0.1,0.4,0.1,0.9,0.4,1.1c0.1,0.1,0.1,0.1,0.2,0.1l0.7,0.3l11.9-21.5l-0.7-0.3
		c-0.1,0-0.1-0.1-0.2-0.1c-0.4-0.1-0.9-0.1-1.2,0.2l-1.2,1.1l-9.6,17.4L1013.1,350.7z"/>
	<path class="st8" d="M1017.9,362.4l5,10.3c0-0.1,0.1-0.2,0.1-0.3c0.3-0.7,1.1-1.2,2-1.2l-4.5-9.4l0.9-1.6l-2.2-1.2l-1.2,2.2
		C1017.7,361.6,1017.7,362.1,1017.9,362.4z M1056.4,332c0.1-0.1,0.2-0.3,0.3-0.5l-9.7,2.8c-0.3,0.1-0.5,0.3-0.8,0.5l-1.2,2.2
		l2.2,1.2l1-1.6l8-2.4C1056.1,333.6,1056.1,332.7,1056.4,332z M1029.3,324.3l-5-10.4c-0.1,0.1-0.1,0.2-0.1,0.3
		c-0.3,0.7-1,1.1-1.8,1.2l4.3,9.4l-0.9,1.6l2.2,1.2l1.2-2.2C1029.4,325.1,1029.4,324.6,1029.3,324.3z M995.2,351.5
		c0.3,0.2,0.7,0.5,0.9,0.9l2.6-4.6l-2.2-1.2l-2.6,4.6C994.3,351.3,994.7,351.3,995.2,351.5z M1038.5,326.4c-0.3-0.2-0.7-0.5-0.9-0.9
		l-3.2,5.8l2.2,1.2l3.2-5.8C1039.3,326.6,1038.9,326.6,1038.5,326.4z"/>
	<path d="M1042.4,367.7l-1.2,2.2l-9.2-5.1c-1.3-0.8-2.2-2.3-1.8-3.8l3.9-25c0.1-0.5-0.1-1-0.5-1.2l-7.7-4.2c-0.4-0.2-1-0.2-1.4,0.1
		l-19,16.6c-1.2,1-2.8,1.2-4.1,0.4l-9.2-5.1l1.2-2.2l9.2,5.1c0.4,0.2,1,0.2,1.4-0.1l19-16.6c1.2-1,2.8-1.2,4.1-0.4l7.7,4.2
		c1.3,0.8,2.2,2.3,1.8,3.8l-3.9,25c-0.1,0.5,0.1,1,0.5,1.2L1042.4,367.7z"/>
	<path d="M1055.4,344.1l-1.2,2.2l-9.2-5.1c-0.4-0.2-1-0.2-1.4,0.1l-19,16.6c-1.2,1-2.8,1.2-4.1,0.4l-7.7-4.2
		c-1.3-0.8-2.2-2.3-1.8-3.8l3.9-25c0.1-0.5-0.1-1-0.5-1.2l-9.2-5.1l1.2-2.2l9.2,5.1c1.3,0.8,2.2,2.3,1.8,3.8l-3.9,25
		c-0.1,0.5,0.1,1,0.5,1.2l7.7,4.2c0.4,0.2,1,0.2,1.4-0.1l19-16.6c1.2-1,2.8-1.2,4.1-0.4L1055.4,344.1z"/>
	<path d="M1002.6,345.9l11.9-21.5l2.2,1.2l-11.9,21.5L1002.6,345.9z M1000.6,339.1l10.1-18.3l2.2,1.2l-10.1,18.3L1000.6,339.1z
		 M997.7,344.5l1.7-3.3l2.2,1.2l-1.7,3.3L997.7,344.5z M993.4,342.2l13-23.6l2.2,1.2l-13,23.6L993.4,342.2z M1038.6,367.1l13-23.6
		l2.2,1.2l-13,23.6L1038.6,367.1z M1037.2,359.3l10.1-18.3l2.2,1.2l-10.1,18.3L1037.2,359.3z M1034.2,364.7l1.7-3.3l2.2,1.2
		l-1.7,3.3L1034.2,364.7z M1030.5,361.2l11.9-21.5l2.2,1.2l-11.9,21.5L1030.5,361.2z M1020.3,356.9l13-23.6l2.2,1.2l-13,23.6
		L1020.3,356.9z M1027.3,334.2l1.7-3.3l2.2,1.2l-1.7,3.3L1027.3,334.2z M1016,354.7l10.1-18.3l2.2,1.2l-10.1,18.3L1016,354.7z
		 M1011.6,352.2l13-23.6l2.2,1.2l-13,23.6L1011.6,352.2z M1024.7,370.9l-2.2,1l-4.6-9.6c-0.1-0.3-0.1-0.8,0-1.1l1.2-2.2l2.2,1.2
		l-0.9,1.6L1024.7,370.9z"/>
	<path d="M1028.3,375.4c-1,1.7-3.3,2.4-5,1.4s-2.4-3.3-1.4-5s3.3-2.4,5-1.4C1028.7,371.4,1029.3,373.7,1028.3,375.4z M1024,373
		c-0.3,0.5-0.1,1.3,0.5,1.6c0.7,0.3,1.3,0.1,1.6-0.5c0.3-0.5,0.1-1.3-0.5-1.6l0,0C1025.1,372.3,1024.3,372.5,1024,373z
		 M1056.2,334.2l-7.8,2.3l-1,1.6l-2.2-1.2l1.2-2.2c0.1-0.3,0.4-0.5,0.8-0.5l8.4-2.4L1056.2,334.2z"/>
	<path d="M1061.8,335c-1,1.7-3.3,2.4-5,1.4s-2.4-3.3-1.4-5s3.3-2.4,5-1.4C1062.2,331,1062.8,333.2,1061.8,335z M1057.6,332.7
		c-0.3,0.5-0.1,1.3,0.5,1.6c0.5,0.3,1.3,0.1,1.6-0.5c0.3-0.5,0.1-1.3-0.5-1.6l0,0C1058.6,331.8,1057.8,332,1057.6,332.7z
		 M1029.2,325.5l-1.2,2.2l-2.2-1.2l0.9-1.6l-4.3-8.9l2.2-1l4.6,9.6C1029.4,324.6,1029.4,325.1,1029.2,325.5z"/>
	<path d="M1025.3,314.9c-1,1.7-3.3,2.4-5,1.4s-2.4-3.3-1.4-5s3.3-2.4,5-1.4C1025.6,310.8,1026.3,313,1025.3,314.9z M1021,312.5
		c-0.3,0.5-0.1,1.3,0.5,1.6c0.7,0.3,1.3,0.1,1.6-0.5c0.3-0.5,0.1-1.3-0.5-1.6l0,0C1022,311.6,1021.3,311.8,1021,312.5z
		 M1034.4,331.2l3-5.3l2.2,1.2l-3,5.3L1034.4,331.2z"/>
	<path d="M1043,326c-1,1.7-3.3,2.4-5,1.4s-2.4-3.3-1.4-5s3.3-2.4,5-1.4C1043.2,321.9,1043.9,324.2,1043,326z M1038.7,323.7
		c-0.3,0.5-0.1,1.3,0.5,1.6c0.5,0.3,1.3,0.1,1.6-0.5c0.3-0.5,0.1-1.3-0.5-1.6l0,0C1039.8,322.8,1038.9,323,1038.7,323.7z M993.6,352
		l3-5.3l2.2,1.2l-3,5.3L993.6,352z"/>
	<path d="M997.2,355.5c-1,1.7-3.3,2.4-5,1.4s-2.4-3.3-1.4-5s3.3-2.4,5-1.4l0,0C997.6,351.5,998.2,353.7,997.2,355.5z M993,353
		c-0.3,0.5-0.1,1.3,0.5,1.6c0.5,0.3,1.3,0.1,1.6-0.5c0.3-0.5,0.1-1.3-0.5-1.6C994,352.3,993.2,352.5,993,353z"/>
</g>
<g>
	<path class="st2" d="M1850.6,302.8l-5.7,14.9l-2.7-1.1l5.7-14.9L1850.6,302.8z M1846.7,318.3l-1.7-0.7l5.7-14.9l1.7,0.7
		c0.4,0.2,0.7,0.6,0.9,1l-0.2,0.1l-5.2,13.5l0.1,0.2C1847.6,318.4,1847.1,318.5,1846.7,318.3z"/>
	<path class="st2" d="M1848.2,317.9c-0.1,0.1-0.2,0.2-0.3,0.2l-0.1-0.2l5.2-13.5l0.2-0.1c0,0.2,0.1,0.2,0.1,0.4l-0.2,7.4
		L1848.2,317.9z M1853.7,321c-0.4-0.2-0.7-0.7-0.7-1.2l0.2-7.4l4.9-5.6c0.3-0.4,0.8-0.6,1.3-0.5L1853.7,321z M1856.4,322l-2.4-0.9
		c-0.1,0-0.2-0.1-0.2-0.2l5.7-14.9c0.1,0,0.2,0,0.2,0.1l2.4,0.9L1856.4,322z M1858.8,323l-2.4-0.9l5.7-14.9l2.4,0.9
		c0.1,0,0.2,0.1,0.2,0.2l-5.7,14.9C1859,323,1858.9,323,1858.8,323z M1859.1,323l5.7-14.9c0.4,0.2,0.7,0.7,0.7,1.2l-0.1,7.4
		l-4.9,5.6C1860.1,323,1859.6,323.1,1859.1,323z M1870.6,311.2l-5.2,13.5l-0.2,0.1c0-0.2-0.1-0.2-0.1-0.4l0.2-7.4l4.9-5.6
		C1870.3,311.3,1870.4,311.2,1870.6,311.2L1870.6,311.2z"/>
	<path class="st2" d="M1867.9,326.4l-1.7-0.7c-0.4-0.2-0.7-0.6-0.9-1l0.2-0.1l5.2-13.5l-0.1-0.2c0.4-0.2,0.9-0.3,1.3-0.2l1.7,0.7
		L1867.9,326.4z M1876.3,312.6l-5.7,14.9l-2.7-1.1l5.7-14.9L1876.3,312.6z"/>
	<path class="st4" d="M1851.9,325.8c-0.7-0.2-1.6,0.1-1.9,0.8c-0.3,0.7,0.1,1.6,0.8,1.9l0,0c0.7,0.2,1.6-0.1,1.9-0.8
		C1853,326.9,1852.6,326,1851.9,325.8L1851.9,325.8z"/>
	<path class="st4" d="M1876.2,304.8c-0.7-0.2-1.6,0.1-1.9,0.8c-0.2,0.7,0.1,1.6,0.8,1.9l0,0c0.7,0.2,1.6-0.1,1.9-0.8
		C1877.3,305.9,1876.9,305.1,1876.2,304.8L1876.2,304.8z"/>
	<path class="st3" d="M1856.4,295.7c-0.7-0.2-1.6,0.1-1.9,0.8c-0.2,0.7,0.1,1.6,0.8,1.9c0.7,0.2,1.6-0.1,1.9-0.8
		C1857.5,296.9,1857.1,295.9,1856.4,295.7L1856.4,295.7z"/>
	<path class="st5" d="M1846.2,301.9l0.5-1.3l5.8,2.2c0.7,0.2,1.2,0.8,1.3,1.5c0.1,0.2,0.1,0.4,0.1,0.6l-0.2,15
		c0,0.2,0.2,0.5,0.3,0.7c0,0,0.1,0.1,0.2,0.1l4.9,1.9h0.1c0.2,0.1,0.5-0.1,0.7-0.2l9.7-11.3c0.2-0.2,0.2-0.2,0.4-0.4
		c0.6-0.4,1.3-0.5,2-0.2l5.8,2.2l-0.5,1.3l-5.8-2.2c-0.2-0.1-0.5-0.1-0.7,0.1c-0.1,0-0.1,0.1-0.2,0.1l-9.7,11.3
		c-0.5,0.6-1.2,0.8-2,0.7c-0.2,0-0.2-0.1-0.4-0.1l-4.9-1.9c-0.2-0.1-0.2-0.1-0.4-0.2c-0.7-0.4-1-1.1-1-1.9l0.2-15c0-0.1,0-0.2,0-0.2
		c-0.1-0.2-0.2-0.4-0.4-0.5L1846.2,301.9z"/>
	<path class="st3" d="M1840.5,316.8l0.5-1.3l5.8,2.2c0.2,0.1,0.5,0.1,0.7-0.1c0.1,0,0.1-0.1,0.2-0.1l9.7-11.3c0.5-0.6,1.2-0.8,2-0.7
		c0.2,0,0.2,0.1,0.4,0.1l4.9,1.9c0.2,0.1,0.2,0.1,0.4,0.2c0.7,0.4,1,1.1,1,1.9l-0.2,15c0,0.1,0,0.2,0,0.2c0.1,0.2,0.2,0.4,0.4,0.5
		l5.8,2.2l-0.5,1.3l-5.8-2.2c-0.7-0.2-1.2-0.8-1.3-1.5c-0.1-0.2-0.1-0.4-0.1-0.6l0.2-15c0-0.2-0.2-0.5-0.3-0.7c0,0-0.1-0.1-0.2-0.1
		l-4.9-1.9h-0.1c-0.2-0.1-0.5,0.1-0.7,0.2l-9.7,11.3c-0.2,0.2-0.2,0.2-0.4,0.4c-0.6,0.4-1.3,0.5-2,0.2L1840.5,316.8z"/>
	<path class="st6" d="M1870.9,311.6c-0.1,0-0.1,0.1-0.2,0.1l-2.1,2.3l-2.7,7.2l-0.1,3.1c0,0.1,0,0.2,0,0.2c0,0.2,0.1,0.2,0.2,0.3
		l5.1-13.4C1871.1,311.6,1871,311.6,1870.9,311.6z"/>
	<path class="st7" d="M1874,312.5l-5.2,13.5l-1.3-0.5l5.2-13.5L1874,312.5z M1876.7,313.5l-5.2,13.5l-1.3-0.5l5.2-13.5L1876.7,313.5
		z M1848.3,302.6l-5.2,13.5l-1.3-0.5l5.2-13.5L1848.3,302.6z M1851,303.7l-5.2,13.5l-1.3-0.5l5.2-13.5L1851,303.7z"/>
	<path class="st6" d="M1847.6,317.6c0.1,0,0.1-0.1,0.2-0.1l2.1-2.3l2.7-7.2l0.1-3.1c0-0.1,0-0.2,0-0.2c0-0.2-0.1-0.2-0.2-0.3
		l-5.1,13.4C1847.3,317.7,1847.5,317.7,1847.6,317.6L1847.6,317.6z M1859.4,306.9L1859.4,306.9c-0.3-0.1-0.6,0.1-0.7,0.2l-0.7,0.7
		l-4.2,10.9v1c0,0.2,0.2,0.5,0.3,0.7c0,0,0.1,0.1,0.2,0.1l0.4,0.2l5.2-13.5L1859.4,306.9z"/>
	<path class="st7" d="M1862.5,308.1l-5.2,13.5l-1.3-0.5l5.2-13.5L1862.5,308.1z"/>
	<path class="st6" d="M1864.8,309.5c0-0.2-0.2-0.5-0.3-0.7c0,0-0.1-0.1-0.2-0.1l-0.4-0.2l-5.2,13.5l0.4,0.2h0.1
		c0.2,0.1,0.5-0.1,0.7-0.2l0.7-0.7l4.2-10.9L1864.8,309.5z"/>
	<path class="st8" d="M1861,303l-3.7-5.6c0,0.1,0,0.1-0.1,0.2c-0.2,0.4-0.6,0.7-1,0.9l3.4,5.1l-0.4,1l1.3,0.5l0.5-1.3
		C1861.2,303.5,1861.1,303.2,1861,303z"/>
	<path class="st8" d="M1875.2,307.5c-0.2-0.1-0.4-0.2-0.6-0.4l-1.1,2.9l1.3,0.5l1.1-2.9C1875.7,307.6,1875.4,307.6,1875.2,307.5z"/>
	<path class="st8" d="M1851.9,325.8c0.2,0.1,0.4,0.2,0.6,0.4l1.4-3.6l-1.3-0.5l-1.4,3.6C1851.4,325.7,1851.6,325.7,1851.9,325.8z"/>
	<path d="M1846.2,301.9l0.5-1.3l5.8,2.2c0.8,0.3,1.4,1.2,1.4,2.1l-0.2,15c0,0.3,0.2,0.6,0.5,0.7l4.9,1.9c0.2,0.1,0.6,0,0.8-0.2
		l9.7-11.3c0.6-0.7,1.6-0.9,2.4-0.6l5.8,2.2l-0.5,1.3l-5.8-2.2c-0.2-0.1-0.6,0-0.8,0.2l-9.7,11.3c-0.6,0.7-1.6,0.9-2.4,0.6l-4.9-1.9
		c-0.8-0.3-1.4-1.2-1.4-2.1l0.2-15c0-0.3-0.2-0.6-0.5-0.7L1846.2,301.9z"/>
	<rect x="1872.2" y="311.8" transform="matrix(0.3573 -0.934 0.934 0.3573 912.0175 1950.5024)" width="2.1" height="1.5"/>
	<rect x="1837.1" y="308.3" transform="matrix(0.3573 -0.934 0.934 0.3573 897.132 1921.8936)" width="15.9" height="1.5"/>
	<rect x="1841" y="311.1" transform="matrix(0.3573 -0.934 0.934 0.3573 895.9464 1925.6165)" width="12.3" height="1.5"/>
	<rect x="1849.2" y="302.9" transform="matrix(0.3573 -0.934 0.934 0.3573 905.5342 1923.2815)" width="2.1" height="1.5"/>
	<rect x="1843.3" y="310.4" transform="matrix(0.3573 -0.934 0.934 0.3573 898.7184 1928.3628)" width="14.5" height="1.5"/>
	<rect x="1855.7" y="320.3" transform="matrix(0.3573 -0.934 0.934 0.3573 893.4602 1940.5254)" width="2.1" height="1.5"/>
	<g>
		<path d="M1840.5,316.8l0.5-1.3l5.8,2.2c0.2,0.1,0.6,0,0.8-0.2l9.7-11.3c0.6-0.7,1.6-0.9,2.4-0.6l4.9,1.9c0.8,0.3,1.4,1.2,1.4,2.1
			l-0.2,15c0,0.3,0.2,0.6,0.5,0.7l5.8,2.2l-0.5,1.3l-5.8-2.2c-0.8-0.3-1.4-1.2-1.4-2.1l0.2-15c0-0.3-0.2-0.6-0.5-0.7l-4.9-1.9
			c-0.2-0.1-0.6,0-0.8,0.2l-9.7,11.3c-0.6,0.7-1.6,0.9-2.4,0.6L1840.5,316.8z"/>
		<rect x="1860.9" y="317.1" transform="matrix(0.3573 -0.934 0.934 0.3573 903.7488 1949.1183)" width="14.5" height="1.5"/>
		<rect x="1864" y="319.9" transform="matrix(0.3573 -0.934 0.934 0.3573 902.4519 1952.7986)" width="12.3" height="1.5"/>
		<rect x="1865.6" y="319.2" transform="matrix(0.3573 -0.934 0.934 0.3573 905.3214 1955.4745)" width="15.9" height="1.5"/>
		<rect x="1848.8" y="312.9" transform="matrix(0.3573 -0.934 0.934 0.3573 900.4131 1935.7042)" width="15.9" height="1.5"/>
		<rect x="1853.8" y="312.1" transform="matrix(0.3573 -0.934 0.934 0.3573 903.1865 1938.2407)" width="12.3" height="1.5"/>
		<rect x="1854.1" y="314.8" transform="matrix(0.3573 -0.934 0.934 0.3573 902.0261 1942.0046)" width="15.9" height="1.5"/>
	</g>
	<path d="M1856.4,298.7l1.2-0.8l3.5,5.2c0.2,0.2,0.2,0.4,0.1,0.7l-0.5,1.3l-1.3-0.5l0.4-1L1856.4,298.7z"/>
	<circle cx="1855.9" cy="297" r="2.1"/>
	<path class="st9" d="M1856.6,297.3c0.2-0.4-0.1-0.8-0.4-0.9c-0.4-0.2-0.8,0.1-0.9,0.4c-0.2,0.4,0.1,0.8,0.4,0.9l0,0
		C1856,297.8,1856.4,297.7,1856.6,297.3z"/>
	<rect x="1850.7" y="323.3" transform="matrix(0.3573 -0.934 0.934 0.3573 887.9615 1938.5183)" width="3.6" height="1.5"/>
	<path d="M1849.3,326.3c0.4-1.2,1.7-1.7,2.8-1.2c1.2,0.4,1.7,1.7,1.2,2.8c-0.4,1.2-1.7,1.7-2.8,1.2
		C1849.5,328.7,1848.9,327.5,1849.3,326.3z M1852,327.4c0.2-0.4-0.1-0.8-0.4-0.9s-0.8,0.1-0.9,0.4c-0.2,0.4,0.1,0.8,0.4,0.9l0,0
		C1851.4,327.9,1851.9,327.7,1852,327.4z M1876.1,307.1l-1.3,3.4l-1.3-0.5l1.3-3.4L1876.1,307.1z"/>
	<path d="M1873.7,305.4c0.4-1.2,1.7-1.7,2.8-1.2s1.7,1.7,1.2,2.8c-0.4,1.2-1.7,1.7-2.8,1.2l0,0
		C1873.8,307.8,1873.2,306.5,1873.7,305.4z M1876.3,306.4c0.2-0.4-0.1-0.8-0.4-0.9c-0.4-0.2-0.8,0.1-0.9,0.4s0.1,0.8,0.4,0.9
		S1876.2,306.8,1876.3,306.4z"/>
</g>
<g>
	<path class="st2" d="M110.3,316.2l3.4-20.2l3.6,0.6l-3.4,20.3L110.3,316.2z M111.3,295.7l2.4,0.4l-3.4,20.1l-2.4-0.4
		c-0.6-0.1-1.1-0.5-1.3-1.1l0.2-0.1l3-18.5l-0.2-0.2C110,295.8,110.7,295.6,111.3,295.7z"/>
	<path class="st2" d="M109.3,296.7c0.1-0.2,0.2-0.2,0.2-0.4l0.2,0.2l-3,18.5l-0.2,0.1c-0.1-0.2-0.1-0.2-0.2-0.5l-1.7-9.4
		L109.3,296.7z M101.7,294.1c0.6,0.2,1.1,0.7,1.1,1.5l1.7,9.4l-4.7,8.4c-0.2,0.6-1,1-1.5,1L101.7,294.1z M98,293.5l3.3,0.6
		c0.1,0,0.2,0.1,0.4,0.1l-3.4,20.2c-0.1,0-0.2,0-0.4,0l-3.3-0.6L98,293.5z M94.7,292.9l3.3,0.6l-3.4,20.2l-3.3-0.6
		c-0.1,0-0.2-0.1-0.4-0.1l3.4-20.2C94.4,292.9,94.6,292.9,94.7,292.9z M94.4,292.9l-3.5,20.2c-0.6-0.2-1.1-0.7-1.1-1.5l-1.7-9.4
		l4.7-8.4C93,293.3,93.7,292.9,94.4,292.9z M82.8,310.8l3-18.5l0.2-0.1c0.1,0.2,0.1,0.2,0.2,0.5l1.7,9.4l-4.7,8.4
		C83.1,310.7,83.1,310.8,82.8,310.8L82.8,310.8z"/>
	<path class="st2" d="M82.4,290.9l2.4,0.4c0.6,0.1,1.1,0.5,1.3,1.1l-0.2,0.1l-3,18.5l0.2,0.2c-0.4,0.5-1.1,0.6-1.6,0.6l-2.4-0.4
		L82.4,290.9z M75.3,310.5l3.4-20.2l3.6,0.6l-3.3,20L75.3,310.5z"/>
	<path class="st4" d="M102.8,287.7c1.1,0.2,1.9-0.5,2.2-1.5c0.2-1-0.5-1.9-1.5-2.2l0,0c-1.1-0.2-1.9,0.5-2.2,1.5
		C101.1,286.6,101.8,287.6,102.8,287.7L102.8,287.7z"/>
	<path class="st4" d="M77.5,320.3c1.1,0.2,1.9-0.5,2.2-1.5c0.2-1.1-0.5-1.9-1.5-2.2l0,0c-1.1-0.2-1.9,0.5-2.2,1.5
		C75.8,319.2,76.5,320.1,77.5,320.3L77.5,320.3z"/>
	<path class="st3" d="M104.7,326.7c1.1,0.2,1.9-0.5,2.2-1.5c0.2-1.1-0.5-1.9-1.5-2.2c-1.1-0.2-1.9,0.5-2.2,1.5
		C103,325.6,103.7,326.6,104.7,326.7L104.7,326.7z"/>
	<path class="st3" d="M87.3,284.1c1.1,0.2,1.9-0.5,2.2-1.5c0.2-1-0.5-1.9-1.5-2.2l0,0c-1.1-0.2-1.9,0.5-2.2,1.5
		C85.6,283,86.2,284.1,87.3,284.1L87.3,284.1z"/>
	<path class="st5" d="M115.9,316.2l-0.2,1.8l-7.9-1.3c-0.9-0.2-1.6-0.7-2.1-1.5c-0.1-0.2-0.2-0.5-0.2-0.7l-3.5-18.8
		c-0.1-0.2-0.2-0.6-0.6-0.6c-0.1,0-0.1,0-0.2-0.1l-6.7-1.1c-0.1,0-0.1,0-0.2,0c-0.4,0-0.6,0.2-0.7,0.5L84.2,311
		c-0.1,0.2-0.2,0.4-0.5,0.6c-0.6,0.6-1.5,1-2.4,0.7l-7.9-1.3l0.2-1.8l7.9,1.3c0.2,0,0.6-0.1,0.9-0.2c0.1-0.1,0.1-0.1,0.2-0.2
		l9.5-16.6c0.5-0.9,1.3-1.5,2.4-1.5c0.2,0,0.4,0,0.6,0l6.7,1.1c0.2,0,0.4,0.1,0.6,0.2c0.9,0.4,1.5,1.1,1.7,2.1l3.5,18.8
		c0,0.1,0,0.2,0.1,0.2c0.1,0.2,0.4,0.5,0.6,0.5L115.9,316.2z"/>
	<path class="st3" d="M119.3,296.1l-0.2,1.8l-7.9-1.3c-0.2,0-0.6,0.1-0.9,0.2c-0.1,0.1-0.1,0.1-0.2,0.2l-9.5,16.6
		c-0.5,0.9-1.3,1.5-2.4,1.5c-0.2,0-0.4,0-0.6,0l-6.7-1.1c-0.2,0-0.4-0.1-0.6-0.2c-0.9-0.4-1.5-1.1-1.7-2.1l-3.5-18.8
		c0-0.1,0-0.2-0.1-0.2c-0.1-0.2-0.4-0.5-0.6-0.5l-7.9-1.3l0.2-1.8l8.1,1.3c0.9,0.2,1.6,0.7,2.1,1.5c0.1,0.2,0.2,0.5,0.2,0.7
		l3.5,18.8c0.1,0.2,0.2,0.6,0.6,0.6c0.1,0,0.1,0,0.2,0.1l6.7,1.1c0.1,0,0.1,0,0.2,0c0.4,0,0.6-0.2,0.7-0.5l9.4-16.6
		c0.1-0.2,0.2-0.4,0.5-0.6c0.6-0.6,1.5-1,2.4-0.7L119.3,296.1z"/>
	<path class="st6" d="M82.4,310.3c0.1-0.1,0.1-0.1,0.2-0.2l1.9-3.5l1.6-9.7l-0.7-3.9c0-0.1,0-0.2-0.1-0.2c-0.1-0.2-0.2-0.2-0.2-0.4
		l-3,18.2C82.1,310.5,82.2,310.4,82.4,310.3z"/>
	<path class="st7" d="M78.4,310.1l3-18.5l1.8,0.2l-3,18.5L78.4,310.1z M74.6,309.3l3-18.5l1.8,0.2l-3,18.5L74.6,309.3z M113.1,315.8
		l3-18.5l1.8,0.2l-3,18.5L113.1,315.8z M109.6,315.3l3-18.5l1.8,0.2l-3,18.5L109.6,315.3z"/>
	<path class="st6" d="M110.3,296.9c-0.1,0.1-0.1,0.1-0.2,0.2l-1.9,3.5l-1.5,9.7l0.7,3.9c0,0.1,0,0.2,0.1,0.2
		c0.1,0.2,0.2,0.2,0.2,0.4l3-18.2C110.5,296.7,110.4,296.7,110.3,296.9L110.3,296.9z M98.1,313.3c0.1,0,0.1,0,0.2,0
		c0.4,0,0.6-0.2,0.7-0.5l0.6-1.1l2.4-14.8l-0.2-1.2c-0.1-0.2-0.2-0.6-0.6-0.6c-0.1,0-0.1,0-0.2-0.1l-0.6-0.1l-3,18.5L98.1,313.3z"/>
	<path class="st7" d="M93.9,312.6l3-18.5l1.8,0.2l-3,18.5L93.9,312.6z"/>
	<path class="st6" d="M90.7,311.4c0.1,0.2,0.2,0.6,0.6,0.6c0.1,0,0.1,0,0.2,0.1l0.5,0.1l3-18.5l-0.6-0.1c-0.1,0-0.1,0-0.2,0
		c-0.4,0-0.6,0.2-0.7,0.5l-0.6,1.1L90.5,310L90.7,311.4z"/>
	<path class="st8" d="M96.9,318.7l6.2,6.2c0-0.1,0-0.2,0-0.2c0.1-0.6,0.5-1.1,1.1-1.3l-5.5-5.5l0.2-1.3l-1.8-0.2l-0.2,1.8
		C96.7,318.1,96.8,318.4,96.9,318.7z"/>
	<path class="st8" d="M95.7,288.6l-6.2-6.3c0,0.1,0,0.2,0,0.2c-0.1,0.6-0.5,1.1-1,1.3l5.5,5.6l-0.2,1.3l1.8,0.2l0.2-1.8
		C96,289,95.8,288.8,95.7,288.6z"/>
	<path class="st8" d="M78.1,316.6c0.2,0.1,0.6,0.2,0.9,0.4l0.6-3.9l-1.8-0.2l-0.6,3.9C77.5,316.6,77.9,316.6,78.1,316.6z"/>
	<path class="st8" d="M102.8,287.7c-0.2-0.1-0.6-0.2-0.9-0.4l-0.9,4.9l1.8,0.2l0.9-4.9C103.5,287.7,103,287.7,102.8,287.7z"/>
	<path d="M115.9,316.2l-0.2,1.8l-7.9-1.3c-1.1-0.2-2.1-1.1-2.3-2.3l-3.5-18.8c-0.1-0.4-0.4-0.6-0.7-0.7l-6.7-1.1
		c-0.4-0.1-0.7,0.1-1,0.5l-9.5,16.6c-0.6,1.1-1.7,1.6-2.8,1.5l-7.9-1.3l0.2-1.8l7.9,1.3c0.4,0.1,0.7-0.1,1-0.5l9.5-16.6
		c0.6-1.1,1.7-1.6,2.8-1.5l6.7,1.1c1.1,0.2,2.1,1.1,2.3,2.3l3.5,18.8c0.1,0.4,0.4,0.6,0.7,0.7L115.9,316.2z"/>
	<path d="M119.3,296.1l-0.2,1.8l-7.9-1.3c-0.4-0.1-0.7,0.1-1,0.5l-9.5,16.6c-0.6,1.1-1.7,1.6-2.8,1.5l-6.7-1.1
		c-1.1-0.2-2.1-1.1-2.3-2.3L85.4,293c-0.1-0.4-0.4-0.6-0.7-0.7l-7.9-1.3l0.2-1.8l7.9,1.3c1.1,0.2,2.1,1.1,2.3,2.3l3.5,18.8
		c0.1,0.4,0.4,0.6,0.7,0.7l6.7,1.1c0.4,0.1,0.7-0.1,1-0.5l9.5-16.6c0.6-1.1,1.7-1.6,2.8-1.5L119.3,296.1z"/>
	<path d="M81.9,310.5l3-18.5l1.8,0.2l-2.9,18.7L81.9,310.5z M78.8,306.3l2.7-15.5l1.8,0.2l-2.7,15.5L78.8,306.3z M78.1,311l0.5-2.8
		l1.8,0.2l-0.5,2.8L78.1,311z M74.5,310.3l3.4-20.2l1.8,0.2l-3.4,20.2L74.5,310.3z M113,316.7l3.4-20.2l1.8,0.2l-3.4,20.3L113,316.7
		z M110,311.5l2.7-15.5l1.8,0.2l-2.7,15.5L110,311.5z M109.3,316.1l0.5-2.8l1.8,0.2l-0.5,2.8L109.3,316.1z M105.8,314.5l3-18.5
		l1.8,0.2l-3,18.5L105.8,314.5z M97.4,314.2l3.4-20.2l1.8,0.2l-3.4,20.2L97.4,314.2z M96.6,296.1l0.5-2.8l1.8,0.2l-0.5,2.8
		L96.6,296.1z M93.8,313.6l2.7-15.5l1.8,0.2l-2.7,15.5L93.8,313.6z M90,313l3.4-20.2l1.8,0.2l-3.4,20.2L90,313z M104,323l-1.3,1.3
		l-5.7-5.7c-0.2-0.2-0.2-0.5-0.2-0.9l0.2-1.8l1.8,0.2l-0.2,1.3L104,323z"/>
	<circle cx="105.1" cy="324.9" r="2.8"/>
	<path class="st10" d="M104.1,324.7c-0.1,0.5,0.2,1,0.7,1.1c0.5,0.1,1-0.2,1.1-0.7s-0.2-1-0.7-1.1l0,0
		C104.7,323.9,104.2,324.3,104.1,324.7z"/>
	<path d="M95.8,289.3l-0.2,1.8l-1.8-0.2l0.2-1.3l-5.3-5.3L90,283l5.7,5.7C95.8,288.8,96,289,95.8,289.3z"/>
	<circle cx="87.6" cy="282.4" r="2.8"/>
	<path class="st10" d="M86.7,282.1c-0.1,0.5,0.2,1,0.7,1.1c0.5,0.1,1-0.2,1.1-0.7s-0.2-1-0.7-1.1l0,0
		C87.3,281.3,86.9,281.6,86.7,282.1z"/>
	<rect x="100" y="289" transform="matrix(0.1652 -0.9863 0.9863 0.1652 -200.5082 342.9664)" width="4.6" height="1.9"/>
	<path d="M105.8,286.2c-0.2,1.5-1.7,2.6-3.3,2.3c-1.5-0.2-2.6-1.7-2.3-3.3c0.2-1.6,1.7-2.6,3.3-2.3
		C105.1,283.3,106,284.8,105.8,286.2z M102.2,285.8c-0.1,0.5,0.2,1,0.7,1.1s1-0.2,1.1-0.7s-0.2-1-0.7-1.1l0,0
		C102.6,284.9,102.2,285.2,102.2,285.8z M77,317.3l0.7-4.5l1.8,0.2l-0.7,4.5L77,317.3z"/>
	<path d="M80.5,318.8c-0.2,1.5-1.7,2.6-3.3,2.3c-1.5-0.2-2.6-1.7-2.3-3.3c0.2-1.5,1.7-2.6,3.3-2.3l0,0
		C79.8,315.9,80.8,317.3,80.5,318.8z"/>
	<circle class="st11" cx="77.9" cy="318.4" r="1"/>
</g>
<g>
	<path class="st2" d="M626.7,279.5l15.7,2.6L642,285l-15.7-2.6L626.7,279.5z M642.8,280.2l-0.3,1.9l-15.7-2.6l0.3-1.9
		c0.1-0.5,0.4-0.9,0.8-1.1l0.1,0.2l14.3,2.4l0.1-0.1C642.7,279.3,642.9,279.8,642.8,280.2z"/>
	<path class="st2" d="M642.1,278.7c0.1,0.1,0.2,0.1,0.3,0.2l-0.1,0.1l-14.3-2.4l-0.1-0.2c0.1-0.1,0.2-0.1,0.4-0.1l7.3-1.4
		L642.1,278.7z M644,272.8c-0.2,0.5-0.6,0.8-1.1,0.9l-7.3,1.4l-6.5-3.7c-0.4-0.2-0.7-0.7-0.7-1.2L644,272.8z M644.5,269.9l-0.4,2.6
		c0,0.1,0,0.2-0.1,0.3l-15.7-2.6c0-0.1,0-0.2,0-0.3l0.4-2.6L644.5,269.9z M644.9,267.4l-0.4,2.6l-15.7-2.6l0.4-2.6
		c0-0.1,0-0.2,0.1-0.3l15.7,2.6C645,267.2,645,267.3,644.9,267.4z M645,267.1l-15.7-2.6c0.2-0.5,0.6-0.8,1.1-0.9l7.3-1.4l6.5,3.7
		C644.7,266.1,644.9,266.6,645,267.1z M631.1,258.1l14.3,2.4l0.1,0.2c-0.1,0.1-0.2,0.1-0.4,0.1l-7.3,1.4l-6.5-3.7
		c-0.1-0.1-0.2-0.1-0.3-0.2L631.1,258.1z"/>
	<path class="st2" d="M646.5,257.8l-0.3,1.9c-0.1,0.5-0.4,0.9-0.8,1.1l-0.1-0.2l-14.3-2.4l-0.1,0.1c-0.3-0.3-0.5-0.8-0.4-1.3
		l0.3-1.9L646.5,257.8z M631.3,252.3l15.7,2.6l-0.5,2.9l-15.7-2.6L631.3,252.3z"/>
	<path class="st4" d="M649,273.6c-0.1,0.8,0.4,1.5,1.2,1.7c0.8,0.1,1.5-0.4,1.7-1.2l0,0c0.1-0.8-0.4-1.5-1.2-1.7
		C649.9,272.3,649.2,272.8,649,273.6L649,273.6z"/>
	<path class="st4" d="M623.7,254c-0.1,0.8,0.4,1.5,1.2,1.7c0.8,0.1,1.5-0.4,1.7-1.2l0,0c0.1-0.8-0.4-1.5-1.2-1.7
		C624.6,252.6,623.8,253.2,623.7,254L623.7,254z"/>
	<path class="st3" d="M618.6,275.2c-0.1,0.8,0.4,1.5,1.2,1.7c0.8,0.1,1.5-0.4,1.7-1.2c0.1-0.8-0.4-1.5-1.2-1.7
		S618.8,274.4,618.6,275.2L618.6,275.2z"/>
	<path class="st3" d="M651.8,261.6c-0.1,0.8,0.4,1.5,1.2,1.7c0.8,0.1,1.5-0.4,1.7-1.2l0,0c0.1-0.8-0.4-1.5-1.2-1.7
		C652.7,260.3,651.9,260.8,651.8,261.6L651.8,261.6z"/>
	<path class="st5" d="M626.7,283.9l-1.4-0.2l1-6.1c0.1-0.7,0.6-1.3,1.2-1.6c0.2-0.1,0.4-0.1,0.6-0.2l14.7-2.7c0.2,0,0.5-0.2,0.5-0.5
		v-0.1l0.9-5.1v-0.1c0-0.3-0.1-0.5-0.4-0.6l-13-7.4c-0.2-0.1-0.3-0.2-0.5-0.4c-0.5-0.5-0.7-1.2-0.6-1.9l1-6.1l1.4,0.2l-1,6.1
		c0,0.2,0,0.5,0.2,0.6l0.1,0.1l13,7.4c0.7,0.4,1.1,1.1,1.1,1.8c0,0.1,0,0.3,0,0.4l-0.9,5.1c0,0.2-0.1,0.3-0.1,0.4
		c-0.3,0.7-0.9,1.2-1.6,1.3l-14.7,2.7c-0.1,0-0.1,0-0.2,0.1c-0.2,0.1-0.4,0.3-0.4,0.5L626.7,283.9z"/>
	<path class="st3" d="M642.5,286.5l-1.4-0.2l1-6.1c0-0.2,0-0.5-0.2-0.6l-0.1-0.1l-13-7.4c-0.7-0.4-1.1-1.1-1.1-1.8
		c0-0.1,0-0.3,0-0.4l0.9-5.1c0-0.2,0.1-0.3,0.1-0.4c0.3-0.7,0.9-1.2,1.6-1.3l14.7-2.7c0.1,0,0.1,0,0.2-0.1c0.2-0.1,0.4-0.3,0.4-0.5
		l1-6.1l1.4,0.2l-1,6.1c-0.1,0.7-0.6,1.3-1.2,1.6c-0.2,0.1-0.4,0.1-0.6,0.2l-14.7,2.7c-0.2,0-0.5,0.2-0.5,0.5v0.1l-0.9,5.1v0.1
		c0,0.3,0.1,0.5,0.4,0.6l13,7.3c0.2,0.1,0.3,0.2,0.5,0.4c0.5,0.5,0.7,1.2,0.6,1.9L642.5,286.5z"/>
	<path class="st6" d="M631.4,257.8l0.1,0.1l2.7,1.5l7.6,1.3l3-0.6c0.1,0,0.1,0,0.2-0.1c0.1-0.1,0.2-0.1,0.3-0.3l-14.2-2.4
		C631.3,257.6,631.3,257.7,631.4,257.8z"/>
	<path class="st7" d="M631.7,254.6L646,257l-0.2,1.4l-14.3-2.4L631.7,254.6z M632.1,251.7l14.3,2.4l-0.2,1.4l-14.3-2.4L632.1,251.7z
		 M627.1,281.7l14.3,2.4l-0.2,1.4l-14.3-2.4L627.1,281.7z M627.6,278.9l14.3,2.4l-0.2,1.4l-14.3-2.4L627.6,278.9z"/>
	<path class="st6" d="M641.9,279.5l-0.1-0.1l-2.7-1.5l-7.6-1.3l-3,0.6c-0.1,0-0.1,0-0.2,0.1c-0.1,0.1-0.2,0.1-0.3,0.3l14.2,2.4
		C642,279.7,642,279.6,641.9,279.5L641.9,279.5z M629.1,270v0.1c0,0.3,0.1,0.5,0.4,0.6l0.8,0.5l11.5,1.9l1-0.2
		c0.2,0,0.5-0.2,0.5-0.5v-0.1l0.1-0.4l-14.3-2.4V270z"/>
	<path class="st7" d="M629.6,266.7l14.3,2.4l-0.2,1.4l-14.3-2.4L629.6,266.7z"/>
	<path class="st6" d="M630.5,264.3c-0.2,0-0.5,0.2-0.5,0.5v0.1l-0.1,0.4l14.3,2.4l0.1-0.4v-0.1c0-0.3-0.1-0.5-0.4-0.6L643,266
		l-11.5-1.9L630.5,264.3z"/>
	<path class="st8" d="M624.9,269.2l-4.8,4.8c0.1,0,0.1,0,0.2,0c0.5,0.1,0.9,0.4,1.1,0.8l4.3-4.3l1.1,0.2l0.2-1.4l-1.4-0.2
		C625.3,268.9,625.1,269,624.9,269.2z"/>
	<path class="st8" d="M648.4,268.1l4.8-4.8c-0.1,0-0.2,0-0.2,0c-0.4-0.1-0.8-0.4-1-0.8l-4.3,4.3l-1.1-0.2l-0.2,1.4l1.4,0.2
		C648,268.3,648.2,268.2,648.4,268.1z"/>
	<path class="st8" d="M626.5,254.4c0,0.3-0.2,0.5-0.3,0.7l3.1,0.5l0.2-1.4l-3.1-0.5C626.5,253.9,626.6,254.2,626.5,254.4z"/>
	<path class="st8" d="M649,273.6c0-0.3,0.2-0.5,0.3-0.7l-3.8-0.6l-0.2,1.4l3.8,0.6C649,274.1,649,273.9,649,273.6z"/>
	<path d="M626.7,283.9l-1.4-0.2l1-6.1c0.2-0.9,0.9-1.6,1.7-1.8l14.7-2.7c0.3-0.1,0.5-0.3,0.6-0.6l0.9-5.1c0.1-0.3-0.1-0.6-0.4-0.8
		l-13-7.4c-0.8-0.5-1.2-1.3-1.1-2.3l1-6.1l1.4,0.2l-1,6.1c-0.1,0.3,0.1,0.6,0.4,0.8l13,7.4c0.8,0.5,1.2,1.3,1.1,2.3l-0.9,5.1
		c-0.2,0.9-0.9,1.6-1.7,1.8l-14.7,2.7c-0.3,0.1-0.5,0.3-0.6,0.6L626.7,283.9z"/>
	<path d="M642.5,286.5l-1.4-0.2l1-6.1c0.1-0.3-0.1-0.6-0.4-0.8l-13-7.4c-0.8-0.5-1.2-1.3-1.1-2.3l0.9-5.1c0.2-0.9,0.9-1.6,1.7-1.8
		l14.7-2.7c0.3-0.1,0.5-0.3,0.6-0.6l1-6.1l1.4,0.2l-1,6.1c-0.2,0.9-0.9,1.6-1.7,1.8l-14.7,2.7c-0.3,0.1-0.5,0.3-0.6,0.6l-0.9,5.1
		c-0.1,0.3,0.1,0.6,0.4,0.8l13,7.4c0.8,0.5,1.2,1.3,1.1,2.3L642.5,286.5z"/>
	<path d="M631.2,257.4l14.3,2.4l-0.2,1.4l-14.3-2.4L631.2,257.4z M634.5,255l12.2,2l-0.2,1.4l-12.2-2L634.5,255z M630.9,254.4
		l2.1,0.4l-0.2,1.4l-2.1-0.4L630.9,254.4z M631.4,251.6l15.7,2.6l-0.2,1.4l-15.7-2.6L631.4,251.6z M626.4,281.6l15.7,2.6l-0.2,1.4
		l-15.7-2.6L626.4,281.6z M630.4,279.3l12.2,2l-0.2,1.4l-12.2-2L630.4,279.3z M626.9,278.7l2.1,0.4l-0.2,1.4l-2.1-0.4L626.9,278.7z
		 M628.1,276l14.3,2.4l-0.2,1.4l-14.3-2.4L628.1,276z M628.4,269.4l15.7,2.6l-0.2,1.4l-15.7-2.6L628.4,269.4z M642.5,268.9l2.1,0.4
		l-0.2,1.4l-2.1-0.4L642.5,268.9z M628.9,266.6l12.2,2l-0.2,1.4l-12.2-2L628.9,266.6z M629.4,263.7l15.7,2.6l-0.2,1.4l-15.7-2.6
		L629.4,263.7z M621.5,274.6l-1-1l4.4-4.4c0.2-0.2,0.4-0.2,0.6-0.2l1.4,0.2l-0.2,1.4l-1.1-0.2L621.5,274.6z"/>
	<circle cx="620.1" cy="275.4" r="2.2"/>
	<path class="st10" d="M620.2,274.7c-0.4-0.1-0.8,0.2-0.8,0.6c-0.1,0.4,0.2,0.8,0.6,0.8s0.8-0.2,0.8-0.6l0,0
		C620.9,275.1,620.6,274.8,620.2,274.7z"/>
	<path d="M647.7,268.3l-1.4-0.2l0.2-1.4l1.1,0.2l4.1-4.1l1,1l-4.4,4.4C648.2,268.2,648,268.3,647.7,268.3z"/>
	<circle cx="653.2" cy="261.8" r="2.2"/>
	<path class="st10" d="M653.3,261.1c-0.4-0.1-0.8,0.2-0.8,0.6c-0.1,0.4,0.2,0.8,0.6,0.8c0.4,0.1,0.8-0.2,0.8-0.6l0,0
		C654,261.6,653.7,261.2,653.3,261.1z"/>
	<rect x="646.6" y="271.5" transform="matrix(0.1652 -0.9863 0.9863 0.1652 270.787 866.5659)" width="1.4" height="3.6"/>
	<path d="M650.1,276c-1.2-0.2-2-1.3-1.8-2.5s1.3-2,2.5-1.8s2,1.3,1.8,2.5C652.4,275.4,651.3,276.2,650.1,276z M650.6,273.2
		c-0.4-0.1-0.8,0.2-0.8,0.6c-0.1,0.4,0.2,0.8,0.6,0.8c0.4,0.1,0.8-0.2,0.8-0.6l0,0C651.2,273.6,651,273.2,650.6,273.2z M625.9,253.6
		l3.6,0.6l-0.2,1.4l-3.6-0.6L625.9,253.6z"/>
	<path d="M624.7,256.3c-1.2-0.2-2-1.3-1.8-2.5s1.3-2,2.5-1.8s2,1.3,1.8,2.5l0,0C627,255.7,625.9,256.5,624.7,256.3z"/>
	<circle class="st11" cx="625.1" cy="254.2" r="0.7"/>
</g>
<g>
	<path class="st2" d="M34.2,150.6l23.8,3.9l-0.6,4.4L33.6,155L34.2,150.6z M58.7,151.6l-0.5,2.9l-23.8-3.9l0.5-2.9
		c0.2-0.8,0.6-1.4,1.2-1.7l0.2,0.3l21.7,3.6l0.2-0.2C58.5,150.3,58.8,151,58.7,151.6z"/>
	<path class="st2" d="M57.6,149.3c0.2,0.2,0.3,0.2,0.5,0.3l-0.2,0.2l-21.7-3.6l-0.2-0.3c0.2-0.2,0.3-0.2,0.6-0.2l11.1-2.1
		L57.6,149.3z M60.5,140.4c-0.3,0.8-0.9,1.2-1.7,1.4l-11.1,2.1l-9.9-5.6c-0.6-0.3-1.1-1.1-1.1-1.8L60.5,140.4z M61.2,136l-0.6,3.9
		c0,0.2,0,0.3-0.2,0.5l-23.8-3.9c0-0.2,0-0.3,0-0.5l0.6-3.9L61.2,136z M61.8,132.2l-0.6,3.9l-23.8-3.9l0.6-3.9c0-0.2,0-0.3,0.2-0.5
		l23.8,3.9C62,131.9,62,132,61.8,132.2z M62,131.7l-23.8-3.9c0.3-0.8,0.9-1.2,1.7-1.4l11.1-2.1l9.9,5.6
		C61.5,130.2,61.8,131,62,131.7z M40.9,118.1l21.7,3.6l0.2,0.3c-0.2,0.2-0.3,0.2-0.6,0.2l-11.1,2.1l-9.9-5.6
		c-0.2-0.2-0.3-0.2-0.5-0.3L40.9,118.1z"/>
	<path class="st2" d="M64.3,117.6l-0.5,2.9c-0.2,0.8-0.6,1.4-1.2,1.7l-0.2-0.3l-21.7-3.6l-0.2,0.2c-0.5-0.5-0.8-1.2-0.6-2l0.5-2.9
		L64.3,117.6z M41.2,109.3l23.8,3.9l-0.8,4.4l-23.8-3.9L41.2,109.3z"/>
	<path class="st4" d="M68.1,141.6c-0.2,1.2,0.6,2.3,1.8,2.6c1.2,0.2,2.3-0.6,2.6-1.8l0,0c0.2-1.2-0.6-2.3-1.8-2.6
		C69.4,139.6,68.4,140.4,68.1,141.6L68.1,141.6z"/>
	<path class="st4" d="M29.7,111.9c-0.2,1.2,0.6,2.3,1.8,2.6c1.2,0.2,2.3-0.6,2.6-1.8l0,0c0.2-1.2-0.6-2.3-1.8-2.6
		C31,109.7,29.8,110.6,29.7,111.9L29.7,111.9z"/>
	<path class="st3" d="M21.9,144c-0.2,1.2,0.6,2.3,1.8,2.6c1.2,0.2,2.3-0.6,2.6-1.8c0.2-1.2-0.6-2.3-1.8-2.6
		C23.3,141.9,22.2,142.8,21.9,144L21.9,144z"/>
	<path class="st3" d="M72.3,123.4c-0.2,1.2,0.6,2.3,1.8,2.6c1.2,0.2,2.3-0.6,2.6-1.8l0,0c0.2-1.2-0.6-2.3-1.8-2.6
		C73.7,121.4,72.5,122.2,72.3,123.4L72.3,123.4z"/>
	<path class="st5" d="M34.2,157.2l-2.1-0.3l1.5-9.3c0.2-1.1,0.9-2,1.8-2.4c0.3-0.2,0.6-0.2,0.9-0.3l22.3-4.1c0.3,0,0.8-0.3,0.8-0.8
		v-0.2l1.4-7.7V132c0-0.5-0.2-0.8-0.6-0.9l-19.7-11.2c-0.3-0.2-0.5-0.3-0.8-0.6c-0.8-0.8-1.1-1.8-0.9-2.9l1.5-9.3l2.1,0.3l-1.5,9.3
		c0,0.3,0,0.8,0.3,0.9l0.2,0.2L61.1,129c1.1,0.6,1.7,1.7,1.7,2.7c0,0.2,0,0.5,0,0.6l-1.4,7.7c0,0.3-0.2,0.5-0.2,0.6
		c-0.5,1.1-1.4,1.8-2.4,2l-22.3,4.1c-0.2,0-0.2,0-0.3,0.2c-0.3,0.2-0.6,0.5-0.6,0.8L34.2,157.2z"/>
	<path class="st3" d="M58.2,161.2l-2.1-0.3l1.5-9.3c0-0.3,0-0.8-0.3-0.9l-0.2-0.2l-19.7-11.2c-1.1-0.6-1.7-1.7-1.7-2.7
		c0-0.2,0-0.5,0-0.6l1.4-7.7c0-0.3,0.2-0.5,0.2-0.6c0.5-1.1,1.4-1.8,2.4-2l22.3-4.1c0.2,0,0.2,0,0.3-0.2c0.3-0.2,0.6-0.5,0.6-0.8
		l1.5-9.3l2.1,0.3L65,121c-0.2,1.1-0.9,2-1.8,2.4c-0.3,0.2-0.6,0.2-0.9,0.3L40,127.8c-0.3,0-0.8,0.3-0.8,0.8v0.2l-1.4,7.7v0.2
		c0,0.5,0.2,0.8,0.6,0.9l19.7,11.1c0.3,0.2,0.5,0.3,0.8,0.6c0.8,0.8,1.1,1.8,0.9,2.9L58.2,161.2z"/>
	<path class="st6" d="M41.3,117.6l0.2,0.2l4.1,2.3l11.5,2l4.6-0.9c0.2,0,0.2,0,0.3-0.2c0.2-0.2,0.3-0.2,0.5-0.5l-21.6-3.6
		C41.2,117.3,41.2,117.5,41.3,117.6z"/>
	<path class="st7" d="M41.8,112.8l21.7,3.6l-0.3,2.1l-21.7-3.6L41.8,112.8z M42.4,108.4l21.7,3.6l-0.3,2.1l-21.7-3.6L42.4,108.4z
		 M34.8,153.9l21.7,3.6l-0.3,2.1L34.5,156L34.8,153.9z M35.6,149.7l21.7,3.6l-0.3,2.1l-21.7-3.6L35.6,149.7z"/>
	<path class="st6" d="M57.3,150.6l-0.2-0.2l-4.1-2.3l-11.5-2l-4.6,0.9c-0.2,0-0.2,0-0.3,0.2c-0.2,0.2-0.3,0.2-0.5,0.5l21.6,3.6
		C57.4,150.9,57.4,150.7,57.3,150.6L57.3,150.6z M37.9,136.1v0.2c0,0.5,0.2,0.8,0.6,0.9l1.2,0.8l17.5,2.9l1.5-0.3
		c0.3,0,0.8-0.3,0.8-0.8v-0.2l0.2-0.6l-21.7-3.6V136.1z"/>
	<path class="st7" d="M38.6,131.1l21.7,3.6l-0.3,2.1l-21.7-3.6L38.6,131.1z"/>
	<path class="st6" d="M40,127.5c-0.3,0-0.8,0.3-0.8,0.8v0.2l-0.2,0.6l21.7,3.6l0.2-0.6v-0.2c0-0.5-0.2-0.8-0.6-0.9l-1.4-0.9
		l-17.5-2.9L40,127.5z"/>
	<path class="st8" d="M31.5,134.9l-7.3,7.3c0.2,0,0.2,0,0.3,0c0.8,0.2,1.4,0.6,1.7,1.2l6.5-6.5l1.7,0.3l0.3-2.1l-2.1-0.3
		C32.1,134.5,31.8,134.6,31.5,134.9z"/>
	<path class="st8" d="M67.2,133.3l7.3-7.3c-0.2,0-0.3,0-0.3,0c-0.6-0.2-1.2-0.6-1.5-1.2l-6.5,6.5l-1.7-0.3l-0.3,2.1l2.1,0.3
		C66.5,133.6,66.8,133.4,67.2,133.3z"/>
	<path class="st8" d="M33.9,112.5c0,0.5-0.3,0.8-0.5,1.1l4.7,0.8l0.3-2.1l-4.7-0.8C33.9,111.7,34.1,112.2,33.9,112.5z"/>
	<path class="st8" d="M68.1,141.6c0-0.5,0.3-0.8,0.5-1.1l-5.8-0.9l-0.3,2.1l5.8,0.9C68.1,142.4,68.1,142.1,68.1,141.6z"/>
	<path d="M34.2,157.2l-2.1-0.3l1.5-9.3c0.3-1.4,1.4-2.4,2.6-2.7l22.3-4.1c0.5-0.2,0.8-0.5,0.9-0.9l1.4-7.7c0.2-0.5-0.2-0.9-0.6-1.2
		l-19.7-11.2c-1.2-0.8-1.8-2-1.7-3.5l1.5-9.3l2.1,0.3l-1.5,9.3c-0.2,0.5,0.2,0.9,0.6,1.2L61.2,129c1.2,0.8,1.8,2,1.7,3.5l-1.4,7.7
		c-0.3,1.4-1.4,2.4-2.6,2.7l-22.3,4.1c-0.5,0.2-0.8,0.5-0.9,0.9L34.2,157.2z"/>
	<path d="M58.2,161.2l-2.1-0.3l1.5-9.3c0.2-0.5-0.2-0.9-0.6-1.2l-19.7-11.2c-1.2-0.8-1.8-2-1.7-3.5l1.4-7.7c0.3-1.4,1.4-2.4,2.6-2.7
		l22.3-4.1c0.5-0.2,0.8-0.5,0.9-0.9l1.5-9.3l2.1,0.3l-1.5,9.3c-0.3,1.4-1.4,2.4-2.6,2.7L40,127.3c-0.5,0.2-0.8,0.5-0.9,0.9l-1.4,7.7
		c-0.2,0.5,0.2,0.9,0.6,1.2L58,148.4c1.2,0.8,1.8,2,1.7,3.5L58.2,161.2z"/>
	<path d="M41,117l21.7,3.6l-0.3,2.1l-21.7-3.6L41,117z M46.1,113.4l18.5,3l-0.3,2.1l-18.5-3L46.1,113.4z M40.6,112.5l3.2,0.6
		l-0.3,2.1l-3.2-0.6L40.6,112.5z M41.3,108.2l23.8,3.9l-0.3,2.1L41,110.3L41.3,108.2z M33.8,153.7l23.8,3.9l-0.3,2.1l-23.8-3.9
		L33.8,153.7z M39.8,150.3l18.5,3l-0.3,2.1l-18.5-3L39.8,150.3z M34.5,149.3l3.2,0.6l-0.3,2.1l-3.2-0.6L34.5,149.3z M36.3,145.2
		l21.7,3.6l-0.3,2.1L36,147.4L36.3,145.2z M36.8,135.2l23.8,3.9l-0.3,2.1l-23.8-3.9L36.8,135.2z M58.2,134.5l3.2,0.6l-0.3,2.1
		l-3.2-0.6L58.2,134.5z M37.6,131l18.5,3l-0.3,2.1l-18.5-3L37.6,131z M38.3,126.6l23.8,3.9l-0.3,2.1L38,128.7L38.3,126.6z
		 M26.3,143.1l-1.5-1.5l6.7-6.7c0.3-0.3,0.6-0.3,0.9-0.3l2.1,0.3l-0.3,2.1l-1.7-0.3L26.3,143.1z"/>
	<circle cx="24.2" cy="144.3" r="3.3"/>
	<path class="st10" d="M24.3,143.3c-0.6-0.2-1.2,0.3-1.2,0.9c-0.2,0.6,0.3,1.2,0.9,1.2c0.6,0,1.2-0.3,1.2-0.9l0,0
		C25.4,143.9,25,143.4,24.3,143.3z"/>
	<path d="M66.1,133.6l-2.1-0.3l0.3-2.1l1.7,0.3l6.2-6.2l1.5,1.5l-6.7,6.7C66.8,133.4,66.5,133.6,66.1,133.6z"/>
	<circle cx="74.4" cy="123.7" r="3.3"/>
	<path class="st10" d="M74.6,122.6c-0.6-0.2-1.2,0.3-1.2,0.9c-0.2,0.6,0.3,1.2,0.9,1.2c0.6,0.2,1.2-0.3,1.2-0.9l0,0
		C75.7,123.4,75.2,122.8,74.6,122.6z"/>
	<rect x="64.4" y="138.5" transform="matrix(0.1652 -0.9863 0.9863 0.1652 -84.6037 182.4271)" width="2.1" height="5.5"/>
	<path d="M69.7,145.2c-1.8-0.3-3-2-2.7-3.8c0.3-1.8,2-3,3.8-2.7c1.8,0.3,3,2,2.7,3.8C73.2,144.3,71.6,145.6,69.7,145.2z M70.5,141
		c-0.6-0.2-1.2,0.3-1.2,0.9c-0.2,0.6,0.3,1.2,0.9,1.2c0.6,0.2,1.2-0.3,1.2-0.9l0,0C71.4,141.6,71.1,141,70.5,141z M33,111.2l5.5,0.9
		l-0.3,2.1l-5.5-0.9L33,111.2z"/>
	<path d="M31.2,115.3c-1.8-0.3-3-2-2.7-3.8c0.3-1.8,2-3,3.8-2.7c1.8,0.3,3,2,2.7,3.8l0,0C34.7,114.4,33,115.6,31.2,115.3z"/>
	<circle class="st11" cx="31.8" cy="112.2" r="1.1"/>
</g>
<path d="M1358.8,846.5L1358.8,846.5C1358.9,847.1,1358.8,846.5,1358.8,846.5z"/>
<ellipse class="st12" cx="818.7" cy="244.5" rx="5.4" ry="5.3"/>
<ellipse class="st12" cx="717.3" cy="182.7" rx="25.4" ry="24.9"/>
<ellipse class="st12" cx="1592" cy="193.8" rx="11.2" ry="11"/>
<ellipse class="st12" cx="1702.8" cy="232.5" rx="8.1" ry="7.9"/>
<g>
	<g>
		<path class="st13" d="M718.7,182.4c-0.9,4.6-0.5,11.3,2.6,14.4c3.9,3.8,4.8,4.8,5,5l-2,2c0,0-1.1-1.1-5-5
			c-5.1-5-4.3-12.1-3.6-17.3c0.9-6.4,0.8-13-2.4-16.2c-5-4.9-5-4.9-5-4.9l2-2c0.3,0.3,1.5,1.4,5,4.9
			C720.2,168.2,719.6,177.3,718.7,182.4z"/>
		<polygon class="st13" points="700.2,172.2 708.3,164.3 710.3,166.3 702.2,174.2 		"/>
		<path class="st13" d="M704.4,176l7.7-7.6c0,0,0.3,0.6,0.6,1.4c0.2,0.7,0.3,1.7,0.3,1.7l-5.5,5.4c0,0-0.9-0.1-1.7-0.3
			C705,176.4,704.4,176,704.4,176z"/>
	</g>
	<g>
		<g>
			<path class="st14" d="M711.6,182.7c0,0-3.9,0.2-7.8-0.9c-1.2-0.3-2.9-1-4.6-2.8c-3.1-3-2.8-2.7-5-4.9l2-2c1.5,1.5,2.9,2.9,5,4.9
				c1.4,1.4,2.5,1.6,3.7,2c3.3,1,7,0.7,7,0.7L711.6,182.7z"/>
			<polygon class="st14" points="734.3,189.9 726.3,197.8 724.3,195.8 732.3,188 			"/>
			<path class="st14" d="M730.1,186.1l-7.7,7.6c0,0-0.4-0.6-0.6-1.4c-0.2-0.8-0.3-1.7-0.3-1.7l5.5-5.4c0,0,1,0.1,1.7,0.3
				C729.5,185.8,730.1,186.1,730.1,186.1z"/>
			<path class="st14" d="M722.3,182l0.3-3c0,0,4-0.2,7.9,1c3,0.9,5.8,4,9.8,7.9l-2,2l0,0c-3.2-3.1-6.4-6.4-8.9-7.1
				C725.8,181.8,722.3,182,722.3,182z"/>
		</g>
	</g>
</g>
<g>
	<ellipse class="st12" cx="797.6" cy="203.6" rx="10" ry="9.9"/>
	<g>
		<g>
			<path class="st15" d="M797.4,203.6c-1.4,1-3.1,2.7-3.1,4.3c0,1.9,0,2.4,0,2.5h-1c0,0,0-0.6,0-2.5c0-2.6,2-4.2,3.6-5.3
				c1.9-1.4,3.6-3.1,3.6-4.7c0-2.5,0-2.5,0-2.5h1c0,0.2,0,0.7,0,2.5C801.5,200.3,799,202.5,797.4,203.6z"/>
			<rect x="795.4" y="196.3" class="st15" width="4.1" height="1"/>
			<path class="st15" d="M795.4,198.3h3.9c0,0-0.1,0.2-0.2,0.5c-0.1,0.2-0.4,0.5-0.4,0.5H796c0,0-0.2-0.3-0.4-0.5
				C795.5,198.6,795.4,198.3,795.4,198.3z"/>
		</g>
		<g>
			<g>
				<path class="st15" d="M795.5,201.9c0,0-1.1-0.9-1.8-2.2c-0.2-0.4-0.5-1-0.5-1.9c0-1.5,0-1.4,0-2.5h1c0,0.8,0,1.5,0,2.5
					c0,0.7,0.2,1,0.4,1.4c0.6,1.1,1.6,1.9,1.6,1.9L795.5,201.9z"/>
				<rect x="795.4" y="208.4" class="st15" width="4.1" height="1"/>
				<path class="st15" d="M799.4,207.4h-3.9c0,0,0.1-0.3,0.2-0.5c0.2-0.2,0.4-0.5,0.4-0.5h2.8c0,0,0.2,0.3,0.4,0.5
					C799.3,207.2,799.4,207.4,799.4,207.4z"/>
				<path class="st15" d="M798.4,204.4l0.9-0.7c0,0,1.1,1,1.8,2.2c0.5,1,0.4,2.5,0.4,4.5h-1l0,0c0-1.6,0-3.2-0.4-4
					C799.4,205.2,798.4,204.4,798.4,204.4z"/>
			</g>
		</g>
	</g>
</g>
<ellipse class="st12" cx="1519.5" cy="193.8" rx="21.9" ry="21.6"/>
<g>
	<g>
		<path class="st14" d="M1519.7,190.5c2.8-1.8,6-5.1,6.1-8.1c0.1-3.7,0.1-4.6,0.1-4.8h2c0,0,0,1.1-0.1,4.8c-0.1,4.9-4.1,7.9-7.1,10
			c-3.7,2.6-7,5.8-7.1,8.9c-0.1,4.8-0.1,4.8-0.1,4.8h-2c0-0.3,0-1.4,0.1-4.8C1511.7,196.5,1516.7,192.4,1519.7,190.5z"/>
		
			<rect x="1518.4" y="199.4" transform="matrix(2.527491e-02 -0.9997 0.9997 2.527491e-02 1277.6749 1716.9979)" class="st14" width="1.9" height="7.8"/>
		<path class="st14" d="M1523.2,200.6l-7.5-0.2c0,0,0.1-0.4,0.4-0.9c0.2-0.4,0.7-1,0.7-1l5.4,0.1c0,0,0.4,0.5,0.7,1
			C1523.1,200.1,1523.2,200.6,1523.2,200.6z"/>
		<path class="st14" d="M1523.2,193.8c0,0,2,1.8,3.2,4.2c0.4,0.8,0.8,1.9,0.8,3.6c-0.1,2.9-0.1,2.7-0.1,4.8h-2
			c0-1.5,0.1-2.8,0.1-4.8c0-1.3-0.4-2-0.8-2.8c-1.1-2.1-3-3.7-3-3.7L1523.2,193.8z"/>
		
			<rect x="1519.1" y="176.4" transform="matrix(2.527491e-02 -0.9997 0.9997 2.527491e-02 1301.3451 1695.2612)" class="st14" width="1.9" height="7.8"/>
		<path class="st14" d="M1516.1,183.1l7.5,0.2c0,0-0.1,0.5-0.4,1s-0.7,0.9-0.7,0.9l-5.4-0.1c0,0-0.4-0.5-0.7-1
			C1516.3,183.5,1516.1,183.1,1516.1,183.1z"/>
		<path class="st14" d="M1517.8,188.9l-1.7,1.3c0,0-2-1.9-3.3-4.4c-1-1.9-0.7-4.8-0.6-8.6h1.9l0,0c-0.1,3-0.2,6.2,0.6,7.7
			C1516,187.3,1517.8,188.9,1517.8,188.9z"/>
	</g>
</g>
<image style="overflow:visible;" width="174" height="108" xlink:href="A6BFF5B6.png"  transform="matrix(0.24 0 0 0.24 1992.72 359.08)">
</image>
<g>
	<g>
		<path class="st16" d="M1592.9,192.1c1.2,0.3,3,0.4,3.9-0.3c1.1-0.9,1.4-1.2,1.5-1.2l0.5,0.6c0,0-0.3,0.3-1.5,1.2
			c-1.5,1.2-3.4,0.8-4.8,0.5c-1.7-0.4-3.5-0.5-4.4,0.3c-1.4,1.2-1.4,1.2-1.4,1.2l-0.5-0.6c0.1-0.1,0.4-0.4,1.4-1.2
			C1589.1,191.4,1591.6,191.8,1592.9,192.1z"/>
		<polygon class="st16" points="1589.7,196.7 1587.8,194.5 1588.4,194 1590.3,196.3 		"/>
		<path class="st16" d="M1590.9,195.7l-1.9-2.2c0,0,0.2-0.1,0.4-0.1c0.2,0,0.5,0,0.5,0l1.3,1.6c0,0,0,0.2-0.1,0.4
			C1591,195.6,1590.9,195.7,1590.9,195.7z"/>
		<path class="st16" d="M1592.8,194c0,0,0,1-0.4,2c-0.1,0.3-0.3,0.7-0.8,1.1c-0.9,0.7-0.8,0.7-1.4,1.2l-0.5-0.6
			c0.4-0.4,0.8-0.7,1.4-1.2c0.4-0.3,0.5-0.6,0.6-0.9c0.3-0.8,0.3-1.8,0.3-1.8L1592.8,194z"/>
		<polygon class="st16" points="1595.3,188.2 1597.3,190.5 1596.7,191 1594.7,188.7 		"/>
		<path class="st16" d="M1594.2,189.2l1.9,2.2c0,0-0.2,0.1-0.4,0.1c-0.2,0-0.5,0-0.5,0l-1.3-1.6c0,0,0-0.3,0.1-0.4
			C1594.1,189.4,1594.2,189.2,1594.2,189.2z"/>
		<path class="st16" d="M1592.9,191.2l-0.8-0.2c0,0,0-1.1,0.5-2c0.3-0.8,1.2-1.4,2.4-2.4l0.5,0.6l0,0c-0.9,0.8-1.9,1.5-2.1,2.2
			C1592.9,190.3,1592.9,191.2,1592.9,191.2z"/>
	</g>
</g>
<path class="st12" d="M453.4,317.5c-38.2,46.3-99,62.5-160.6,55.9c-22.2-2.4-44.2-7.2-65.2-14c-8-2.6-14.5-5.2-21-10.4
	c-6.9-5.5-15.2-11.2-19.6-18.6c-4.3-7.1,1.6-8.9,8.4-5.2C328.7,398.7,368,308.3,368,308.3c7.7-29.5-35.3-30.6-44.3-16.8
	c-5.7,8.8,6.1,18.2-0.6,24.9c-6.8,6.9-29.1,7.3-33.9,7c-13.9-0.7-29-5.1-33.6-18.2c-3.3-9.6,1.5-20.1,6.4-28.5
	c32.5-56.2,172.6-15.8,237.6,13.3S650,340.6,730,313c20.9-7.2,48.5-19.7,52.1-42c2.8-17-12.8-36.6-32.6-22.8
	c-6.2,4.4-7.6,6.6-15.7,2c-18.8-10.7,37.6-52.1,61.5-13.8s58.1,19.9,58.1,19.9c158.9-82.7,235.9-4.6,235.9-4.6
	c188,127.2,417,84.3,420.4,25c3.4-59.2-63.2-18.9-63.2-18.9c6.8-75.1,95.7-11.8,95.7-11.8c100.8-99.2,176,2.6,158.9,36.3
	s-44.4,19.1-44.4,19.1c23.8-40.5-20.5-69.7-41-48.3s-57.5,40.6,25.6,96.5c75.2,50.6,253-27.3,253-27.3s-64.9,59.4-181.2,62.5
	s-170.9-75.4-170.9-75.4c-25.6,51.8-194.8,58.5-246.1,49.7c-51.3-8.8-104.3-24.9-203.4-81.6s-222.2,39.8-222.2,39.8
	c-97.4,55.2-136.7,14.8-136.7,14.8C576.6,400.5,462,317.3,462,317.3S456.1,314.2,453.4,317.5z"/>
<ellipse class="st12" cx="161.9" cy="340.3" rx="3.8" ry="3.7"/>
</svg>
