<?xml version="1.0" encoding="utf-8"?>
<!-- Generator: Adobe Illustrator 23.0.3, SVG Export Plug-In . SVG Version: 6.00 Build 0)  -->
<svg version="1.1" xmlns="http://www.w3.org/2000/svg" xmlns:xlink="http://www.w3.org/1999/xlink" x="0px" y="0px"
	 viewBox="0 0 512.72 259.2" style="enable-background:new 0 0 512.72 259.2;" xml:space="preserve">
<style type="text/css">
	.st0{fill:#6A73B5;}
	.st1{fill:#718B9D;}
	.st2{fill:#CACACA;}
	.st3{opacity:0.8;}
	.st4{fill:none;stroke:#38BCD6;stroke-miterlimit:10;}
	.st5{fill:#CC795B;}
	.st6{fill:#995487;}
	.st7{fill:#F1E9E4;}
	.st8{fill:#EEE6A1;}
	.st9{fill:#FFFFFF;stroke:#CACACA;stroke-miterlimit:10;}
	.st10{fill:#D1AD41;}
	.st11{fill:#ACD37D;}
	.st12{fill:#EDF6EB;}
	.st13{fill:#CF6B62;}
	.st14{fill:#94B8DD;}
	.st15{fill:#DAACB8;}
	.st16{fill:#C48667;}
	.st17{fill:none;stroke:#CACACA;stroke-miterlimit:10;}
	.st18{font-family:'Tahoma';}
	.st19{font-size:12px;}
</style>
<g id="图层_2">
	<polygon class="st0" points="27.41,63.78 27.41,74.02 33.47,74.02 33.47,71.74 35.75,71.36 35.75,63.78 33.85,63.78 	"/>
	<polygon class="st1" points="27.41,91.1 27.41,101.34 33.47,101.34 33.47,99.06 35.75,98.68 35.75,91.1 33.85,91.1 	"/>
	<polygon class="st2" points="27.41,49.15 27.41,59.38 33.47,59.38 33.47,57.11 35.75,56.73 35.75,49.15 33.85,49.15 	"/>
	<polygon class="st2" points="27.41,105.19 27.41,115.42 33.47,115.42 33.47,113.15 35.75,112.77 35.75,105.19 33.85,105.19 	"/>
	<polygon class="st0" points="27.41,77.02 27.41,87.25 33.47,87.25 33.47,84.98 35.75,84.6 35.75,77.02 33.85,77.02 	"/>
</g>
<g id="图层_1">
	<g class="st3">
		<line class="st4" x1="20.72" y1="25.89" x2="500.72" y2="26.4"/>
		<line class="st4" x1="17.69" y1="166.99" x2="497.69" y2="167.5"/>
		<line class="st4" x1="118.74" y1="153.18" x2="500.48" y2="153.58"/>
		<line class="st4" x1="21.22" y1="125.45" x2="65.68" y2="125.5"/>
		<line class="st4" x1="398.65" y1="111.31" x2="498.44" y2="111.41"/>
		<line class="st4" x1="452.46" y1="96.66" x2="496.93" y2="96.71"/>
		<line class="st4" x1="21.22" y1="111.38" x2="27.29" y2="111.39"/>
		<line class="st4" x1="21.22" y1="96.69" x2="27.29" y2="96.7"/>
		<line class="st4" x1="21.25" y1="82.13" x2="27.32" y2="82.14"/>
		<line class="st4" x1="21.26" y1="68.89" x2="27.33" y2="68.9"/>
		<line class="st4" x1="21.28" y1="54.26" x2="27.35" y2="54.27"/>
		<line class="st4" x1="22.48" y1="137.87" x2="66.95" y2="137.92"/>
		<line class="st4" x1="21.19" y1="153.08" x2="65.66" y2="153.12"/>
		<line class="st4" x1="118.75" y1="137.7" x2="500.5" y2="138.1"/>
		<line class="st4" x1="118.77" y1="125.31" x2="500.51" y2="125.71"/>
		<line class="st4" x1="20.48" y1="249.39" x2="500.48" y2="249.9"/>
		<line class="st4" x1="20.73" y1="12.89" x2="500.73" y2="13.4"/>
	</g>
	<polygon class="st2" points="62.27,20.04 76.48,20.04 76.48,32.26 62.27,32.26 62.27,29.89 61.42,29.89 61.42,26.76 60,26.67 
		60,26.15 61.33,26.15 61.52,22.78 62.18,22.88 	"/>
	<polygon class="st2" points="56.31,170.91 70.52,170.91 70.52,183.13 56.31,183.13 56.31,180.76 55.45,180.76 55.45,177.63 
		54.03,177.54 54.03,177.02 55.36,177.02 55.55,173.65 56.21,173.75 	"/>
	<polygon class="st2" points="69.32,147.27 83.53,147.27 83.53,159.49 69.32,159.49 69.32,157.12 68.46,157.12 68.46,154 
		67.04,153.9 67.04,153.38 68.37,153.38 68.56,150.02 69.22,150.11 	"/>
	<polygon class="st2" points="69.32,133.33 83.53,133.33 83.53,145.56 69.32,145.56 69.32,143.19 68.46,143.19 68.46,140.06 
		67.04,139.97 67.04,139.45 68.37,139.45 68.56,136.08 69.22,136.18 	"/>
	<polygon class="st2" points="69.32,119.4 83.53,119.4 83.53,131.62 69.32,131.62 69.32,129.25 68.46,129.25 68.46,126.13 
		67.04,126.03 67.04,125.51 68.37,125.51 68.56,122.15 69.22,122.24 	"/>
	<polygon class="st2" points="183.63,203.12 197.84,203.12 197.84,215.34 183.63,215.34 183.63,212.97 182.78,212.97 182.78,209.84 
		181.36,209.75 181.36,209.23 182.68,209.23 182.87,205.86 183.54,205.96 	"/>
	<polygon class="st2" points="54.03,219.22 68.24,219.22 68.24,231.44 54.03,231.44 54.03,229.07 53.18,229.07 53.18,225.95 
		51.76,225.85 51.76,225.33 53.08,225.33 53.27,221.97 53.94,222.06 	"/>
	<polygon class="st2" points="168.76,29.79 182.97,29.79 182.97,42.02 168.76,42.02 168.76,39.65 167.91,39.65 167.91,36.52 
		166.48,36.43 166.48,35.91 167.81,35.91 168,32.54 168.66,32.64 	"/>
	<polygon class="st2" points="349.64,89.49 363.85,89.49 363.85,101.72 349.64,101.72 349.64,99.35 348.79,99.35 348.79,96.22 
		347.37,96.13 347.37,95.61 348.69,95.61 348.88,92.24 349.55,92.34 	"/>
	<polygon class="st5" points="67.04,46.28 81.25,46.28 81.25,58.51 67.04,58.51 67.04,56.14 66.19,56.14 66.19,53.01 64.77,52.92 
		64.77,52.4 66.09,52.4 66.28,49.03 66.95,49.13 	"/>
	<polygon class="st5" points="280.17,43.04 294.38,43.04 294.38,55.26 280.17,55.26 280.17,52.89 279.32,52.89 279.32,49.77 
		277.89,49.67 277.89,49.15 279.22,49.15 279.41,45.79 280.07,45.88 	"/>
	<polygon class="st5" points="280.17,57.67 294.38,57.67 294.38,69.89 280.17,69.89 280.17,67.53 279.32,67.53 279.32,64.4 
		277.89,64.31 277.89,63.78 279.22,63.78 279.41,60.42 280.07,60.52 	"/>
	<polygon class="st6" points="69.44,90.48 83.65,90.48 83.65,102.7 69.44,102.7 69.44,100.33 68.59,100.33 68.59,97.21 67.17,97.11 
		67.17,96.59 68.49,96.59 68.68,93.23 69.35,93.32 	"/>
	<polygon class="st7" points="177,89.2 191.21,89.2 191.21,101.42 177,101.42 177,99.06 176.15,99.06 176.15,95.93 174.73,95.83 
		174.73,95.31 176.05,95.31 176.24,91.95 176.91,92.04 	"/>
	<polygon class="st8" points="173.61,74.02 187.82,74.02 187.82,86.24 173.61,86.24 173.61,83.87 172.75,83.87 172.75,80.74 
		171.33,80.65 171.33,80.13 172.66,80.13 172.85,76.76 173.51,76.86 	"/>
	<polygon class="st0" points="69.44,61.76 83.65,61.76 83.65,73.99 69.44,73.99 69.44,71.62 68.59,71.62 68.59,68.49 67.17,68.4 
		67.17,67.87 68.49,67.87 68.68,64.51 69.35,64.61 	"/>
	<polygon class="st9" points="327.28,58.83 341.49,58.83 341.49,71.05 327.28,71.05 327.28,68.68 326.43,68.68 326.43,65.56 
		325.01,65.46 325.01,64.94 326.34,64.94 326.53,61.58 327.19,61.67 	"/>
	<polygon class="st9" points="280.17,87.25 294.38,87.25 294.38,99.47 280.17,99.47 280.17,97.11 279.32,97.11 279.32,93.98 
		277.89,93.88 277.89,93.36 279.22,93.36 279.41,90 280.07,90.09 	"/>
	<polygon class="st0" points="176.84,43.04 191.05,43.04 191.05,55.26 176.84,55.26 176.84,52.89 175.99,52.89 175.99,49.77 
		174.57,49.67 174.57,49.15 175.89,49.15 176.08,45.79 176.75,45.88 	"/>
	<polygon class="st0" points="234.44,43.04 248.65,43.04 248.65,55.26 234.44,55.26 234.44,52.89 233.59,52.89 233.59,49.77 
		232.17,49.67 232.17,49.15 233.49,49.15 233.68,45.79 234.35,45.88 	"/>
	<polygon class="st1" points="450.82,19.26 465.03,19.26 465.03,31.48 450.82,31.48 450.82,29.11 449.97,29.11 449.97,25.98 
		448.55,25.89 448.55,25.37 449.88,25.37 450.06,22 450.73,22.1 	"/>
	<polygon class="st0" points="280.17,72.46 294.38,72.46 294.38,84.68 280.17,84.68 280.17,82.32 279.32,82.32 279.32,79.19 
		277.89,79.09 277.89,78.57 279.22,78.57 279.41,75.21 280.07,75.31 	"/>
	<polygon class="st0" points="280.17,102.04 294.38,102.04 294.38,114.26 280.17,114.26 280.17,111.89 279.32,111.89 279.32,108.77 
		277.89,108.67 277.89,108.15 279.22,108.15 279.41,104.79 280.07,104.88 	"/>
	<polygon class="st10" points="67.04,104.56 81.25,104.56 81.25,116.78 67.04,116.78 67.04,114.42 66.19,114.42 66.19,111.29 
		64.77,111.19 64.77,110.67 66.09,110.67 66.28,107.31 66.95,107.41 	"/>
	<polygon class="st10" points="67.04,76.12 81.25,76.12 81.25,88.34 67.04,88.34 67.04,85.97 66.19,85.97 66.19,82.85 64.77,82.75 
		64.77,82.23 66.09,82.23 66.28,78.87 66.95,78.96 	"/>
	<polygon class="st10" points="183.63,187.01 197.84,187.01 197.84,199.23 183.63,199.23 183.63,196.86 182.78,196.86 
		182.78,193.74 181.36,193.64 181.36,193.12 182.68,193.12 182.87,189.76 183.54,189.85 	"/>
	<polygon class="st10" points="176.84,58.54 191.05,58.54 191.05,70.76 176.84,70.76 176.84,68.39 175.99,68.39 175.99,65.26 
		174.57,65.17 174.57,64.65 175.89,64.65 176.08,61.28 176.75,61.38 	"/>
	<polygon class="st8" points="103.45,46.28 89.24,46.28 89.24,58.51 103.45,58.51 103.45,56.14 104.31,56.14 104.31,53.01 
		105.73,52.92 105.73,52.4 104.4,52.4 104.21,49.03 103.55,49.13 	"/>
	<polygon class="st11" points="250.26,19.26 236.05,19.26 236.05,31.48 250.26,31.48 250.26,29.11 251.12,29.11 251.12,25.98 
		252.54,25.89 252.54,25.37 251.21,25.37 251.02,22 250.36,22.1 	"/>
	<polygon class="st11" points="485.21,20.09 471,20.09 471,32.31 485.21,32.31 485.21,29.94 486.06,29.94 486.06,26.81 
		487.48,26.72 487.48,26.2 486.16,26.2 485.97,22.84 485.31,22.93 	"/>
	<polygon class="st11" points="103.45,60.9 89.24,60.9 89.24,73.12 103.45,73.12 103.45,70.75 104.31,70.75 104.31,67.63 
		105.73,67.53 105.73,67.01 104.4,67.01 104.21,63.65 103.55,63.74 	"/>
	<polygon class="st2" points="483.19,43.06 468.98,43.06 468.98,55.28 483.19,55.28 483.19,52.91 484.04,52.91 484.04,49.78 
		485.46,49.69 485.46,49.17 484.14,49.17 483.95,45.81 483.28,45.9 	"/>
	<polygon class="st2" points="483.19,59.93 468.98,59.93 468.98,72.15 483.19,72.15 483.19,69.79 484.04,69.79 484.04,66.66 
		485.46,66.57 485.46,66.04 484.14,66.04 483.95,62.68 483.28,62.78 	"/>
	<polygon class="st2" points="68.24,187.01 54.03,187.01 54.03,199.23 68.24,199.23 68.24,196.86 69.09,196.86 69.09,193.74 
		70.52,193.64 70.52,193.12 69.19,193.12 69,189.76 68.34,189.85 	"/>
	<g>
		<polygon class="st2" points="183.63,170.91 197.84,170.91 197.84,183.13 183.63,183.13 183.63,180.76 182.78,180.76 
			182.78,177.63 181.36,177.54 181.36,177.02 182.68,177.02 182.87,173.65 183.54,173.75 		"/>
		<polygon class="st2" points="179.08,170.91 164.87,170.91 164.87,183.13 179.08,183.13 179.08,180.76 179.94,180.76 
			179.94,177.63 181.36,177.54 181.36,177.02 180.03,177.02 179.84,173.65 179.18,173.75 		"/>
	</g>
	<polygon class="st11" points="364.04,170.91 378.25,170.91 378.25,183.13 364.04,183.13 364.04,180.76 363.19,180.76 
		363.19,177.63 361.77,177.54 361.77,177.02 363.09,177.02 363.28,173.65 363.95,173.75 	"/>
	<polygon class="st2" points="359.49,170.91 345.28,170.91 345.28,183.13 359.49,183.13 359.49,180.76 360.35,180.76 360.35,177.63 
		361.77,177.54 361.77,177.02 360.44,177.02 360.25,173.65 359.59,173.75 	"/>
	<polygon class="st11" points="364.04,219.22 378.25,219.22 378.25,231.44 364.04,231.44 364.04,229.07 363.19,229.07 
		363.19,225.95 361.77,225.85 361.77,225.33 363.09,225.33 363.28,221.97 363.95,222.06 	"/>
	<polygon class="st2" points="359.49,219.22 345.28,219.22 345.28,231.44 359.49,231.44 359.49,229.07 360.35,229.07 360.35,225.95 
		361.77,225.85 361.77,225.33 360.44,225.33 360.25,221.97 359.59,222.06 	"/>
	<g>
		<polygon class="st2" points="364.04,187.01 378.25,187.01 378.25,199.23 364.04,199.23 364.04,196.86 363.19,196.86 
			363.19,193.74 361.77,193.64 361.77,193.12 363.09,193.12 363.28,189.76 363.95,189.85 		"/>
		<polygon class="st2" points="359.49,187.01 345.28,187.01 345.28,199.23 359.49,199.23 359.49,196.86 360.35,196.86 
			360.35,193.74 361.77,193.64 361.77,193.12 360.44,193.12 360.25,189.76 359.59,189.85 		"/>
	</g>
	<g>
		<polygon class="st2" points="368.59,42.02 382.8,42.02 382.8,54.24 368.59,54.24 368.59,51.87 367.74,51.87 367.74,48.74 
			366.32,48.65 366.32,48.13 367.64,48.13 367.83,44.76 368.49,44.86 		"/>
		<polygon class="st2" points="364.04,42.02 349.83,42.02 349.83,54.24 364.04,54.24 364.04,51.87 364.89,51.87 364.89,48.74 
			366.32,48.65 366.32,48.13 364.99,48.13 364.8,44.76 364.14,44.86 		"/>
	</g>
	<g>
		<polygon class="st2" points="428.16,42.02 442.37,42.02 442.37,54.24 428.16,54.24 428.16,51.87 427.31,51.87 427.31,48.74 
			425.89,48.65 425.89,48.13 427.22,48.13 427.41,44.76 428.07,44.86 		"/>
		<polygon class="st2" points="423.62,42.02 409.41,42.02 409.41,54.24 423.62,54.24 423.62,51.87 424.47,51.87 424.47,48.74 
			425.89,48.65 425.89,48.13 424.56,48.13 424.37,44.76 423.71,44.86 		"/>
	</g>
	<g>
		<polygon class="st2" points="357.88,74.02 372.09,74.02 372.09,86.24 357.88,86.24 357.88,83.87 357.03,83.87 357.03,80.74 
			355.61,80.65 355.61,80.13 356.94,80.13 357.13,76.76 357.79,76.86 		"/>
		<polygon class="st2" points="353.34,74.02 339.13,74.02 339.13,86.24 353.34,86.24 353.34,83.87 354.19,83.87 354.19,80.74 
			355.61,80.65 355.61,80.13 354.28,80.13 354.09,76.76 353.43,76.86 		"/>
	</g>
	<g>
		<polygon class="st9" points="184.01,219.22 198.22,219.22 198.22,231.44 184.01,231.44 184.01,229.07 183.16,229.07 
			183.16,225.95 181.74,225.85 181.74,225.33 183.06,225.33 183.25,221.97 183.92,222.06 		"/>
		<polygon class="st9" points="181.93,219.22 167.72,219.22 167.72,231.44 181.93,231.44 181.93,229.07 182.78,229.07 
			182.78,225.95 184.2,225.85 184.2,225.33 182.87,225.33 182.68,221.97 182.02,222.06 		"/>
	</g>
	<g>
		<polygon class="st2" points="364.04,203.12 378.25,203.12 378.25,215.34 364.04,215.34 364.04,212.97 363.19,212.97 
			363.19,209.84 361.77,209.75 361.77,209.23 363.09,209.23 363.28,205.86 363.95,205.96 		"/>
		<polygon class="st2" points="359.49,203.12 345.28,203.12 345.28,215.34 359.49,215.34 359.49,212.97 360.35,212.97 
			360.35,209.84 361.77,209.75 361.77,209.23 360.44,209.23 360.25,205.86 359.59,205.96 		"/>
	</g>
	<polygon class="st2" points="68.24,203.12 54.03,203.12 54.03,215.34 68.24,215.34 68.24,212.97 69.09,212.97 69.09,209.84 
		70.52,209.75 70.52,209.23 69.19,209.23 69,205.86 68.34,205.96 	"/>
	<polygon class="st2" points="315.09,58.83 300.88,58.83 300.88,71.05 315.09,71.05 315.09,68.68 315.95,68.68 315.95,65.56 
		317.37,65.46 317.37,64.94 316.04,64.94 315.85,61.58 315.19,61.67 	"/>
	<polygon class="st2" points="315.09,74.02 300.88,74.02 300.88,86.24 315.09,86.24 315.09,83.87 315.95,83.87 315.95,80.74 
		317.37,80.65 317.37,80.13 316.04,80.13 315.85,76.76 315.19,76.86 	"/>
	<polygon class="st2" points="388.77,74.02 374.56,74.02 374.56,86.24 388.77,86.24 388.77,83.87 389.62,83.87 389.62,80.74 
		391.04,80.65 391.04,80.13 389.72,80.13 389.53,76.76 388.86,76.86 	"/>
	<polygon class="st2" points="315.58,43.04 301.37,43.04 301.37,55.26 315.58,55.26 315.58,52.89 316.43,52.89 316.43,49.77 
		317.85,49.67 317.85,49.15 316.52,49.15 316.34,45.79 315.67,45.88 	"/>
	<polygon class="st2" points="315.09,20.09 300.88,20.09 300.88,32.31 315.09,32.31 315.09,29.94 315.95,29.94 315.95,26.81 
		317.37,26.72 317.37,26.2 316.04,26.2 315.85,22.84 315.19,22.93 	"/>
	<polygon class="st2" points="359.49,19.26 345.28,19.26 345.28,31.48 359.49,31.48 359.49,29.11 360.35,29.11 360.35,25.98 
		361.77,25.89 361.77,25.37 360.44,25.37 360.25,22 359.59,22.1 	"/>
	<polygon class="st12" points="380.53,89.2 366.32,89.2 366.32,101.42 380.53,101.42 380.53,99.06 381.38,99.06 381.38,95.93 
		382.8,95.83 382.8,95.31 381.47,95.31 381.28,91.95 380.62,92.04 	"/>
	<polygon class="st2" points="101.68,76.12 87.47,76.12 87.47,88.34 101.68,88.34 101.68,85.97 102.54,85.97 102.54,82.85 
		103.96,82.75 103.96,82.23 102.63,82.23 102.44,78.87 101.78,78.96 	"/>
	<polygon class="st13" points="315.72,7.09 301.51,7.09 301.51,19.31 315.72,19.31 315.72,16.94 316.58,16.94 316.58,13.81 
		318,13.72 318,13.2 316.67,13.2 316.48,9.83 315.82,9.93 	"/>
	<polygon class="st13" points="103.45,91.1 89.24,91.1 89.24,103.33 103.45,103.33 103.45,100.96 104.31,100.96 104.31,97.83 
		105.73,97.74 105.73,97.22 104.4,97.22 104.21,93.85 103.55,93.95 	"/>
	<polygon class="st14" points="97.86,104.56 83.65,104.56 83.65,116.78 97.86,116.78 97.86,114.42 98.72,114.42 98.72,111.29 
		100.14,111.19 100.14,110.67 98.81,110.67 98.62,107.31 97.96,107.41 	"/>
	<polygon class="st15" points="101.68,118.65 87.47,118.65 87.47,130.87 101.68,130.87 101.68,128.5 102.54,128.5 102.54,125.37 
		103.96,125.28 103.96,124.76 102.63,124.76 102.44,121.39 101.78,121.49 	"/>
	<rect x="115.39" y="119.12" class="st16" width="3.28" height="11.62"/>
	<rect x="115.39" y="132.51" class="st16" width="3.28" height="11.62"/>
	<rect x="115.39" y="146.4" class="st16" width="3.28" height="11.62"/>
	<line class="st17" x1="317.95" y1="64.94" x2="326.13" y2="64.94"/>
	<g>
		<text transform="matrix(1 0 0 1 121.5157 57.6737)" class="st13 st18 st19">G12V</text>
	</g>
	<g>
		<text transform="matrix(1 0 0 1 121.5157 77.0207)" class="st10 st18 st19">G12D</text>
	</g>
	<g>
		<text transform="matrix(1 0 0 1 121.5157 102.0426)" class="st0 st18 st19">G12C</text>
	</g>
	<g>
		<text transform="matrix(1 0 0 1 134.1473 119.3998)" class="st6 st18 st19">G12R</text>
	</g>
	<g>
		<text transform="matrix(1 0 0 1 202.3578 118.6466)" class="st11 st18 st19">G13D</text>
	</g>
	<g>
		
			<text transform="matrix(1 0 0 1 134.1473 410.4004)" class="st19" style="fill:#FFFFFF; font-family:'AdobeSongStd-Light-GBpc-EUC-H';">G13D</text>
	</g>
</g>
</svg>
