<?xml version="1.0" standalone="no"?><!DOCTYPE svg PUBLIC "-//W3C//DTD SVG 1.1//EN" "http://www.w3.org/Graphics/SVG/1.1/DTD/svg11.dtd"><svg t="1712039953678" class="icon" viewBox="0 0 1600 1024" version="1.1" xmlns="http://www.w3.org/2000/svg" p-id="9633" xmlns:xlink="http://www.w3.org/1999/xlink" width="312.5" height="200"><path d="M669.26784 641.92l259.456 259.52a64 64 0 0 1-90.496 90.496l-270.336-270.336a384 384 0 1 1 101.376-79.68z m243.648-429.632c0-40.704 33.152-73.6 73.6-73.6h540.8c40.64 0 73.6 32.64 73.6 73.6 0 40.64-33.216 73.6-73.6 73.6h-540.8c-40.64 0-73.6-32.64-73.6-73.6z m0 346.688c0-40.64 33.152-73.6 73.6-73.6h540.8c40.64 0 73.6 32.64 73.6 73.6 0 40.64-33.216 73.6-73.6 73.6h-540.8c-40.64 0-73.6-32.64-73.6-73.6z m202.688 346.688c0-40.64 33.28-73.6 73.6-73.6h337.792c40.704 0 73.728 32.64 73.728 73.6 0 40.64-33.344 73.6-73.728 73.6H1189.26784c-40.704 0-73.664-32.64-73.664-73.6zM384.78784 665.6a281.6 281.6 0 1 0 0-563.2 281.6 281.6 0 0 0 0 563.2z" fill="#ffffff" p-id="9634"></path></svg>