<?xml version="1.0" encoding="utf-8"?>
<!-- Generator: Adobe Illustrator 23.0.3, SVG Export Plug-In . SVG Version: 6.00 Build 0)  -->
<svg version="1.1" id="图层_1" xmlns="http://www.w3.org/2000/svg" xmlns:xlink="http://www.w3.org/1999/xlink" x="0px" y="0px"
	 viewBox="0 0 2182.7 538.6" style="enable-background:new 0 0 2182.7 538.6;" xml:space="preserve">
<style type="text/css">
	.st0{fill:url(#SVGID_1_);}
	.st1{opacity:0.6;}
	.st2{fill:none;stroke:#D7FF45;stroke-miterlimit:10;}
</style>
<linearGradient id="SVGID_1_" gradientUnits="userSpaceOnUse" x1="-0.9" y1="573.25" x2="2183.5" y2="573.25" gradientTransform="matrix(1 0 0 1 0 -304)">
	<stop  offset="0" style="stop-color:#00FFD0;stop-opacity:0.55"/>
	<stop  offset="0.5455" style="stop-color:#F6F9F7;stop-opacity:0.5026"/>
	<stop  offset="1" style="stop-color:#95D5F0"/>
</linearGradient>
<rect x="-0.9" y="-0.5" class="st0" width="2184.4" height="539.5"/>
<g class="st1">
	<g class="st1">
		<line class="st2" x1="-0.9" y1="-0.5" x2="607.9" y2="538.6"/>
		<line class="st2" x1="596.6" y1="538.6" x2="-0.9" y2="9.6"/>
		<line class="st2" x1="585.3" y1="538.6" x2="-0.9" y2="19.6"/>
		<line class="st2" x1="573.9" y1="538.6" x2="-0.9" y2="29.7"/>
		<line class="st2" x1="562.6" y1="538.6" x2="-0.9" y2="39.7"/>
		<line class="st2" x1="551.2" y1="538.6" x2="-0.9" y2="49.7"/>
		<line class="st2" x1="539.9" y1="538.6" x2="-0.9" y2="59.8"/>
		<line class="st2" x1="528.6" y1="538.6" x2="-0.9" y2="69.8"/>
		<line class="st2" x1="517.2" y1="538.6" x2="-0.9" y2="79.8"/>
		<line class="st2" x1="505.9" y1="538.6" x2="-0.9" y2="89.9"/>
		<line class="st2" x1="494.5" y1="538.6" x2="-0.9" y2="99.9"/>
		<line class="st2" x1="483.2" y1="538.6" x2="-0.9" y2="110"/>
		<line class="st2" x1="471.9" y1="538.6" x2="-0.9" y2="120"/>
		<line class="st2" x1="460.5" y1="538.6" x2="-0.9" y2="130.1"/>
		<line class="st2" x1="449.2" y1="538.6" x2="-0.9" y2="140.1"/>
		<line class="st2" x1="437.9" y1="538.6" x2="-0.9" y2="150.1"/>
		<line class="st2" x1="426.5" y1="538.6" x2="-0.9" y2="160.2"/>
		<line class="st2" x1="415.2" y1="538.6" x2="-0.9" y2="170.2"/>
		<line class="st2" x1="403.8" y1="538.6" x2="-0.9" y2="180.2"/>
		<line class="st2" x1="392.5" y1="538.6" x2="-0.9" y2="190.3"/>
		<line class="st2" x1="381.1" y1="538.6" x2="-0.9" y2="200.3"/>
		<line class="st2" x1="369.8" y1="538.6" x2="-0.9" y2="210.4"/>
		<line class="st2" x1="358.5" y1="538.6" x2="-0.9" y2="220.4"/>
		<line class="st2" x1="347.1" y1="538.6" x2="-0.9" y2="230.4"/>
		<line class="st2" x1="335.8" y1="538.6" x2="-0.9" y2="240.5"/>
		<line class="st2" x1="324.5" y1="538.6" x2="-0.9" y2="250.5"/>
		<line class="st2" x1="313.1" y1="538.6" x2="-0.9" y2="260.6"/>
		<line class="st2" x1="301.8" y1="538.6" x2="-0.9" y2="270.6"/>
		<line class="st2" x1="290.5" y1="538.6" x2="-0.9" y2="280.6"/>
		<line class="st2" x1="279.1" y1="538.6" x2="-0.9" y2="290.7"/>
		<line class="st2" x1="267.8" y1="538.6" x2="-0.9" y2="300.7"/>
		<line class="st2" x1="256.4" y1="538.6" x2="-0.9" y2="310.7"/>
		<line class="st2" x1="245.1" y1="538.6" x2="-0.9" y2="320.8"/>
		<line class="st2" x1="233.8" y1="538.6" x2="-0.9" y2="330.8"/>
		<line class="st2" x1="222.4" y1="538.6" x2="-0.9" y2="340.9"/>
		<line class="st2" x1="211.1" y1="538.6" x2="-0.9" y2="350.9"/>
		<line class="st2" x1="199.7" y1="538.6" x2="-0.9" y2="360.9"/>
		<line class="st2" x1="188.4" y1="538.6" x2="-0.9" y2="371"/>
		<line class="st2" x1="177.1" y1="538.6" x2="-0.9" y2="381"/>
		<line class="st2" x1="165.7" y1="538.6" x2="-0.9" y2="391.1"/>
		<line class="st2" x1="154.4" y1="538.6" x2="-0.9" y2="401.1"/>
		<line class="st2" x1="143" y1="538.6" x2="-0.9" y2="411.1"/>
		<line class="st2" x1="131.7" y1="538.6" x2="-0.9" y2="421.2"/>
		<line class="st2" x1="120.4" y1="538.6" x2="-0.9" y2="431.2"/>
		<line class="st2" x1="109" y1="538.6" x2="-0.9" y2="441.3"/>
		<line class="st2" x1="97.7" y1="538.6" x2="-0.9" y2="451.3"/>
		<line class="st2" x1="86.3" y1="538.6" x2="-0.9" y2="461.3"/>
		<line class="st2" x1="75" y1="538.6" x2="-0.9" y2="471.4"/>
		<line class="st2" x1="63.7" y1="538.6" x2="-0.9" y2="481.4"/>
		<line class="st2" x1="52.3" y1="538.6" x2="-0.9" y2="491.4"/>
		<line class="st2" x1="41" y1="538.6" x2="-0.9" y2="501.5"/>
		<line class="st2" x1="29.7" y1="538.6" x2="-0.9" y2="511.5"/>
		<line class="st2" x1="18.3" y1="538.6" x2="-0.9" y2="521.6"/>
		<line class="st2" x1="7" y1="538.6" x2="-0.9" y2="531.6"/>
		<line class="st2" x1="10.5" y1="-0.5" x2="619.3" y2="538.6"/>
		<line class="st2" x1="21.8" y1="-0.5" x2="630.6" y2="538.6"/>
		<line class="st2" x1="33.1" y1="-0.5" x2="641.9" y2="538.6"/>
		<line class="st2" x1="44.5" y1="-0.5" x2="653.3" y2="538.6"/>
		<line class="st2" x1="55.8" y1="-0.5" x2="664.6" y2="538.6"/>
		<line class="st2" x1="67.1" y1="-0.5" x2="676" y2="538.6"/>
		<line class="st2" x1="78.5" y1="-0.5" x2="687.3" y2="538.6"/>
		<line class="st2" x1="89.8" y1="-0.5" x2="698.6" y2="538.6"/>
		<line class="st2" x1="101.2" y1="-0.5" x2="710" y2="538.6"/>
		<line class="st2" x1="112.5" y1="-0.5" x2="721.3" y2="538.6"/>
		<line class="st2" x1="123.8" y1="-0.5" x2="732.7" y2="538.6"/>
		<line class="st2" x1="135.2" y1="-0.5" x2="744" y2="538.6"/>
		<line class="st2" x1="146.5" y1="-0.5" x2="755.3" y2="538.6"/>
		<line class="st2" x1="157.9" y1="-0.5" x2="766.7" y2="538.6"/>
		<line class="st2" x1="169.2" y1="-0.5" x2="778" y2="538.6"/>
		<line class="st2" x1="180.5" y1="-0.5" x2="789.3" y2="538.6"/>
		<line class="st2" x1="191.9" y1="-0.5" x2="800.7" y2="538.6"/>
		<line class="st2" x1="203.2" y1="-0.5" x2="812" y2="538.6"/>
		<line class="st2" x1="214.5" y1="-0.5" x2="823.4" y2="538.6"/>
		<line class="st2" x1="225.9" y1="-0.5" x2="834.7" y2="538.6"/>
		<line class="st2" x1="237.2" y1="-0.5" x2="846" y2="538.6"/>
		<line class="st2" x1="248.6" y1="-0.5" x2="857.4" y2="538.6"/>
		<line class="st2" x1="259.9" y1="-0.5" x2="868.7" y2="538.6"/>
		<line class="st2" x1="271.2" y1="-0.5" x2="880.1" y2="538.6"/>
		<line class="st2" x1="282.6" y1="-0.5" x2="891.4" y2="538.6"/>
		<line class="st2" x1="293.9" y1="-0.5" x2="902.7" y2="538.6"/>
		<line class="st2" x1="305.3" y1="-0.5" x2="914.1" y2="538.6"/>
		<line class="st2" x1="316.6" y1="-0.5" x2="925.4" y2="538.6"/>
		<line class="st2" x1="327.9" y1="-0.5" x2="936.7" y2="538.6"/>
		<line class="st2" x1="339.3" y1="-0.5" x2="948.1" y2="538.6"/>
		<line class="st2" x1="350.6" y1="-0.5" x2="959.4" y2="538.6"/>
		<line class="st2" x1="361.9" y1="-0.5" x2="970.8" y2="538.6"/>
		<line class="st2" x1="373.3" y1="-0.5" x2="982.1" y2="538.6"/>
		<line class="st2" x1="384.6" y1="-0.5" x2="993.4" y2="538.6"/>
		<line class="st2" x1="396" y1="-0.5" x2="1004.8" y2="538.6"/>
		<line class="st2" x1="407.3" y1="-0.5" x2="1016.1" y2="538.6"/>
		<line class="st2" x1="418.6" y1="-0.5" x2="1027.5" y2="538.6"/>
		<line class="st2" x1="430" y1="-0.5" x2="1038.8" y2="538.6"/>
		<line class="st2" x1="441.3" y1="-0.5" x2="1050.1" y2="538.6"/>
		<line class="st2" x1="452.7" y1="-0.5" x2="1061.5" y2="538.6"/>
		<line class="st2" x1="464" y1="-0.5" x2="1072.8" y2="538.6"/>
		<line class="st2" x1="475.3" y1="-0.5" x2="1084.1" y2="538.6"/>
		<line class="st2" x1="486.7" y1="-0.5" x2="1095.5" y2="538.6"/>
		<line class="st2" x1="498" y1="-0.5" x2="1106.8" y2="538.6"/>
		<line class="st2" x1="509.4" y1="-0.5" x2="1118.2" y2="538.6"/>
		<line class="st2" x1="520.7" y1="-0.5" x2="1129.5" y2="538.6"/>
		<line class="st2" x1="532" y1="-0.5" x2="1140.8" y2="538.6"/>
		<line class="st2" x1="543.4" y1="-0.5" x2="1152.2" y2="538.6"/>
		<line class="st2" x1="554.7" y1="-0.5" x2="1163.5" y2="538.6"/>
		<line class="st2" x1="566" y1="-0.5" x2="1174.9" y2="538.6"/>
		<line class="st2" x1="577.4" y1="-0.5" x2="1186.2" y2="538.6"/>
		<line class="st2" x1="588.7" y1="-0.5" x2="1197.5" y2="538.6"/>
		<line class="st2" x1="600.1" y1="-0.5" x2="1208.9" y2="538.6"/>
		<line class="st2" x1="611.4" y1="-0.5" x2="1220.2" y2="538.6"/>
		<line class="st2" x1="622.7" y1="-0.5" x2="1231.5" y2="538.6"/>
		<line class="st2" x1="634.1" y1="-0.5" x2="1242.9" y2="538.6"/>
		<line class="st2" x1="645.4" y1="-0.5" x2="1254.2" y2="538.6"/>
		<line class="st2" x1="656.8" y1="-0.5" x2="1265.6" y2="538.6"/>
		<line class="st2" x1="668.1" y1="-0.5" x2="1276.9" y2="538.6"/>
		<line class="st2" x1="679.4" y1="-0.5" x2="1288.2" y2="538.6"/>
		<line class="st2" x1="690.8" y1="-0.5" x2="1299.6" y2="538.6"/>
		<line class="st2" x1="702.1" y1="-0.5" x2="1310.9" y2="538.6"/>
		<line class="st2" x1="713.4" y1="-0.5" x2="1322.3" y2="538.6"/>
		<line class="st2" x1="724.8" y1="-0.5" x2="1333.6" y2="538.6"/>
		<line class="st2" x1="736.1" y1="-0.5" x2="1344.9" y2="538.6"/>
		<line class="st2" x1="747.5" y1="-0.5" x2="1356.3" y2="538.6"/>
		<line class="st2" x1="758.8" y1="-0.5" x2="1367.6" y2="538.6"/>
		<line class="st2" x1="770.1" y1="-0.5" x2="1378.9" y2="538.6"/>
		<line class="st2" x1="781.5" y1="-0.5" x2="1390.3" y2="538.6"/>
		<line class="st2" x1="792.8" y1="-0.5" x2="1401.6" y2="538.6"/>
		<line class="st2" x1="804.2" y1="-0.5" x2="1413" y2="538.6"/>
		<line class="st2" x1="815.5" y1="-0.5" x2="1424.3" y2="538.6"/>
		<line class="st2" x1="826.8" y1="-0.5" x2="1435.6" y2="538.6"/>
		<line class="st2" x1="838.2" y1="-0.5" x2="1447" y2="538.6"/>
		<line class="st2" x1="849.5" y1="-0.5" x2="1458.3" y2="538.6"/>
		<line class="st2" x1="860.8" y1="-0.5" x2="1469.7" y2="538.6"/>
		<line class="st2" x1="872.2" y1="-0.5" x2="1481" y2="538.6"/>
		<line class="st2" x1="883.5" y1="-0.5" x2="1492.3" y2="538.6"/>
		<line class="st2" x1="894.9" y1="-0.5" x2="1503.7" y2="538.6"/>
		<line class="st2" x1="906.2" y1="-0.5" x2="1515" y2="538.6"/>
		<line class="st2" x1="917.5" y1="-0.5" x2="1526.4" y2="538.6"/>
		<line class="st2" x1="928.9" y1="-0.5" x2="1537.7" y2="538.6"/>
		<line class="st2" x1="940.2" y1="-0.5" x2="1549" y2="538.6"/>
		<line class="st2" x1="951.6" y1="-0.5" x2="1560.4" y2="538.6"/>
		<line class="st2" x1="962.9" y1="-0.5" x2="1571.7" y2="538.6"/>
		<line class="st2" x1="974.2" y1="-0.5" x2="1583" y2="538.6"/>
		<line class="st2" x1="985.6" y1="-0.5" x2="1594.4" y2="538.6"/>
		<line class="st2" x1="996.9" y1="-0.5" x2="1605.7" y2="538.6"/>
		<line class="st2" x1="1008.2" y1="-0.5" x2="1617.1" y2="538.6"/>
		<line class="st2" x1="1019.6" y1="-0.5" x2="1628.4" y2="538.6"/>
		<line class="st2" x1="1030.9" y1="-0.5" x2="1639.7" y2="538.6"/>
		<line class="st2" x1="1042.3" y1="-0.5" x2="1651.1" y2="538.6"/>
		<line class="st2" x1="1053.6" y1="-0.5" x2="1662.4" y2="538.6"/>
		<line class="st2" x1="1064.9" y1="-0.5" x2="1673.8" y2="538.6"/>
		<line class="st2" x1="1076.3" y1="-0.5" x2="1685.1" y2="538.6"/>
		<line class="st2" x1="1087.6" y1="-0.5" x2="1696.4" y2="538.6"/>
		<line class="st2" x1="1099" y1="-0.5" x2="1707.8" y2="538.6"/>
		<line class="st2" x1="1110.3" y1="-0.5" x2="1719.1" y2="538.6"/>
		<line class="st2" x1="1121.6" y1="-0.5" x2="1730.4" y2="538.6"/>
		<line class="st2" x1="1133" y1="-0.5" x2="1741.8" y2="538.6"/>
		<line class="st2" x1="1144.3" y1="-0.5" x2="1753.1" y2="538.6"/>
		<line class="st2" x1="1155.7" y1="-0.5" x2="1764.5" y2="538.6"/>
		<line class="st2" x1="1167" y1="-0.5" x2="1775.8" y2="538.6"/>
		<line class="st2" x1="1178.3" y1="-0.5" x2="1787.1" y2="538.6"/>
		<line class="st2" x1="1189.7" y1="-0.5" x2="1798.5" y2="538.6"/>
		<line class="st2" x1="1201" y1="-0.5" x2="1809.8" y2="538.6"/>
		<line class="st2" x1="1212.3" y1="-0.5" x2="1821.2" y2="538.6"/>
		<line class="st2" x1="1223.7" y1="-0.5" x2="1832.5" y2="538.6"/>
		<line class="st2" x1="1235" y1="-0.5" x2="1843.8" y2="538.6"/>
		<line class="st2" x1="1246.4" y1="-0.5" x2="1855.2" y2="538.6"/>
		<line class="st2" x1="1257.7" y1="-0.5" x2="1866.5" y2="538.6"/>
		<line class="st2" x1="1269" y1="-0.5" x2="1877.8" y2="538.6"/>
		<line class="st2" x1="1280.4" y1="-0.5" x2="1889.2" y2="538.6"/>
		<line class="st2" x1="1291.7" y1="-0.5" x2="1900.5" y2="538.6"/>
		<line class="st2" x1="1303.1" y1="-0.5" x2="1911.9" y2="538.6"/>
		<line class="st2" x1="1314.4" y1="-0.5" x2="1923.2" y2="538.6"/>
		<line class="st2" x1="1325.7" y1="-0.5" x2="1934.5" y2="538.6"/>
		<line class="st2" x1="1337.1" y1="-0.5" x2="1945.9" y2="538.6"/>
		<line class="st2" x1="1348.4" y1="-0.5" x2="1957.2" y2="538.6"/>
		<line class="st2" x1="1359.7" y1="-0.5" x2="1968.6" y2="538.6"/>
		<line class="st2" x1="1371.1" y1="-0.5" x2="1979.9" y2="538.6"/>
		<line class="st2" x1="1382.4" y1="-0.5" x2="1991.2" y2="538.6"/>
		<line class="st2" x1="1393.8" y1="-0.5" x2="2002.6" y2="538.6"/>
		<line class="st2" x1="1405.1" y1="-0.5" x2="2013.9" y2="538.6"/>
		<line class="st2" x1="1416.4" y1="-0.5" x2="2025.2" y2="538.6"/>
		<line class="st2" x1="1427.8" y1="-0.5" x2="2036.6" y2="538.6"/>
		<line class="st2" x1="1439.1" y1="-0.5" x2="2047.9" y2="538.6"/>
		<line class="st2" x1="1450.5" y1="-0.5" x2="2059.3" y2="538.6"/>
		<line class="st2" x1="1461.8" y1="-0.5" x2="2070.6" y2="538.6"/>
		<line class="st2" x1="1473.1" y1="-0.5" x2="2081.9" y2="538.6"/>
		<line class="st2" x1="1484.5" y1="-0.5" x2="2093.3" y2="538.6"/>
		<line class="st2" x1="1495.8" y1="-0.5" x2="2104.6" y2="538.6"/>
		<line class="st2" x1="1507.1" y1="-0.5" x2="2116" y2="538.6"/>
		<line class="st2" x1="1518.5" y1="-0.5" x2="2127.3" y2="538.6"/>
		<line class="st2" x1="1529.8" y1="-0.5" x2="2138.6" y2="538.6"/>
		<line class="st2" x1="1541.2" y1="-0.5" x2="2150" y2="538.6"/>
		<line class="st2" x1="1552.5" y1="-0.5" x2="2161.3" y2="538.6"/>
		<line class="st2" x1="1563.8" y1="-0.5" x2="2172.7" y2="538.6"/>
		<line class="st2" x1="1575.2" y1="-0.5" x2="2184" y2="538.6"/>
		<line class="st2" x1="2183.6" y1="528.2" x2="1586.5" y2="-0.5"/>
		<line class="st2" x1="2183.6" y1="518.1" x2="1597.9" y2="-0.5"/>
		<line class="st2" x1="2183.6" y1="508.1" x2="1609.2" y2="-0.5"/>
		<line class="st2" x1="2183.6" y1="498" x2="1620.5" y2="-0.5"/>
		<line class="st2" x1="2183.6" y1="488" x2="1631.9" y2="-0.5"/>
		<line class="st2" x1="2183.6" y1="478" x2="1643.2" y2="-0.5"/>
		<line class="st2" x1="2183.6" y1="467.9" x2="1654.6" y2="-0.5"/>
		<line class="st2" x1="2183.6" y1="457.9" x2="1665.9" y2="-0.5"/>
		<line class="st2" x1="2183.6" y1="447.8" x2="1677.2" y2="-0.5"/>
		<line class="st2" x1="2183.6" y1="437.8" x2="1688.6" y2="-0.5"/>
		<line class="st2" x1="2183.6" y1="427.8" x2="1699.9" y2="-0.5"/>
		<line class="st2" x1="2183.6" y1="417.7" x2="1711.2" y2="-0.5"/>
		<line class="st2" x1="2183.6" y1="407.7" x2="1722.6" y2="-0.5"/>
		<line class="st2" x1="2183.6" y1="397.6" x2="1733.9" y2="-0.5"/>
		<line class="st2" x1="2183.6" y1="387.6" x2="1745.3" y2="-0.5"/>
		<line class="st2" x1="2183.6" y1="377.6" x2="1756.6" y2="-0.5"/>
		<line class="st2" x1="2183.6" y1="367.5" x2="1767.9" y2="-0.5"/>
		<line class="st2" x1="2183.6" y1="357.5" x2="1779.3" y2="-0.5"/>
		<line class="st2" x1="2183.6" y1="347.5" x2="1790.6" y2="-0.5"/>
		<line class="st2" x1="2183.6" y1="337.4" x2="1801.9" y2="-0.5"/>
		<line class="st2" x1="2183.6" y1="327.4" x2="1813.3" y2="-0.5"/>
		<line class="st2" x1="2183.6" y1="317.3" x2="1824.6" y2="-0.5"/>
		<line class="st2" x1="2183.6" y1="307.3" x2="1836" y2="-0.5"/>
		<line class="st2" x1="2183.6" y1="297.3" x2="1847.3" y2="-0.5"/>
		<line class="st2" x1="2183.6" y1="287.2" x2="1858.6" y2="-0.5"/>
		<line class="st2" x1="2183.6" y1="277.2" x2="1870" y2="-0.5"/>
		<line class="st2" x1="2183.6" y1="267.1" x2="1881.3" y2="-0.5"/>
		<line class="st2" x1="2183.6" y1="257.1" x2="1892.7" y2="-0.5"/>
		<line class="st2" x1="2183.6" y1="247.1" x2="1904" y2="-0.5"/>
		<line class="st2" x1="2183.6" y1="237" x2="1915.3" y2="-0.5"/>
		<line class="st2" x1="2183.6" y1="227" x2="1926.7" y2="-0.5"/>
		<line class="st2" x1="2183.6" y1="217" x2="1938" y2="-0.5"/>
		<line class="st2" x1="2183.6" y1="206.9" x2="1949.3" y2="-0.5"/>
		<line class="st2" x1="2183.6" y1="196.9" x2="1960.7" y2="-0.5"/>
		<line class="st2" x1="2183.6" y1="186.8" x2="1972" y2="-0.5"/>
		<line class="st2" x1="2183.6" y1="176.8" x2="1983.4" y2="-0.5"/>
		<line class="st2" x1="2183.6" y1="166.7" x2="1994.7" y2="-0.5"/>
		<line class="st2" x1="2183.6" y1="156.7" x2="2006" y2="-0.5"/>
		<line class="st2" x1="2183.6" y1="146.7" x2="2017.4" y2="-0.5"/>
		<line class="st2" x1="2183.6" y1="136.6" x2="2028.7" y2="-0.5"/>
		<line class="st2" x1="2183.6" y1="126.6" x2="2040.1" y2="-0.5"/>
		<line class="st2" x1="2183.6" y1="116.6" x2="2051.4" y2="-0.5"/>
		<line class="st2" x1="2183.6" y1="106.5" x2="2062.7" y2="-0.5"/>
		<line class="st2" x1="2183.6" y1="96.5" x2="2074.1" y2="-0.5"/>
		<line class="st2" x1="2183.6" y1="86.4" x2="2085.4" y2="-0.5"/>
		<line class="st2" x1="2183.6" y1="76.4" x2="2096.8" y2="-0.5"/>
		<line class="st2" x1="2183.6" y1="66.4" x2="2108.1" y2="-0.5"/>
		<line class="st2" x1="2183.6" y1="56.3" x2="2119.4" y2="-0.5"/>
		<line class="st2" x1="2183.6" y1="46.3" x2="2130.8" y2="-0.5"/>
		<line class="st2" x1="2183.6" y1="36.2" x2="2142.1" y2="-0.5"/>
		<line class="st2" x1="2183.6" y1="26.2" x2="2153.4" y2="-0.5"/>
		<line class="st2" x1="2183.6" y1="16.2" x2="2164.8" y2="-0.5"/>
		<line class="st2" x1="2183.6" y1="6.1" x2="2176.1" y2="-0.5"/>
	</g>
	<line class="st2" x1="-0.9" y1="539" x2="532" y2="-0.5"/>
	<line class="st2" x1="10.5" y1="539" x2="543.4" y2="-0.5"/>
	<line class="st2" x1="21.8" y1="539" x2="554.7" y2="-0.5"/>
	<line class="st2" x1="33.1" y1="539" x2="566" y2="-0.5"/>
	<line class="st2" x1="44.5" y1="539" x2="577.4" y2="-0.5"/>
	<line class="st2" x1="55.8" y1="539" x2="588.7" y2="-0.5"/>
	<line class="st2" x1="67.1" y1="539" x2="600.1" y2="-0.5"/>
	<line class="st2" x1="78.5" y1="539" x2="611.4" y2="-0.5"/>
	<line class="st2" x1="89.8" y1="539" x2="622.7" y2="-0.5"/>
	<line class="st2" x1="101.2" y1="539" x2="634.1" y2="-0.5"/>
	<line class="st2" x1="112.5" y1="539" x2="645.4" y2="-0.5"/>
	<line class="st2" x1="123.8" y1="539" x2="656.8" y2="-0.5"/>
	<line class="st2" x1="135.2" y1="539" x2="668.1" y2="-0.5"/>
	<line class="st2" x1="146.5" y1="539" x2="679.4" y2="-0.5"/>
	<line class="st2" x1="157.9" y1="539" x2="690.8" y2="-0.5"/>
	<line class="st2" x1="169.2" y1="539" x2="702.1" y2="-0.5"/>
	<line class="st2" x1="180.5" y1="539" x2="713.4" y2="-0.5"/>
	<line class="st2" x1="191.9" y1="539" x2="724.8" y2="-0.5"/>
	<line class="st2" x1="203.2" y1="539" x2="736.1" y2="-0.5"/>
	<line class="st2" x1="214.5" y1="539" x2="747.5" y2="-0.5"/>
	<line class="st2" x1="225.9" y1="539" x2="758.8" y2="-0.5"/>
	<line class="st2" x1="237.2" y1="539" x2="770.1" y2="-0.5"/>
	<line class="st2" x1="248.6" y1="539" x2="781.5" y2="-0.5"/>
	<line class="st2" x1="259.9" y1="539" x2="792.8" y2="-0.5"/>
	<line class="st2" x1="271.2" y1="539" x2="804.2" y2="-0.5"/>
	<line class="st2" x1="282.6" y1="539" x2="815.5" y2="-0.5"/>
	<line class="st2" x1="293.9" y1="539" x2="826.8" y2="-0.5"/>
	<line class="st2" x1="305.3" y1="539" x2="838.2" y2="-0.5"/>
	<line class="st2" x1="316.6" y1="539" x2="849.5" y2="-0.5"/>
	<line class="st2" x1="327.9" y1="539" x2="860.8" y2="-0.5"/>
	<line class="st2" x1="339.3" y1="539" x2="872.2" y2="-0.5"/>
	<line class="st2" x1="350.6" y1="539" x2="883.5" y2="-0.5"/>
	<line class="st2" x1="361.9" y1="539" x2="894.9" y2="-0.5"/>
	<line class="st2" x1="373.3" y1="539" x2="906.2" y2="-0.5"/>
	<line class="st2" x1="384.6" y1="539" x2="917.5" y2="-0.5"/>
	<line class="st2" x1="396" y1="539" x2="928.9" y2="-0.5"/>
	<line class="st2" x1="407.3" y1="539" x2="940.2" y2="-0.5"/>
	<line class="st2" x1="418.6" y1="539" x2="951.6" y2="-0.5"/>
	<line class="st2" x1="430" y1="539" x2="962.9" y2="-0.5"/>
	<line class="st2" x1="441.3" y1="539" x2="974.2" y2="-0.5"/>
	<line class="st2" x1="452.7" y1="539" x2="985.6" y2="-0.5"/>
	<line class="st2" x1="464" y1="539" x2="996.9" y2="-0.5"/>
	<line class="st2" x1="475.3" y1="539" x2="1008.2" y2="-0.5"/>
	<line class="st2" x1="486.7" y1="539" x2="1019.6" y2="-0.5"/>
	<line class="st2" x1="498" y1="539" x2="1030.9" y2="-0.5"/>
	<line class="st2" x1="509.4" y1="539" x2="1042.3" y2="-0.5"/>
	<line class="st2" x1="520.7" y1="539" x2="1053.6" y2="-0.5"/>
	<line class="st2" x1="532" y1="539" x2="1064.9" y2="-0.5"/>
	<line class="st2" x1="543.4" y1="539" x2="1076.3" y2="-0.5"/>
	<line class="st2" x1="554.7" y1="539" x2="1087.6" y2="-0.5"/>
	<line class="st2" x1="566" y1="539" x2="1099" y2="-0.5"/>
	<line class="st2" x1="577.4" y1="539" x2="1110.3" y2="-0.5"/>
	<line class="st2" x1="588.7" y1="539" x2="1121.6" y2="-0.5"/>
	<line class="st2" x1="600.1" y1="539" x2="1133" y2="-0.5"/>
	<line class="st2" x1="611.4" y1="539" x2="1144.3" y2="-0.5"/>
	<line class="st2" x1="622.7" y1="539" x2="1155.7" y2="-0.5"/>
	<line class="st2" x1="634.1" y1="539" x2="1167" y2="-0.5"/>
	<line class="st2" x1="645.4" y1="539" x2="1178.3" y2="-0.5"/>
	<line class="st2" x1="656.8" y1="539" x2="1189.7" y2="-0.5"/>
	<line class="st2" x1="668.1" y1="539" x2="1201" y2="-0.5"/>
	<line class="st2" x1="679.4" y1="539" x2="1212.3" y2="-0.5"/>
	<line class="st2" x1="690.8" y1="539" x2="1223.7" y2="-0.5"/>
	<line class="st2" x1="702.1" y1="539" x2="1235" y2="-0.5"/>
	<line class="st2" x1="713.4" y1="539" x2="1246.4" y2="-0.5"/>
	<line class="st2" x1="724.8" y1="539" x2="1257.7" y2="-0.5"/>
	<line class="st2" x1="736.1" y1="539" x2="1269" y2="-0.5"/>
	<line class="st2" x1="747.5" y1="539" x2="1280.4" y2="-0.5"/>
	<line class="st2" x1="758.8" y1="539" x2="1291.7" y2="-0.5"/>
	<line class="st2" x1="770.1" y1="539" x2="1303.1" y2="-0.5"/>
	<line class="st2" x1="781.5" y1="539" x2="1314.4" y2="-0.5"/>
	<line class="st2" x1="792.8" y1="539" x2="1325.7" y2="-0.5"/>
	<line class="st2" x1="804.2" y1="539" x2="1337.1" y2="-0.5"/>
	<line class="st2" x1="815.5" y1="539" x2="1348.4" y2="-0.5"/>
	<line class="st2" x1="826.8" y1="539" x2="1359.7" y2="-0.5"/>
	<line class="st2" x1="838.2" y1="539" x2="1371.1" y2="-0.5"/>
	<line class="st2" x1="849.5" y1="539" x2="1382.4" y2="-0.5"/>
	<line class="st2" x1="860.8" y1="539" x2="1393.8" y2="-0.5"/>
	<line class="st2" x1="872.2" y1="539" x2="1405.1" y2="-0.5"/>
	<line class="st2" x1="883.5" y1="539" x2="1416.4" y2="-0.5"/>
	<line class="st2" x1="894.9" y1="539" x2="1427.8" y2="-0.5"/>
	<line class="st2" x1="906.2" y1="539" x2="1439.1" y2="-0.5"/>
	<line class="st2" x1="917.5" y1="539" x2="1450.5" y2="-0.5"/>
	<line class="st2" x1="928.9" y1="539" x2="1461.8" y2="-0.5"/>
	<line class="st2" x1="940.2" y1="539" x2="1473.1" y2="-0.5"/>
	<line class="st2" x1="951.6" y1="539" x2="1484.5" y2="-0.5"/>
	<line class="st2" x1="962.9" y1="539" x2="1495.8" y2="-0.5"/>
	<line class="st2" x1="974.2" y1="539" x2="1507.1" y2="-0.5"/>
	<line class="st2" x1="985.6" y1="539" x2="1518.5" y2="-0.5"/>
	<line class="st2" x1="996.9" y1="539" x2="1529.8" y2="-0.5"/>
	<line class="st2" x1="1008.2" y1="539" x2="1541.2" y2="-0.5"/>
	<line class="st2" x1="1019.6" y1="539" x2="1552.5" y2="-0.5"/>
	<line class="st2" x1="1030.9" y1="539" x2="1563.8" y2="-0.5"/>
	<line class="st2" x1="1042.3" y1="539" x2="1575.2" y2="-0.5"/>
	<line class="st2" x1="1053.6" y1="539" x2="1586.5" y2="-0.5"/>
	<line class="st2" x1="1064.9" y1="539" x2="1597.9" y2="-0.5"/>
	<line class="st2" x1="1076.3" y1="539" x2="1609.2" y2="-0.5"/>
	<line class="st2" x1="1087.6" y1="539" x2="1620.5" y2="-0.5"/>
	<line class="st2" x1="1099" y1="539" x2="1631.9" y2="-0.5"/>
	<line class="st2" x1="1110.3" y1="539" x2="1643.2" y2="-0.5"/>
	<line class="st2" x1="1121.6" y1="539" x2="1654.5" y2="-0.5"/>
	<line class="st2" x1="1133" y1="539" x2="1665.9" y2="-0.5"/>
	<line class="st2" x1="1144.3" y1="539" x2="1677.2" y2="-0.5"/>
	<line class="st2" x1="1155.7" y1="539" x2="1688.6" y2="-0.5"/>
	<line class="st2" x1="1167" y1="539" x2="1699.9" y2="-0.5"/>
	<line class="st2" x1="1178.3" y1="539" x2="1711.2" y2="-0.5"/>
	<line class="st2" x1="1189.7" y1="539" x2="1722.6" y2="-0.5"/>
	<line class="st2" x1="1201" y1="539" x2="1733.9" y2="-0.5"/>
	<line class="st2" x1="1212.3" y1="539" x2="1745.3" y2="-0.5"/>
	<line class="st2" x1="1223.7" y1="539" x2="1756.6" y2="-0.5"/>
	<line class="st2" x1="1235" y1="539" x2="1767.9" y2="-0.5"/>
	<line class="st2" x1="1246.4" y1="539" x2="1779.3" y2="-0.5"/>
	<line class="st2" x1="1257.7" y1="539" x2="1790.6" y2="-0.5"/>
	<line class="st2" x1="1269" y1="539" x2="1801.9" y2="-0.5"/>
	<line class="st2" x1="1280.4" y1="539" x2="1813.3" y2="-0.5"/>
	<line class="st2" x1="1291.7" y1="539" x2="1824.6" y2="-0.5"/>
	<line class="st2" x1="1303.1" y1="539" x2="1836" y2="-0.5"/>
	<line class="st2" x1="1314.4" y1="539" x2="1847.3" y2="-0.5"/>
	<line class="st2" x1="1325.7" y1="539" x2="1858.6" y2="-0.5"/>
	<line class="st2" x1="1337.1" y1="539" x2="1870" y2="-0.5"/>
	<line class="st2" x1="1348.4" y1="539" x2="1881.3" y2="-0.5"/>
	<line class="st2" x1="1359.7" y1="539" x2="1892.7" y2="-0.5"/>
	<line class="st2" x1="1371.1" y1="539" x2="1904" y2="-0.5"/>
	<line class="st2" x1="1382.4" y1="539" x2="1915.3" y2="-0.5"/>
	<line class="st2" x1="1393.8" y1="539" x2="1926.7" y2="-0.5"/>
	<line class="st2" x1="1405.1" y1="539" x2="1938" y2="-0.5"/>
	<line class="st2" x1="1416.4" y1="539" x2="1949.4" y2="-0.5"/>
	<line class="st2" x1="1427.8" y1="539" x2="1960.7" y2="-0.5"/>
	<line class="st2" x1="1439.1" y1="539" x2="1972" y2="-0.5"/>
	<line class="st2" x1="1450.5" y1="539" x2="1983.4" y2="-0.5"/>
	<line class="st2" x1="1461.8" y1="539" x2="1994.7" y2="-0.5"/>
	<line class="st2" x1="1473.1" y1="539" x2="2006" y2="-0.5"/>
	<line class="st2" x1="1484.5" y1="539" x2="2017.4" y2="-0.5"/>
	<line class="st2" x1="1495.8" y1="539" x2="2028.7" y2="-0.5"/>
	<line class="st2" x1="1507.1" y1="539" x2="2040.1" y2="-0.5"/>
	<line class="st2" x1="1518.5" y1="539" x2="2051.4" y2="-0.5"/>
	<line class="st2" x1="1529.8" y1="539" x2="2062.7" y2="-0.5"/>
	<line class="st2" x1="1541.2" y1="539" x2="2074.1" y2="-0.5"/>
	<line class="st2" x1="1552.5" y1="539" x2="2085.4" y2="-0.5"/>
	<line class="st2" x1="1563.8" y1="539" x2="2096.8" y2="-0.5"/>
	<line class="st2" x1="1575.2" y1="539" x2="2108.1" y2="-0.5"/>
	<line class="st2" x1="1586.5" y1="539" x2="2119.4" y2="-0.5"/>
	<line class="st2" x1="1597.9" y1="539" x2="2130.8" y2="-0.5"/>
	<line class="st2" x1="1609.2" y1="539" x2="2142.1" y2="-0.5"/>
	<line class="st2" x1="1620.5" y1="539" x2="2153.4" y2="-0.5"/>
	<line class="st2" x1="1631.9" y1="539" x2="2164.8" y2="-0.5"/>
	<line class="st2" x1="1643.2" y1="539" x2="2176.1" y2="-0.5"/>
	<polyline class="st2" points="2182.2,4.9 2176.9,10.3 2171.6,15.6 2166.3,21 2161,26.3 2155.7,31.7 2150.4,37 2145.1,42.4 
		2139.9,47.7 2134.6,53.1 2129.3,58.5 2124,63.8 2118.7,69.2 2113.4,74.5 2108.1,79.9 2102.8,85.2 2097.5,90.6 2092.2,95.9 
		2086.9,101.3 2081.7,106.7 2076.4,112 2071.1,117.4 2065.8,122.7 2060.5,128.1 2055.2,133.4 2049.9,138.8 2044.6,144.1 
		2039.3,149.5 2034.1,154.9 2028.8,160.2 2023.5,165.6 2018.2,170.9 2012.9,176.3 2007.6,181.6 2002.3,187 1997,192.3 1991.7,197.7 
		1986.4,203 1981.2,208.4 1975.9,213.8 1970.6,219.1 1965.3,224.5 1960,229.8 1954.7,235.2 1949.4,240.5 1944.1,245.9 1938.8,251.2 
		1933.5,256.6 1928.3,262 1923,267.3 1917.7,272.7 1912.4,278 1907.1,283.4 1901.8,288.7 1896.5,294.1 1891.2,299.4 1885.9,304.8 
		1880.6,310.2 1875.3,315.5 1870.1,320.9 1864.8,326.2 1859.5,331.6 1854.2,336.9 1848.9,342.3 1843.6,347.6 1838.3,353 1833,358.3 
		1827.7,363.7 1822.4,369.1 1817.2,374.4 1811.9,379.8 1806.6,385.1 1801.3,390.5 1796,395.8 1790.7,401.2 1785.4,406.5 
		1780.1,411.9 1774.8,417.3 1769.6,422.6 1764.3,428 1759,433.3 1753.7,438.7 1748.4,444 1743.1,449.4 1737.8,454.7 1732.5,460.1 
		1727.2,465.5 1721.9,470.8 1716.7,476.2 1711.4,481.5 1706.1,486.9 1700.8,492.2 1695.5,497.6 1690.2,502.9 1684.9,508.3 
		1679.6,513.7 1674.3,519 1669,524.4 1663.8,529.7 1658.5,535.1 1654.6,539 	"/>
	<polyline class="st2" points="2182.9,15.6 2177.6,21 2172.4,26.3 2167.1,31.7 2161.8,37 2156.5,42.4 2151.2,47.7 2145.9,53.1 
		2140.6,58.5 2135.3,63.8 2130,69.2 2124.7,74.5 2119.4,79.9 2114.2,85.2 2108.9,90.6 2103.6,95.9 2098.3,101.3 2093,106.7 
		2087.7,112 2082.4,117.4 2077.1,122.7 2071.8,128.1 2066.6,133.4 2061.3,138.8 2056,144.1 2050.7,149.5 2045.4,154.9 2040.1,160.2 
		2034.8,165.6 2029.5,170.9 2024.2,176.3 2018.9,181.6 2013.7,187 2008.4,192.3 2003.1,197.7 1997.8,203 1992.5,208.4 1987.2,213.8 
		1981.9,219.1 1976.6,224.5 1971.3,229.8 1966,235.2 1960.8,240.5 1955.5,245.9 1950.2,251.2 1944.9,256.6 1939.6,262 1934.3,267.3 
		1929,272.7 1923.7,278 1918.4,283.4 1913.1,288.7 1907.8,294.1 1902.6,299.4 1897.3,304.8 1892,310.2 1886.7,315.5 1881.4,320.9 
		1876.1,326.2 1870.8,331.6 1865.5,336.9 1860.2,342.3 1854.9,347.6 1849.7,353 1844.4,358.4 1839.1,363.7 1833.8,369.1 
		1828.5,374.4 1823.2,379.8 1817.9,385.1 1812.6,390.5 1807.3,395.8 1802.1,401.2 1796.8,406.5 1791.5,411.9 1786.2,417.3 
		1780.9,422.6 1775.6,428 1770.3,433.3 1765,438.7 1759.7,444 1754.4,449.4 1749.2,454.7 1743.9,460.1 1738.6,465.5 1733.3,470.8 
		1728,476.2 1722.7,481.5 1717.4,486.9 1712.1,492.2 1706.8,497.6 1701.5,502.9 1696.3,508.3 1691,513.7 1685.7,519 1680.4,524.4 
		1675.1,529.7 1669.8,535.1 1665.9,539 	"/>
	<polyline class="st2" points="2178.4,31.7 2173.1,37 2167.8,42.4 2162.5,47.7 2157.2,53.1 2151.9,58.5 2146.7,63.8 2141.4,69.2 
		2136.1,74.5 2130.8,79.9 2125.5,85.2 2120.2,90.6 2114.9,95.9 2109.6,101.3 2104.3,106.6 2099.1,112 2093.8,117.4 2088.5,122.7 
		2083.2,128.1 2077.9,133.4 2072.6,138.8 2067.3,144.1 2062,149.5 2056.7,154.9 2051.4,160.2 2046.2,165.6 2040.9,170.9 
		2035.6,176.3 2030.3,181.6 2025,187 2019.7,192.3 2014.4,197.7 2009.1,203 2003.8,208.4 1998.5,213.8 1993.3,219.1 1988,224.5 
		1982.7,229.8 1977.4,235.2 1972.1,240.5 1966.8,245.9 1961.5,251.2 1956.2,256.6 1950.9,262 1945.6,267.3 1940.3,272.7 1935.1,278 
		1929.8,283.4 1924.5,288.7 1919.2,294.1 1913.9,299.4 1908.6,304.8 1903.3,310.2 1898,315.5 1892.7,320.9 1887.4,326.2 
		1882.2,331.6 1876.9,336.9 1871.6,342.3 1866.3,347.6 1861,353 1855.7,358.4 1850.4,363.7 1845.1,369.1 1839.8,374.4 1834.6,379.8 
		1829.3,385.1 1824,390.5 1818.7,395.8 1813.4,401.2 1808.1,406.5 1802.8,411.9 1797.5,417.3 1792.2,422.6 1786.9,428 1781.7,433.3 
		1776.4,438.7 1771.1,444 1765.8,449.4 1760.5,454.7 1755.2,460.1 1749.9,465.5 1744.6,470.8 1739.3,476.2 1734,481.5 1728.8,486.9 
		1723.5,492.2 1718.2,497.6 1712.9,502.9 1707.6,508.3 1702.3,513.7 1697,519 1691.7,524.4 1686.4,529.7 1681.1,535.1 1677.2,539 	
		"/>
	<polyline class="st2" points="2179.2,42.4 2173.9,47.7 2168.6,53.1 2163.3,58.5 2158,63.8 2152.7,69.2 2147.4,74.5 2142.1,79.9 
		2136.8,85.2 2131.6,90.6 2126.3,95.9 2121,101.3 2115.7,106.6 2110.4,112 2105.1,117.4 2099.8,122.7 2094.5,128.1 2089.2,133.4 
		2083.9,138.8 2078.6,144.1 2073.4,149.5 2068.1,154.8 2062.8,160.2 2057.5,165.6 2052.2,170.9 2046.9,176.3 2041.6,181.6 
		2036.3,187 2031,192.3 2025.8,197.7 2020.5,203 2015.2,208.4 2009.9,213.8 2004.6,219.1 1999.3,224.5 1994,229.8 1988.7,235.2 
		1983.4,240.5 1978.1,245.9 1972.8,251.2 1967.6,256.6 1962.3,262 1957,267.3 1951.7,272.7 1946.4,278 1941.1,283.4 1935.8,288.7 
		1930.5,294.1 1925.2,299.4 1919.9,304.8 1914.7,310.2 1909.4,315.5 1904.1,320.9 1898.8,326.2 1893.5,331.6 1888.2,336.9 
		1882.9,342.3 1877.6,347.6 1872.3,353 1867,358.4 1861.8,363.7 1856.5,369.1 1851.2,374.4 1845.9,379.8 1840.6,385.1 1835.3,390.5 
		1830,395.8 1824.7,401.2 1819.4,406.5 1814.2,411.9 1808.9,417.3 1803.6,422.6 1798.3,428 1793,433.3 1787.7,438.7 1782.4,444 
		1777.1,449.4 1771.8,454.7 1766.5,460.1 1761.2,465.5 1755.9,470.8 1750.7,476.2 1745.4,481.5 1740.1,486.9 1734.8,492.2 
		1729.5,497.6 1724.2,502.9 1718.9,508.3 1713.6,513.7 1708.3,519 1703.1,524.4 1697.8,529.7 1692.5,535.1 1688.6,539 	"/>
	<polyline class="st2" points="2179.9,53.1 2174.6,58.5 2169.3,63.8 2164.1,69.2 2158.8,74.5 2153.5,79.9 2148.2,85.2 2142.9,90.6 
		2137.6,95.9 2132.3,101.3 2127,106.7 2121.7,112 2116.4,117.4 2111.1,122.7 2105.9,128.1 2100.6,133.4 2095.3,138.8 2090,144.1 
		2084.7,149.5 2079.4,154.8 2074.1,160.2 2068.8,165.6 2063.5,170.9 2058.2,176.3 2053,181.6 2047.7,187 2042.4,192.3 2037.1,197.7 
		2031.8,203 2026.5,208.4 2021.2,213.8 2015.9,219.1 2010.6,224.5 2005.3,229.8 2000.1,235.2 1994.8,240.5 1989.5,245.9 
		1984.2,251.2 1978.9,256.6 1973.6,262 1968.3,267.3 1963,272.7 1957.7,278 1952.4,283.4 1947.2,288.7 1941.9,294.1 1936.6,299.4 
		1931.3,304.8 1926,310.2 1920.7,315.5 1915.4,320.9 1910.1,326.2 1904.8,331.6 1899.6,336.9 1894.3,342.3 1889,347.6 1883.7,353 
		1878.4,358.4 1873.1,363.7 1867.8,369.1 1862.5,374.4 1857.2,379.8 1851.9,385.1 1846.6,390.5 1841.3,395.8 1836.1,401.2 
		1830.8,406.5 1825.5,411.9 1820.2,417.3 1814.9,422.6 1809.6,428 1804.3,433.3 1799,438.7 1793.7,444 1788.5,449.4 1783.2,454.7 
		1777.9,460.1 1772.6,465.5 1767.3,470.8 1762,476.2 1756.7,481.5 1751.4,486.9 1746.1,492.2 1740.8,497.6 1735.6,502.9 
		1730.3,508.3 1725,513.7 1719.7,519 1714.4,524.4 1709.1,529.7 1703.8,535.1 1699.9,539 	"/>
	<polyline class="st2" points="2180.7,63.8 2175.4,69.2 2170.1,74.5 2164.8,79.9 2159.5,85.2 2154.2,90.6 2148.9,95.9 2143.6,101.3 
		2138.4,106.6 2133.1,112 2127.8,117.4 2122.5,122.7 2117.2,128.1 2111.9,133.4 2106.6,138.8 2101.3,144.1 2096,149.5 2090.7,154.8 
		2085.4,160.2 2080.2,165.6 2074.9,170.9 2069.6,176.3 2064.3,181.6 2059,187 2053.7,192.3 2048.4,197.7 2043.1,203 2037.8,208.4 
		2032.6,213.8 2027.3,219.1 2022,224.5 2016.7,229.8 2011.4,235.2 2006.1,240.5 2000.8,245.9 1995.5,251.2 1990.2,256.6 1984.9,262 
		1979.7,267.3 1974.4,272.7 1969.1,278 1963.8,283.4 1958.5,288.7 1953.2,294.1 1947.9,299.4 1942.6,304.8 1937.3,310.1 1932,315.5 
		1926.8,320.9 1921.5,326.2 1916.2,331.6 1910.9,336.9 1905.6,342.3 1900.3,347.6 1895,353 1889.7,358.3 1884.4,363.7 1879.1,369.1 
		1873.8,374.4 1868.6,379.8 1863.3,385.1 1858,390.5 1852.7,395.8 1847.4,401.2 1842.1,406.5 1836.8,411.9 1831.5,417.3 
		1826.2,422.6 1820.9,428 1815.7,433.3 1810.4,438.7 1805.1,444 1799.8,449.4 1794.5,454.7 1789.2,460.1 1783.9,465.5 1778.6,470.8 
		1773.3,476.2 1768.1,481.5 1762.8,486.9 1757.5,492.2 1752.2,497.6 1746.9,502.9 1741.6,508.3 1736.3,513.7 1731,519 1725.7,524.4 
		1720.4,529.7 1715.2,535.1 1711.2,539 	"/>
	<polyline class="st2" points="2181.4,74.5 2176.1,79.9 2170.9,85.2 2165.6,90.6 2160.3,95.9 2155,101.3 2149.7,106.6 2144.4,112 
		2139.1,117.4 2133.8,122.7 2128.5,128.1 2123.2,133.4 2117.9,138.8 2112.7,144.1 2107.4,149.5 2102.1,154.8 2096.8,160.2 
		2091.5,165.6 2086.2,170.9 2080.9,176.3 2075.6,181.6 2070.3,187 2065.1,192.3 2059.8,197.7 2054.5,203 2049.2,208.4 2043.9,213.8 
		2038.6,219.1 2033.3,224.5 2028,229.8 2022.7,235.2 2017.4,240.5 2012.2,245.9 2006.9,251.2 2001.6,256.6 1996.3,262 1991,267.3 
		1985.7,272.7 1980.4,278 1975.1,283.4 1969.8,288.7 1964.5,294.1 1959.3,299.4 1954,304.8 1948.7,310.1 1943.4,315.5 1938.1,320.9 
		1932.8,326.2 1927.5,331.6 1922.2,336.9 1916.9,342.3 1911.6,347.6 1906.3,353 1901.1,358.3 1895.8,363.7 1890.5,369.1 
		1885.2,374.4 1879.9,379.8 1874.6,385.1 1869.3,390.5 1864,395.8 1858.7,401.2 1853.4,406.5 1848.2,411.9 1842.9,417.3 
		1837.6,422.6 1832.3,428 1827,433.3 1821.7,438.7 1816.4,444 1811.1,449.4 1805.8,454.7 1800.6,460.1 1795.3,465.5 1790,470.8 
		1784.7,476.2 1779.4,481.5 1774.1,486.9 1768.8,492.2 1763.5,497.6 1758.2,502.9 1752.9,508.3 1747.7,513.7 1742.4,519 
		1737.1,524.4 1731.8,529.7 1726.5,535.1 1722.6,539 	"/>
	<polyline class="st2" points="2182.2,85.2 2176.9,90.6 2171.6,95.9 2166.3,101.3 2161,106.6 2155.7,112 2150.4,117.4 2145.2,122.7 
		2139.9,128.1 2134.6,133.4 2129.3,138.8 2124,144.1 2118.7,149.5 2113.4,154.9 2108.1,160.2 2102.8,165.6 2097.6,170.9 
		2092.3,176.3 2087,181.6 2081.7,187 2076.4,192.3 2071.1,197.7 2065.8,203 2060.5,208.4 2055.2,213.8 2049.9,219.1 2044.7,224.5 
		2039.4,229.8 2034.1,235.2 2028.8,240.5 2023.5,245.9 2018.2,251.2 2012.9,256.6 2007.6,262 2002.3,267.3 1997,272.7 1991.8,278 
		1986.5,283.4 1981.2,288.7 1975.9,294.1 1970.6,299.4 1965.3,304.8 1960,310.2 1954.7,315.5 1949.4,320.9 1944.1,326.2 
		1938.8,331.6 1933.6,336.9 1928.3,342.3 1923,347.6 1917.7,353 1912.4,358.3 1907.1,363.7 1901.8,369.1 1896.5,374.4 1891.2,379.8 
		1885.9,385.1 1880.7,390.5 1875.4,395.8 1870.1,401.2 1864.8,406.5 1859.5,411.9 1854.2,417.3 1848.9,422.6 1843.6,428 
		1838.3,433.3 1833.1,438.7 1827.8,444 1822.5,449.4 1817.2,454.7 1811.9,460.1 1806.6,465.5 1801.3,470.8 1796,476.2 1790.7,481.5 
		1785.4,486.9 1780.2,492.2 1774.9,497.6 1769.6,502.9 1764.3,508.3 1759,513.7 1753.7,519 1748.4,524.4 1743.1,529.7 1737.8,535.1 
		1733.9,539 	"/>
	<polyline class="st2" points="2182.9,95.9 2177.7,101.3 2172.4,106.6 2167.1,112 2161.8,117.4 2156.5,122.7 2151.2,128.1 
		2145.9,133.4 2140.6,138.8 2135.3,144.1 2130.1,149.5 2124.8,154.9 2119.5,160.2 2114.2,165.6 2108.9,170.9 2103.6,176.3 
		2098.3,181.6 2093,187 2087.7,192.3 2082.4,197.7 2077.1,203 2071.9,208.4 2066.6,213.8 2061.3,219.1 2056,224.5 2050.7,229.8 
		2045.4,235.2 2040.1,240.5 2034.8,245.9 2029.5,251.2 2024.3,256.6 2019,262 2013.7,267.3 2008.4,272.7 2003.1,278 1997.8,283.4 
		1992.5,288.7 1987.2,294.1 1981.9,299.4 1976.6,304.8 1971.3,310.2 1966.1,315.5 1960.8,320.9 1955.5,326.2 1950.2,331.6 
		1944.9,336.9 1939.6,342.3 1934.3,347.6 1929,353 1923.7,358.3 1918.4,363.7 1913.2,369.1 1907.9,374.4 1902.6,379.8 1897.3,385.1 
		1892,390.5 1886.7,395.8 1881.4,401.2 1876.1,406.5 1870.8,411.9 1865.6,417.3 1860.3,422.6 1855,428 1849.7,433.3 1844.4,438.7 
		1839.1,444 1833.8,449.4 1828.5,454.7 1823.2,460.1 1817.9,465.5 1812.7,470.8 1807.4,476.2 1802.1,481.5 1796.8,486.9 
		1791.5,492.2 1786.2,497.6 1780.9,502.9 1775.6,508.3 1770.3,513.7 1765,519 1759.8,524.4 1754.5,529.7 1749.2,535.1 1745.3,539 	
		"/>
	<polyline class="st2" points="2178.4,112 2173.1,117.4 2167.8,122.7 2162.6,128.1 2157.3,133.4 2152,138.8 2146.7,144.1 
		2141.4,149.5 2136.1,154.9 2130.8,160.2 2125.5,165.6 2120.2,170.9 2114.9,176.3 2109.6,181.6 2104.4,187 2099.1,192.3 
		2093.8,197.7 2088.5,203 2083.2,208.4 2077.9,213.8 2072.6,219.1 2067.3,224.5 2062,229.8 2056.8,235.2 2051.5,240.5 2046.2,245.9 
		2040.9,251.2 2035.6,256.6 2030.3,262 2025,267.3 2019.7,272.7 2014.4,278 2009.1,283.4 2003.8,288.7 1998.6,294.1 1993.3,299.4 
		1988,304.8 1982.7,310.2 1977.4,315.5 1972.1,320.9 1966.8,326.2 1961.5,331.6 1956.2,336.9 1950.9,342.3 1945.7,347.6 1940.4,353 
		1935.1,358.4 1929.8,363.7 1924.5,369.1 1919.2,374.4 1913.9,379.8 1908.6,385.1 1903.3,390.5 1898.1,395.8 1892.8,401.2 
		1887.5,406.5 1882.2,411.9 1876.9,417.3 1871.6,422.6 1866.3,428 1861,433.3 1855.7,438.7 1850.4,444 1845.2,449.4 1839.9,454.7 
		1834.6,460.1 1829.3,465.5 1824,470.8 1818.7,476.2 1813.4,481.5 1808.1,486.9 1802.8,492.2 1797.5,497.6 1792.3,502.9 1787,508.3 
		1781.7,513.7 1776.4,519 1771.1,524.4 1765.8,529.7 1760.5,535.1 1756.6,539 	"/>
	<polyline class="st2" points="2179.2,122.7 2173.9,128.1 2168.6,133.4 2163.3,138.8 2158,144.1 2152.7,149.5 2147.4,154.9 
		2142.1,160.2 2136.9,165.6 2131.6,170.9 2126.3,176.3 2121,181.6 2115.7,187 2110.4,192.3 2105.1,197.7 2099.8,203 2094.5,208.4 
		2089.3,213.8 2084,219.1 2078.7,224.5 2073.4,229.8 2068.1,235.2 2062.8,240.5 2057.5,245.9 2052.2,251.2 2046.9,256.6 2041.6,262 
		2036.3,267.3 2031.1,272.7 2025.8,278 2020.5,283.4 2015.2,288.7 2009.9,294.1 2004.6,299.4 1999.3,304.8 1994,310.2 1988.7,315.5 
		1983.4,320.9 1978.2,326.2 1972.9,331.6 1967.6,336.9 1962.3,342.3 1957,347.6 1951.7,353 1946.4,358.4 1941.1,363.7 1935.8,369.1 
		1930.6,374.4 1925.3,379.8 1920,385.1 1914.7,390.5 1909.4,395.8 1904.1,401.2 1898.8,406.5 1893.5,411.9 1888.2,417.3 
		1882.9,422.6 1877.6,428 1872.3,433.3 1867.1,438.7 1861.8,444 1856.5,449.4 1851.2,454.7 1845.9,460.1 1840.6,465.5 1835.3,470.8 
		1830,476.2 1824.8,481.5 1819.5,486.9 1814.2,492.2 1808.9,497.6 1803.6,502.9 1798.3,508.3 1793,513.7 1787.7,519 1782.4,524.4 
		1777.1,529.7 1771.8,535.1 1767.9,539 	"/>
	<polyline class="st2" points="2179.9,133.4 2174.6,138.8 2169.4,144.1 2164.1,149.5 2158.8,154.8 2153.5,160.2 2148.2,165.6 
		2142.9,170.9 2137.6,176.3 2132.3,181.6 2127,187 2121.8,192.3 2116.5,197.7 2111.2,203 2105.9,208.4 2100.6,213.8 2095.3,219.1 
		2090,224.5 2084.7,229.8 2079.4,235.2 2074.1,240.5 2068.9,245.9 2063.6,251.2 2058.3,256.6 2053,262 2047.7,267.3 2042.4,272.7 
		2037.1,278 2031.8,283.4 2026.5,288.7 2021.2,294.1 2015.9,299.4 2010.7,304.8 2005.4,310.2 2000.1,315.5 1994.8,320.9 
		1989.5,326.2 1984.2,331.6 1978.9,336.9 1973.6,342.3 1968.3,347.6 1963.1,353 1957.8,358.4 1952.5,363.7 1947.2,369.1 
		1941.9,374.4 1936.6,379.8 1931.3,385.1 1926,390.5 1920.7,395.8 1915.4,401.2 1910.1,406.5 1904.9,411.9 1899.6,417.3 
		1894.3,422.6 1889,428 1883.7,433.3 1878.4,438.7 1873.1,444 1867.8,449.4 1862.5,454.7 1857.2,460.1 1851.9,465.5 1846.7,470.8 
		1841.4,476.2 1836.1,481.5 1830.8,486.9 1825.5,492.2 1820.2,497.6 1814.9,502.9 1809.6,508.3 1804.3,513.7 1799.1,519 
		1793.8,524.4 1788.5,529.7 1783.2,535.1 1779.3,539 	"/>
	<polyline class="st2" points="2180.7,144.1 2175.4,149.5 2170.1,154.8 2164.8,160.2 2159.5,165.6 2154.2,170.9 2148.9,176.3 
		2143.7,181.6 2138.4,187 2133.1,192.3 2127.8,197.7 2122.5,203 2117.2,208.4 2111.9,213.8 2106.6,219.1 2101.3,224.5 2096.1,229.8 
		2090.8,235.2 2085.5,240.5 2080.2,245.9 2074.9,251.2 2069.6,256.6 2064.3,262 2059,267.3 2053.7,272.7 2048.4,278 2043.2,283.4 
		2037.9,288.7 2032.6,294.1 2027.3,299.4 2022,304.8 2016.7,310.2 2011.4,315.5 2006.1,320.9 2000.8,326.2 1995.5,331.6 
		1990.3,336.9 1985,342.3 1979.7,347.6 1974.4,353 1969.1,358.3 1963.8,363.7 1958.5,369.1 1953.2,374.4 1947.9,379.8 1942.6,385.1 
		1937.3,390.5 1932.1,395.8 1926.8,401.2 1921.5,406.5 1916.2,411.9 1910.9,417.3 1905.6,422.6 1900.3,428 1895,433.3 1889.7,438.7 
		1884.4,444 1879.2,449.4 1873.9,454.7 1868.6,460.1 1863.3,465.5 1858,470.8 1852.7,476.2 1847.4,481.5 1842.1,486.9 1836.8,492.2 
		1831.6,497.6 1826.3,502.9 1821,508.3 1815.7,513.7 1810.4,519 1805.1,524.4 1799.8,529.7 1794.5,535.1 1790.6,539 	"/>
	<polyline class="st2" points="2181.4,154.8 2176.2,160.2 2170.9,165.6 2165.6,170.9 2160.3,176.3 2155,181.6 2149.7,187 
		2144.4,192.3 2139.1,197.7 2133.8,203 2128.6,208.4 2123.3,213.8 2118,219.1 2112.7,224.5 2107.4,229.8 2102.1,235.2 2096.8,240.5 
		2091.5,245.9 2086.2,251.2 2080.9,256.6 2075.6,262 2070.4,267.3 2065.1,272.7 2059.8,278 2054.5,283.4 2049.2,288.7 2043.9,294.1 
		2038.6,299.4 2033.3,304.8 2028,310.2 2022.8,315.5 2017.5,320.9 2012.2,326.2 2006.9,331.6 2001.6,336.9 1996.3,342.3 1991,347.6 
		1985.7,353 1980.4,358.3 1975.1,363.7 1969.8,369.1 1964.6,374.4 1959.3,379.8 1954,385.1 1948.7,390.5 1943.4,395.8 1938.1,401.2 
		1932.8,406.5 1927.5,411.9 1922.2,417.3 1916.9,422.6 1911.7,428 1906.4,433.3 1901.1,438.7 1895.8,444 1890.5,449.4 1885.2,454.7 
		1879.9,460.1 1874.6,465.5 1869.3,470.8 1864.1,476.2 1858.8,481.5 1853.5,486.9 1848.2,492.2 1842.9,497.6 1837.6,502.9 
		1832.3,508.3 1827,513.7 1821.7,519 1816.4,524.4 1811.2,529.7 1805.9,535.1 1801.9,539 	"/>
	<polyline class="st2" points="2182.2,165.6 2176.9,170.9 2171.6,176.3 2166.3,181.6 2161.1,187 2155.8,192.3 2150.5,197.7 
		2145.2,203 2139.9,208.4 2134.6,213.8 2129.3,219.1 2124,224.5 2118.7,229.8 2113.4,235.2 2108.1,240.5 2102.9,245.9 2097.6,251.2 
		2092.3,256.6 2087,262 2081.7,267.3 2076.4,272.7 2071.1,278 2065.8,283.4 2060.5,288.7 2055.3,294.1 2050,299.4 2044.7,304.8 
		2039.4,310.2 2034.1,315.5 2028.8,320.9 2023.5,326.2 2018.2,331.6 2012.9,336.9 2007.6,342.3 2002.3,347.6 1997.1,353 
		1991.8,358.3 1986.5,363.7 1981.2,369.1 1975.9,374.4 1970.6,379.8 1965.3,385.1 1960,390.5 1954.7,395.8 1949.4,401.2 
		1944.2,406.5 1938.9,411.9 1933.6,417.3 1928.3,422.6 1923,428 1917.7,433.3 1912.4,438.7 1907.1,444 1901.8,449.4 1896.6,454.7 
		1891.3,460.1 1886,465.5 1880.7,470.8 1875.4,476.2 1870.1,481.5 1864.8,486.9 1859.5,492.2 1854.2,497.6 1848.9,502.9 
		1843.7,508.3 1838.4,513.7 1833.1,519 1827.8,524.4 1822.5,529.7 1817.2,535.1 1813.3,539 	"/>
	<polyline class="st2" points="2183,176.3 2177.7,181.6 2172.4,187 2167.1,192.3 2161.8,197.7 2156.5,203 2151.2,208.4 
		2145.9,213.8 2140.6,219.1 2135.4,224.5 2130.1,229.8 2124.8,235.2 2119.5,240.5 2114.2,245.9 2108.9,251.2 2103.6,256.6 
		2098.3,262 2093,267.3 2087.8,272.7 2082.5,278 2077.2,283.4 2071.9,288.7 2066.6,294.1 2061.3,299.4 2056,304.8 2050.7,310.2 
		2045.4,315.5 2040.1,320.9 2034.8,326.2 2029.6,331.6 2024.3,336.9 2019,342.3 2013.7,347.6 2008.4,353 2003.1,358.3 1997.8,363.7 
		1992.5,369.1 1987.2,374.4 1981.9,379.8 1976.7,385.1 1971.4,390.5 1966.1,395.8 1960.8,401.2 1955.5,406.5 1950.2,411.9 
		1944.9,417.3 1939.6,422.6 1934.3,428 1929.1,433.3 1923.8,438.7 1918.5,444 1913.2,449.4 1907.9,454.7 1902.6,460.1 1897.3,465.5 
		1892,470.8 1886.7,476.2 1881.4,481.5 1876.2,486.9 1870.9,492.2 1865.6,497.6 1860.3,502.9 1855,508.3 1849.7,513.7 1844.4,519 
		1839.1,524.4 1833.8,529.7 1828.5,535.1 1824.6,539 	"/>
	<polyline class="st2" points="2178.4,192.3 2173.1,197.7 2167.9,203.1 2162.6,208.4 2157.3,213.8 2152,219.1 2146.7,224.5 
		2141.4,229.8 2136.1,235.2 2130.8,240.5 2125.5,245.9 2120.3,251.2 2115,256.6 2109.7,262 2104.4,267.3 2099.1,272.7 2093.8,278 
		2088.5,283.4 2083.2,288.7 2077.9,294.1 2072.6,299.4 2067.4,304.8 2062.1,310.2 2056.8,315.5 2051.5,320.9 2046.2,326.2 
		2040.9,331.6 2035.6,336.9 2030.3,342.3 2025,347.6 2019.7,353 2014.4,358.4 2009.2,363.7 2003.9,369.1 1998.6,374.4 1993.3,379.8 
		1988,385.1 1982.7,390.5 1977.4,395.8 1972.1,401.2 1966.8,406.5 1961.6,411.9 1956.3,417.3 1951,422.6 1945.7,428 1940.4,433.3 
		1935.1,438.7 1929.8,444 1924.5,449.4 1919.2,454.7 1913.9,460.1 1908.7,465.5 1903.4,470.8 1898.1,476.2 1892.8,481.5 
		1887.5,486.9 1882.2,492.2 1876.9,497.6 1871.6,502.9 1866.3,508.3 1861,513.7 1855.8,519 1850.5,524.4 1845.2,529.7 1839.9,535.1 
		1836,539 	"/>
	<polyline class="st2" points="2179.2,203 2173.9,208.4 2168.6,213.8 2163.3,219.1 2158,224.5 2152.8,229.8 2147.5,235.2 
		2142.2,240.5 2136.9,245.9 2131.6,251.2 2126.3,256.6 2121,262 2115.7,267.3 2110.4,272.7 2105.1,278 2099.9,283.4 2094.6,288.7 
		2089.3,294.1 2084,299.4 2078.7,304.8 2073.4,310.2 2068.1,315.5 2062.8,320.9 2057.5,326.2 2052.2,331.6 2046.9,336.9 
		2041.7,342.3 2036.4,347.6 2031.1,353 2025.8,358.4 2020.5,363.7 2015.2,369.1 2009.9,374.4 2004.6,379.8 1999.3,385.1 1994,390.5 
		1988.8,395.8 1983.5,401.2 1978.2,406.5 1972.9,411.9 1967.6,417.3 1962.3,422.6 1957,428 1951.7,433.3 1946.4,438.7 1941.2,444 
		1935.9,449.4 1930.6,454.7 1925.3,460.1 1920,465.5 1914.7,470.8 1909.4,476.2 1904.1,481.5 1898.8,486.9 1893.5,492.2 
		1888.2,497.6 1882.9,502.9 1877.7,508.3 1872.4,513.7 1867.1,519 1861.8,524.4 1856.5,529.7 1851.2,535.1 1847.3,539 	"/>
	<polyline class="st2" points="2179.9,213.8 2174.7,219.1 2169.4,224.5 2164.1,229.8 2158.8,235.2 2153.5,240.5 2148.2,245.9 
		2142.9,251.2 2137.6,256.6 2132.4,262 2127.1,267.3 2121.8,272.7 2116.5,278 2111.2,283.4 2105.9,288.7 2100.6,294.1 2095.3,299.4 
		2090,304.8 2084.7,310.2 2079.4,315.5 2074.2,320.9 2068.9,326.2 2063.6,331.6 2058.3,336.9 2053,342.3 2047.7,347.6 2042.4,353 
		2037.1,358.4 2031.8,363.7 2026.6,369.1 2021.3,374.4 2016,379.8 2010.7,385.1 2005.4,390.5 2000.1,395.8 1994.8,401.2 
		1989.5,406.5 1984.2,411.9 1978.9,417.3 1973.7,422.6 1968.3,428 1963.1,433.3 1957.8,438.7 1952.5,444 1947.2,449.4 1941.9,454.7 
		1936.6,460.1 1931.3,465.5 1926,470.8 1920.7,476.2 1915.4,481.5 1910.2,486.9 1904.9,492.2 1899.6,497.6 1894.3,502.9 1889,508.3 
		1883.7,513.7 1878.4,519 1873.1,524.4 1867.8,529.7 1862.6,535.1 1858.6,539 	"/>
	<polyline class="st2" points="2180.7,224.5 2175.4,229.8 2170.1,235.2 2164.8,240.5 2159.6,245.9 2154.3,251.2 2149,256.6 
		2143.7,262 2138.4,267.3 2133.1,272.7 2127.8,278 2122.5,283.4 2117.2,288.7 2111.9,294.1 2106.6,299.4 2101.4,304.8 2096.1,310.1 
		2090.8,315.5 2085.5,320.9 2080.2,326.2 2074.9,331.6 2069.6,336.9 2064.3,342.3 2059,347.6 2053.8,353 2048.5,358.4 2043.2,363.7 
		2037.9,369.1 2032.6,374.4 2027.3,379.8 2022,385.1 2016.7,390.5 2011.4,395.8 2006.1,401.2 2000.8,406.5 1995.6,411.9 
		1990.3,417.3 1985,422.6 1979.7,428 1974.4,433.3 1969.1,438.7 1963.8,444 1958.5,449.4 1953.2,454.7 1947.9,460.1 1942.7,465.5 
		1937.4,470.8 1932.1,476.2 1926.8,481.5 1921.5,486.9 1916.2,492.2 1910.9,497.6 1905.6,502.9 1900.3,508.3 1895.1,513.7 
		1889.8,519 1884.5,524.4 1879.2,529.7 1873.9,535.1 1870,539 	"/>
	<polyline class="st2" points="2181.5,235.2 2176.2,240.5 2170.9,245.9 2165.6,251.2 2160.3,256.6 2155,262 2149.7,267.3 
		2144.4,272.7 2139.1,278 2133.9,283.4 2128.6,288.7 2123.3,294.1 2118,299.4 2112.7,304.8 2107.4,310.1 2102.1,315.5 2096.8,320.9 
		2091.5,326.2 2086.3,331.6 2081,336.9 2075.7,342.3 2070.4,347.6 2065.1,353 2059.8,358.4 2054.5,363.7 2049.2,369.1 2043.9,374.4 
		2038.6,379.8 2033.3,385.1 2028.1,390.5 2022.8,395.8 2017.5,401.2 2012.2,406.5 2006.9,411.9 2001.6,417.3 1996.3,422.6 1991,428 
		1985.7,433.3 1980.4,438.7 1975.2,444 1969.9,449.4 1964.6,454.7 1959.3,460.1 1954,465.5 1948.7,470.8 1943.4,476.2 1938.1,481.5 
		1932.8,486.9 1927.6,492.2 1922.3,497.6 1917,502.9 1911.7,508.3 1906.4,513.7 1901.1,519 1895.8,524.4 1890.5,529.7 1885.2,535.1 
		1881.3,539 	"/>
	<polyline class="st2" points="2182.2,245.9 2176.9,251.2 2171.6,256.6 2166.4,262 2161.1,267.3 2155.8,272.7 2150.5,278 
		2145.2,283.4 2139.9,288.7 2134.6,294.1 2129.3,299.4 2124,304.8 2118.8,310.2 2113.5,315.5 2108.2,320.9 2102.9,326.2 
		2097.6,331.6 2092.3,336.9 2087,342.3 2081.7,347.6 2076.4,353 2071.1,358.4 2065.9,363.7 2060.6,369.1 2055.3,374.4 2050,379.8 
		2044.7,385.1 2039.4,390.5 2034.1,395.8 2028.8,401.2 2023.5,406.5 2018.2,411.9 2012.9,417.3 2007.7,422.6 2002.4,428 
		1997.1,433.3 1991.8,438.7 1986.5,444 1981.2,449.4 1975.9,454.7 1970.6,460.1 1965.3,465.5 1960.1,470.8 1954.8,476.2 
		1949.5,481.5 1944.2,486.9 1938.9,492.2 1933.6,497.6 1928.3,502.9 1923,508.3 1917.7,513.7 1912.4,519 1907.2,524.4 1901.9,529.7 
		1896.6,535.1 1892.7,539 	"/>
	<polyline class="st2" points="2183,256.6 2177.7,262 2172.4,267.3 2167.1,272.7 2161.8,278 2156.5,283.4 2151.3,288.7 2146,294.1 
		2140.7,299.4 2135.4,304.8 2130.1,310.2 2124.8,315.5 2119.5,320.9 2114.2,326.2 2108.9,331.6 2103.6,336.9 2098.4,342.3 
		2093.1,347.6 2087.8,353 2082.5,358.4 2077.2,363.7 2071.9,369.1 2066.6,374.4 2061.3,379.8 2056,385.1 2050.7,390.5 2045.4,395.8 
		2040.2,401.2 2034.9,406.5 2029.6,411.9 2024.3,417.3 2019,422.6 2013.7,428 2008.4,433.3 2003.1,438.7 1997.8,444 1992.6,449.4 
		1987.3,454.7 1982,460.1 1976.7,465.5 1971.4,470.8 1966.1,476.2 1960.8,481.5 1955.5,486.9 1950.2,492.2 1944.9,497.6 
		1939.7,502.9 1934.4,508.3 1929.1,513.7 1923.8,519 1918.5,524.4 1913.2,529.7 1907.9,535.1 1904,539 	"/>
	<polyline class="st2" points="2178.5,272.7 2173.2,278 2167.9,283.4 2162.6,288.7 2157.3,294.1 2152,299.4 2146.7,304.8 
		2141.4,310.2 2136.1,315.5 2130.9,320.9 2125.6,326.2 2120.3,331.6 2115,336.9 2109.7,342.3 2104.4,347.6 2099.1,353 2093.8,358.4 
		2088.5,363.7 2083.2,369.1 2077.9,374.4 2072.7,379.8 2067.4,385.1 2062.1,390.5 2056.8,395.8 2051.5,401.2 2046.2,406.5 
		2040.9,411.9 2035.6,417.3 2030.3,422.6 2025.1,428 2019.8,433.3 2014.5,438.7 2009.2,444 2003.9,449.4 1998.6,454.7 1993.3,460.1 
		1988,465.5 1982.7,470.8 1977.4,476.2 1972.2,481.5 1966.9,486.9 1961.6,492.2 1956.3,497.6 1951,502.9 1945.7,508.3 1940.4,513.7 
		1935.1,519 1929.8,524.4 1924.5,529.7 1919.3,535.1 1915.3,539 	"/>
	<polyline class="st2" points="2179.2,283.4 2173.9,288.7 2168.6,294.1 2163.4,299.4 2158.1,304.8 2152.8,310.2 2147.5,315.5 
		2142.2,320.9 2136.9,326.2 2131.6,331.6 2126.3,336.9 2121,342.3 2115.7,347.6 2110.4,353 2105.2,358.3 2099.9,363.7 2094.6,369.1 
		2089.3,374.4 2084,379.8 2078.7,385.1 2073.4,390.5 2068.1,395.8 2062.8,401.2 2057.6,406.5 2052.3,411.9 2047,417.3 2041.7,422.6 
		2036.4,428 2031.1,433.3 2025.8,438.7 2020.5,444 2015.2,449.4 2009.9,454.7 2004.6,460.1 1999.3,465.5 1994.1,470.8 1988.8,476.2 
		1983.5,481.5 1978.2,486.9 1972.9,492.2 1967.6,497.6 1962.3,502.9 1957,508.3 1951.7,513.7 1946.5,519 1941.2,524.4 1935.9,529.7 
		1930.6,535.1 1926.7,539 	"/>
	<polyline class="st2" points="2180,294.1 2174.7,299.4 2169.4,304.8 2164.1,310.2 2158.8,315.5 2153.5,320.9 2148.2,326.2 
		2142.9,331.6 2137.7,336.9 2132.4,342.3 2127.1,347.6 2121.8,353 2116.5,358.3 2111.2,363.7 2105.9,369.1 2100.6,374.4 
		2095.3,379.8 2090,385.1 2084.8,390.5 2079.5,395.8 2074.2,401.2 2068.9,406.5 2063.6,411.9 2058.3,417.3 2053,422.6 2047.7,428 
		2042.4,433.3 2037.1,438.7 2031.8,444 2026.6,449.4 2021.3,454.7 2016,460.1 2010.7,465.5 2005.4,470.8 2000.1,476.2 1994.8,481.5 
		1989.5,486.9 1984.3,492.2 1978.9,497.6 1973.7,502.9 1968.4,508.3 1963.1,513.7 1957.8,519 1952.5,524.4 1947.2,529.7 
		1941.9,535.1 1938,539 	"/>
	<polyline class="st2" points="2180.7,304.8 2175.4,310.1 2170.1,315.5 2164.9,320.9 2159.6,326.2 2154.3,331.6 2149,336.9 
		2143.7,342.3 2138.4,347.6 2133.1,353 2127.8,358.3 2122.5,363.7 2117.3,369.1 2112,374.4 2106.7,379.8 2101.4,385.1 2096.1,390.5 
		2090.8,395.8 2085.5,401.2 2080.2,406.5 2074.9,411.9 2069.6,417.3 2064.4,422.6 2059.1,428 2053.8,433.3 2048.5,438.7 2043.2,444 
		2037.9,449.4 2032.6,454.7 2027.3,460.1 2022,465.5 2016.7,470.8 2011.4,476.2 2006.2,481.5 2000.9,486.9 1995.6,492.2 
		1990.3,497.6 1985,502.9 1979.7,508.3 1974.4,513.7 1969.1,519 1963.8,524.4 1958.6,529.7 1953.3,535.1 1949.3,539 	"/>
	<polyline class="st2" points="2181.5,315.5 2176.2,320.9 2170.9,326.2 2165.6,331.6 2160.3,336.9 2155,342.3 2149.8,347.6 
		2144.5,353 2139.2,358.3 2133.9,363.7 2128.6,369.1 2123.3,374.4 2118,379.8 2112.7,385.1 2107.4,390.5 2102.1,395.8 2096.9,401.2 
		2091.6,406.5 2086.3,411.9 2081,417.3 2075.7,422.6 2070.4,428 2065.1,433.3 2059.8,438.7 2054.5,444 2049.2,449.4 2043.9,454.7 
		2038.7,460.1 2033.4,465.5 2028.1,470.8 2022.8,476.2 2017.5,481.5 2012.2,486.9 2006.9,492.2 2001.6,497.6 1996.3,502.9 
		1991.1,508.3 1985.8,513.7 1980.5,519 1975.2,524.4 1969.9,529.7 1964.6,535.1 1960.7,539 	"/>
	<polyline class="st2" points="2182.3,326.2 2177,331.6 2171.7,336.9 2166.4,342.3 2161.1,347.6 2155.8,353 2150.5,358.3 
		2145.2,363.7 2139.9,369.1 2134.6,374.4 2129.4,379.8 2124.1,385.1 2118.8,390.5 2113.5,395.8 2108.2,401.2 2102.9,406.5 
		2097.6,411.9 2092.3,417.3 2087,422.6 2081.7,428 2076.4,433.3 2071.2,438.7 2065.9,444 2060.6,449.4 2055.3,454.7 2050,460.1 
		2044.7,465.5 2039.4,470.8 2034.1,476.2 2028.8,481.5 2023.6,486.9 2018.3,492.2 2013,497.6 2007.7,502.9 2002.4,508.3 
		1997.1,513.7 1991.8,519 1986.5,524.4 1981.2,529.7 1975.9,535.1 1972,539 	"/>
	<polyline class="st2" points="2183,336.9 2177.7,342.3 2172.4,347.6 2167.1,353 2161.9,358.3 2156.6,363.7 2151.3,369.1 
		2146,374.4 2140.7,379.8 2135.4,385.1 2130.1,390.5 2124.8,395.8 2119.5,401.2 2114.2,406.5 2108.9,411.9 2103.7,417.3 
		2098.4,422.6 2093.1,428 2087.8,433.3 2082.5,438.7 2077.2,444 2071.9,449.4 2066.6,454.7 2061.3,460.1 2056.1,465.5 2050.8,470.8 
		2045.5,476.2 2040.2,481.5 2034.9,486.9 2029.6,492.2 2024.3,497.6 2019,502.9 2013.7,508.3 2008.4,513.7 2003.2,519 1997.9,524.4 
		1992.6,529.7 1987.3,535.1 1983.4,539 	"/>
	<polyline class="st2" points="2178.5,353 2173.2,358.4 2167.9,363.7 2162.6,369.1 2157.3,374.4 2152,379.8 2146.7,385.1 
		2141.4,390.5 2136.2,395.8 2130.9,401.2 2125.6,406.5 2120.3,411.9 2115,417.3 2109.7,422.6 2104.4,428 2099.1,433.3 2093.8,438.7 
		2088.6,444 2083.3,449.4 2078,454.7 2072.7,460.1 2067.4,465.5 2062.1,470.8 2056.8,476.2 2051.5,481.5 2046.2,486.9 2040.9,492.2 
		2035.7,497.6 2030.4,502.9 2025.1,508.3 2019.8,513.7 2014.5,519 2009.2,524.4 2003.9,529.7 1998.6,535.1 1994.7,539 	"/>
	<polyline class="st2" points="2179.2,363.7 2173.9,369.1 2168.7,374.4 2163.4,379.8 2158.1,385.1 2152.8,390.5 2147.5,395.8 
		2142.2,401.2 2136.9,406.5 2131.6,411.9 2126.3,417.3 2121,422.6 2115.8,428 2110.5,433.3 2105.2,438.7 2099.9,444 2094.6,449.4 
		2089.3,454.7 2084,460.1 2078.7,465.5 2073.4,470.8 2068.1,476.2 2062.9,481.5 2057.6,486.9 2052.3,492.2 2047,497.6 2041.7,502.9 
		2036.4,508.3 2031.1,513.7 2025.8,519 2020.5,524.4 2015.2,529.7 2009.9,535.1 2006,539 	"/>
	<polyline class="st2" points="2180,374.4 2174.7,379.8 2169.4,385.1 2164.1,390.5 2158.8,395.8 2153.6,401.2 2148.3,406.5 
		2143,411.9 2137.7,417.3 2132.4,422.6 2127.1,428 2121.8,433.3 2116.5,438.7 2111.2,444 2105.9,449.4 2100.6,454.7 2095.4,460.1 
		2090.1,465.5 2084.8,470.8 2079.5,476.2 2074.2,481.5 2068.9,486.9 2063.6,492.2 2058.3,497.6 2053,502.9 2047.7,508.3 
		2042.4,513.7 2037.2,519 2031.9,524.4 2026.6,529.7 2021.3,535.1 2017.4,539 	"/>
	<polyline class="st2" points="2180.8,385.1 2175.5,390.5 2170.2,395.8 2164.9,401.2 2159.6,406.5 2154.3,411.9 2149,417.3 
		2143.7,422.6 2138.4,428 2133.1,433.3 2127.9,438.7 2122.6,444 2117.3,449.4 2112,454.7 2106.7,460.1 2101.4,465.5 2096.1,470.8 
		2090.8,476.2 2085.5,481.5 2080.2,486.9 2074.9,492.2 2069.7,497.6 2064.4,502.9 2059.1,508.3 2053.8,513.7 2048.5,519 
		2043.2,524.4 2037.9,529.7 2032.6,535.1 2028.7,539 	"/>
	<polyline class="st2" points="2181.5,395.8 2176.2,401.2 2170.9,406.5 2165.6,411.9 2160.4,417.3 2155.1,422.6 2149.8,428 
		2144.5,433.3 2139.2,438.7 2133.9,444 2128.6,449.4 2123.3,454.7 2118,460.1 2112.7,465.5 2107.4,470.8 2102.2,476.2 2096.9,481.5 
		2091.6,486.9 2086.3,492.2 2081,497.6 2075.7,502.9 2070.4,508.3 2065.1,513.7 2059.8,519 2054.6,524.4 2049.3,529.7 2044,535.1 
		2040.1,539 	"/>
	<polyline class="st2" points="2182.3,406.5 2177,411.9 2171.7,417.3 2166.4,422.6 2161.1,428 2155.8,433.3 2150.5,438.7 
		2145.2,444 2139.9,449.4 2134.7,454.7 2129.4,460.1 2124.1,465.5 2118.8,470.8 2113.5,476.2 2108.2,481.5 2102.9,486.9 
		2097.6,492.2 2092.3,497.6 2087.1,502.9 2081.8,508.3 2076.5,513.7 2071.2,519 2065.9,524.4 2060.6,529.7 2055.3,535.1 2051.4,539 
			"/>
	<polyline class="st2" points="2183,417.3 2177.7,422.6 2172.4,428 2167.2,433.3 2161.9,438.7 2156.6,444 2151.3,449.4 2146,454.7 
		2140.7,460.1 2135.4,465.5 2130.1,470.8 2124.8,476.2 2119.6,481.5 2114.3,486.9 2109,492.2 2103.7,497.6 2098.4,502.9 
		2093.1,508.3 2087.8,513.7 2082.5,519 2077.2,524.4 2071.9,529.7 2066.6,535.1 2062.7,539 	"/>
	<polyline class="st2" points="2178.5,433.3 2173.2,438.7 2167.9,444 2162.6,449.4 2157.3,454.7 2152.1,460.1 2146.8,465.5 
		2141.5,470.8 2136.2,476.2 2130.9,481.5 2125.6,486.9 2120.3,492.2 2115,497.6 2109.7,502.9 2104.4,508.3 2099.1,513.7 2093.9,519 
		2088.6,524.4 2083.3,529.7 2078,535.1 2074.1,539 	"/>
	<polyline class="st2" points="2179.3,444 2174,449.4 2168.7,454.7 2163.4,460.1 2158.1,465.5 2152.8,470.8 2147.5,476.2 
		2142.2,481.5 2136.9,486.9 2131.6,492.2 2126.4,497.6 2121.1,502.9 2115.8,508.3 2110.5,513.7 2105.2,519 2099.9,524.4 
		2094.6,529.7 2089.3,535.1 2085.4,539 	"/>
	<polyline class="st2" points="2180,454.7 2174.7,460.1 2169.4,465.5 2164.1,470.8 2158.9,476.2 2153.6,481.5 2148.3,486.9 
		2143,492.2 2137.7,497.6 2132.4,502.9 2127.1,508.3 2121.8,513.7 2116.5,519 2111.3,524.4 2105.9,529.7 2100.7,535.1 2096.8,539 	
		"/>
	<polyline class="st2" points="2180.8,465.5 2175.5,470.8 2170.2,476.2 2164.9,481.5 2159.6,486.9 2154.3,492.2 2149,497.6 
		2143.7,502.9 2138.4,508.3 2133.2,513.7 2127.9,519 2122.6,524.4 2117.3,529.7 2112,535.1 2108.1,539 	"/>
	<polyline class="st2" points="2181.5,476.2 2176.2,481.5 2170.9,486.9 2165.7,492.2 2160.4,497.6 2155.1,502.9 2149.8,508.3 
		2144.5,513.7 2139.2,519 2133.9,524.4 2128.6,529.7 2123.3,535.1 2119.4,539 	"/>
	<polyline class="st2" points="2182.3,486.9 2177,492.2 2171.7,497.6 2166.4,502.9 2161.1,508.3 2155.8,513.7 2150.6,519 
		2145.3,524.4 2140,529.7 2134.7,535.1 2130.8,539 	"/>
	<polyline class="st2" points="2183.1,497.6 2177.8,502.9 2172.5,508.3 2167.2,513.7 2161.9,519 2156.6,524.4 2151.3,529.7 
		2146,535.1 2142.1,539 	"/>
	<polyline class="st2" points="2178.5,513.7 2173.2,519 2167.9,524.4 2162.6,529.7 2157.4,535.1 2153.4,539 	"/>
	<polyline class="st2" points="2179.3,524.4 2174,529.7 2168.7,535.1 2164.8,539 	"/>
	<line class="st2" x1="2180" y1="535.1" x2="2176.1" y2="539"/>
	<polyline class="st2" points="520.7,-0.5 515.4,4.9 510.1,10.3 504.8,15.6 499.5,21 494.2,26.3 489,31.7 483.7,37 478.4,42.4 
		473.1,47.7 467.8,53.1 462.5,58.5 457.2,63.8 451.9,69.2 446.6,74.5 441.3,79.9 436,85.2 430.8,90.6 425.5,95.9 420.2,101.3 
		414.9,106.7 409.6,112 404.3,117.4 399,122.7 393.7,128.1 388.4,133.4 383.1,138.8 377.9,144.1 372.6,149.5 367.3,154.8 362,160.2 
		356.7,165.6 351.4,170.9 346.1,176.3 340.8,181.6 335.5,187 330.3,192.3 325,197.7 319.7,203 314.4,208.4 309.1,213.8 303.8,219.1 
		298.5,224.5 293.2,229.8 287.9,235.2 282.6,240.5 277.4,245.9 272.1,251.2 266.8,256.6 261.5,262 256.2,267.3 250.9,272.7 
		245.6,278 240.3,283.4 235,288.7 229.7,294.1 224.4,299.4 219.2,304.8 213.9,310.2 208.6,315.5 203.3,320.9 198,326.2 192.7,331.6 
		187.4,336.9 182.1,342.3 176.8,347.6 171.6,353 166.3,358.4 161,363.7 155.7,369.1 150.4,374.4 145.1,379.8 139.8,385.1 
		134.5,390.5 129.2,395.8 123.9,401.2 118.7,406.5 113.4,411.9 108.1,417.3 102.8,422.6 97.5,428 92.2,433.3 86.9,438.7 81.6,444 
		76.3,449.4 71,454.7 65.8,460.1 60.5,465.5 55.2,470.8 49.9,476.2 44.6,481.5 39.3,486.9 34,492.2 28.7,497.6 23.4,502.9 
		18.1,508.3 12.9,513.7 7.6,519 2.3,524.4 	"/>
	<polyline class="st2" points="509.4,-0.5 504.1,4.9 498.8,10.3 493.5,15.6 488.2,21 482.9,26.3 477.6,31.7 472.3,37 467,42.4 
		461.7,47.7 456.5,53.1 451.2,58.5 445.9,63.8 440.6,69.2 435.3,74.5 430,79.9 424.7,85.2 419.4,90.6 414.1,95.9 408.8,101.3 
		403.5,106.7 398.3,112 393,117.4 387.7,122.7 382.4,128.1 377.1,133.4 371.8,138.8 366.5,144.1 361.2,149.5 355.9,154.8 
		350.6,160.2 345.4,165.6 340.1,170.9 334.8,176.3 329.5,181.6 324.2,187 318.9,192.3 313.6,197.7 308.3,203 303,208.4 297.8,213.8 
		292.5,219.1 287.2,224.5 281.9,229.8 276.6,235.2 271.3,240.5 266,245.9 260.7,251.2 255.4,256.6 250.1,262 244.9,267.3 
		239.6,272.7 234.3,278 229,283.4 223.7,288.7 218.4,294.1 213.1,299.4 207.8,304.8 202.5,310.2 197.2,315.5 191.9,320.9 
		186.7,326.2 181.4,331.6 176.1,336.9 170.8,342.3 165.5,347.6 160.2,353 154.9,358.3 149.6,363.7 144.3,369.1 139.1,374.4 
		133.8,379.8 128.5,385.1 123.2,390.5 117.9,395.8 112.6,401.2 107.3,406.5 102,411.9 96.7,417.3 91.4,422.6 86.2,428 80.9,433.3 
		75.6,438.7 70.3,444 65,449.4 59.7,454.7 54.4,460.1 49.1,465.5 43.8,470.8 38.5,476.2 33.3,481.5 28,486.9 22.7,492.2 17.4,497.6 
		12.1,502.9 6.8,508.3 1.5,513.7 	"/>
	<polyline class="st2" points="498,-0.5 492.7,4.9 487.4,10.3 482.1,15.6 476.9,21 471.6,26.3 466.3,31.7 461,37 455.7,42.4 
		450.4,47.7 445.1,53.1 439.8,58.5 434.5,63.8 429.2,69.2 424,74.5 418.7,79.9 413.4,85.2 408.1,90.6 402.8,95.9 397.5,101.3 
		392.2,106.7 386.9,112 381.6,117.4 376.3,122.7 371,128.1 365.8,133.4 360.5,138.8 355.2,144.1 349.9,149.5 344.6,154.8 
		339.3,160.2 334,165.6 328.7,170.9 323.4,176.3 318.1,181.6 312.9,187 307.6,192.3 302.3,197.7 297,203 291.7,208.4 286.4,213.8 
		281.1,219.1 275.8,224.5 270.5,229.8 265.3,235.2 260,240.5 254.7,245.9 249.4,251.2 244.1,256.6 238.8,262 233.5,267.3 
		228.2,272.7 222.9,278 217.6,283.4 212.4,288.7 207.1,294.1 201.8,299.4 196.5,304.8 191.2,310.2 185.9,315.5 180.6,320.9 
		175.3,326.2 170,331.6 164.7,336.9 159.4,342.3 154.2,347.6 148.9,353 143.6,358.3 138.3,363.7 133,369.1 127.7,374.4 122.4,379.8 
		117.1,385.1 111.8,390.5 106.6,395.8 101.3,401.2 96,406.5 90.7,411.9 85.4,417.3 80.1,422.6 74.8,428 69.5,433.3 64.2,438.7 
		58.9,444 53.7,449.4 48.4,454.7 43.1,460.1 37.8,465.5 32.5,470.8 27.2,476.2 21.9,481.5 16.6,486.9 11.3,492.2 6,497.6 0.8,502.9 
			"/>
	<polyline class="st2" points="486.7,-0.5 481.4,4.9 476.1,10.3 470.8,15.6 465.5,21 460.2,26.3 454.9,31.7 449.6,37 444.4,42.4 
		439.1,47.7 433.8,53.1 428.5,58.5 423.2,63.8 417.9,69.2 412.6,74.5 407.3,79.9 402,85.2 396.7,90.6 391.5,95.9 386.2,101.3 
		380.9,106.7 375.6,112 370.3,117.4 365,122.7 359.7,128.1 354.4,133.4 349.1,138.8 343.8,144.1 338.5,149.5 333.3,154.8 328,160.2 
		322.7,165.6 317.4,170.9 312.1,176.3 306.8,181.6 301.5,187 296.2,192.3 290.9,197.7 285.6,203 280.4,208.4 275.1,213.8 
		269.8,219.1 264.5,224.5 259.2,229.8 253.9,235.2 248.6,240.5 243.3,245.9 238,251.2 232.8,256.6 227.5,262 222.2,267.3 
		216.9,272.7 211.6,278 206.3,283.4 201,288.7 195.7,294.1 190.4,299.4 185.1,304.8 179.9,310.2 174.6,315.5 169.3,320.9 164,326.2 
		158.7,331.6 153.4,336.9 148.1,342.3 142.8,347.6 137.5,353 132.2,358.3 126.9,363.7 121.7,369.1 116.4,374.4 111.1,379.8 
		105.8,385.1 100.5,390.5 95.2,395.8 89.9,401.2 84.6,406.5 79.3,411.9 74.1,417.3 68.8,422.6 63.5,428 58.2,433.3 52.9,438.7 
		47.6,444 42.3,449.4 37,454.7 31.7,460.1 26.4,465.5 21.1,470.8 15.9,476.2 10.6,481.5 5.3,486.9 0,492.2 	"/>
	<polyline class="st2" points="475.3,-0.5 470,4.9 464.8,10.3 459.5,15.6 454.2,21 448.9,26.3 443.6,31.7 438.3,37 433,42.4 
		427.7,47.7 422.4,53.1 417.1,58.5 411.9,63.8 406.6,69.2 401.3,74.5 396,79.9 390.7,85.2 385.4,90.6 380.1,95.9 374.8,101.3 
		369.5,106.7 364.3,112 359,117.4 353.7,122.7 348.4,128.1 343.1,133.4 337.8,138.8 332.5,144.1 327.2,149.5 321.9,154.8 
		316.6,160.2 311.4,165.6 306.1,170.9 300.8,176.3 295.5,181.6 290.2,187 284.9,192.3 279.6,197.7 274.3,203 269,208.4 263.7,213.8 
		258.4,219.1 253.2,224.5 247.9,229.8 242.6,235.2 237.3,240.5 232,245.9 226.7,251.2 221.4,256.6 216.1,262 210.8,267.3 
		205.6,272.7 200.3,278 195,283.4 189.7,288.7 184.4,294.1 179.1,299.4 173.8,304.8 168.5,310.2 163.2,315.5 157.9,320.9 
		152.6,326.2 147.4,331.6 142.1,336.9 136.8,342.3 131.5,347.6 126.2,353 120.9,358.4 115.6,363.7 110.3,369.1 105,374.4 
		99.8,379.8 94.5,385.1 89.2,390.5 83.9,395.8 78.6,401.2 73.3,406.5 68,411.9 62.7,417.3 57.4,422.6 52.1,428 46.8,433.3 
		41.5,438.7 36.3,444 31,449.4 25.7,454.7 20.4,460.1 15.1,465.5 9.8,470.8 4.5,476.2 -0.8,481.5 	"/>
	<polyline class="st2" points="464,-0.5 458.7,4.9 453.4,10.3 448.1,15.6 442.8,21 437.5,26.3 432.3,31.7 427,37 421.7,42.4 
		416.4,47.7 411.1,53.1 405.8,58.5 400.5,63.8 395.2,69.2 389.9,74.5 384.6,79.9 379.4,85.2 374.1,90.6 368.8,95.9 363.5,101.3 
		358.2,106.6 352.9,112 347.6,117.4 342.3,122.7 337,128.1 331.8,133.4 326.5,138.8 321.2,144.1 315.9,149.5 310.6,154.8 
		305.3,160.2 300,165.6 294.7,170.9 289.4,176.3 284.1,181.6 278.9,187 273.6,192.3 268.3,197.7 263,203 257.7,208.4 252.4,213.8 
		247.1,219.1 241.8,224.5 236.5,229.8 231.2,235.2 225.9,240.5 220.7,245.9 215.4,251.2 210.1,256.6 204.8,262 199.5,267.3 
		194.2,272.7 188.9,278 183.6,283.4 178.3,288.7 173.1,294.1 167.8,299.4 162.5,304.8 157.2,310.2 151.9,315.5 146.6,320.9 
		141.3,326.2 136,331.6 130.7,336.9 125.4,342.3 120.2,347.6 114.9,353 109.6,358.3 104.3,363.7 99,369.1 93.7,374.4 88.4,379.8 
		83.1,385.1 77.8,390.5 72.5,395.8 67.2,401.2 62,406.5 56.7,411.9 51.4,417.3 46.1,422.6 40.8,428 35.5,433.3 30.2,438.7 24.9,444 
		19.6,449.4 14.3,454.7 9.1,460.1 3.8,465.5 	"/>
	<polyline class="st2" points="452.7,-0.5 447.4,4.9 442.1,10.3 436.8,15.6 431.5,21 426.2,26.3 420.9,31.7 415.6,37 410.3,42.4 
		405,47.7 399.8,53.1 394.5,58.5 389.2,63.8 383.9,69.2 378.6,74.5 373.3,79.9 368,85.2 362.7,90.6 357.4,95.9 352.1,101.3 
		346.9,106.6 341.6,112 336.3,117.4 331,122.7 325.7,128.1 320.4,133.4 315.1,138.8 309.8,144.1 304.5,149.5 299.3,154.8 294,160.2 
		288.7,165.6 283.4,170.9 278.1,176.3 272.8,181.6 267.5,187 262.2,192.3 256.9,197.7 251.6,203 246.4,208.4 241.1,213.8 
		235.8,219.1 230.5,224.5 225.2,229.8 219.9,235.2 214.6,240.5 209.3,245.9 204,251.2 198.7,256.6 193.4,262 188.2,267.3 
		182.9,272.7 177.6,278 172.3,283.4 167,288.7 161.7,294.1 156.4,299.4 151.1,304.8 145.8,310.2 140.5,315.5 135.3,320.9 130,326.2 
		124.7,331.6 119.4,336.9 114.1,342.3 108.8,347.6 103.5,353 98.2,358.3 92.9,363.7 87.7,369.1 82.4,374.4 77.1,379.8 71.8,385.1 
		66.5,390.5 61.2,395.8 55.9,401.2 50.6,406.5 45.3,411.9 40,417.3 34.7,422.6 29.5,428 24.2,433.3 18.9,438.7 13.6,444 8.3,449.4 
		3,454.7 	"/>
	<polyline class="st2" points="441.3,-0.5 436,4.9 430.7,10.3 425.5,15.6 420.2,21 414.9,26.3 409.6,31.7 404.3,37 399,42.4 
		393.7,47.7 388.4,53.1 383.1,58.5 377.8,63.8 372.5,69.2 367.3,74.5 362,79.9 356.7,85.2 351.4,90.6 346.1,95.9 340.8,101.3 
		335.5,106.7 330.2,112 324.9,117.4 319.6,122.7 314.4,128.1 309.1,133.4 303.8,138.8 298.5,144.1 293.2,149.5 287.9,154.8 
		282.6,160.2 277.3,165.6 272,170.9 266.8,176.3 261.5,181.6 256.2,187 250.9,192.3 245.6,197.7 240.3,203 235,208.4 229.7,213.8 
		224.4,219.1 219.1,224.5 213.9,229.8 208.6,235.2 203.3,240.5 198,245.9 192.7,251.2 187.4,256.6 182.1,262 176.8,267.3 
		171.5,272.7 166.2,278 160.9,283.4 155.7,288.7 150.4,294.1 145.1,299.4 139.8,304.8 134.5,310.2 129.2,315.5 123.9,320.9 
		118.6,326.2 113.3,331.6 108.1,336.9 102.8,342.3 97.5,347.6 92.2,353 86.9,358.4 81.6,363.7 76.3,369.1 71,374.4 65.7,379.8 
		60.4,385.1 55.2,390.5 49.9,395.8 44.6,401.2 39.3,406.5 34,411.9 28.7,417.3 23.4,422.6 18.1,428 12.8,433.3 7.5,438.7 2.3,444 	
		"/>
	<polyline class="st2" points="430,-0.5 424.7,4.9 419.4,10.3 414.1,15.6 408.8,21 403.5,26.3 398.2,31.7 393,37 387.7,42.4 
		382.4,47.7 377.1,53.1 371.8,58.5 366.5,63.8 361.2,69.2 355.9,74.5 350.6,79.9 345.3,85.2 340,90.6 334.8,95.9 329.5,101.3 
		324.2,106.7 318.9,112 313.6,117.4 308.3,122.7 303,128.1 297.7,133.4 292.4,138.8 287.1,144.1 281.9,149.5 276.6,154.8 
		271.3,160.2 266,165.6 260.7,170.9 255.4,176.3 250.1,181.6 244.8,187 239.5,192.3 234.3,197.7 229,203 223.7,208.4 218.4,213.8 
		213.1,219.1 207.8,224.5 202.5,229.8 197.2,235.2 191.9,240.5 186.6,245.9 181.4,251.2 176.1,256.6 170.8,262 165.5,267.3 
		160.2,272.7 154.9,278 149.6,283.4 144.3,288.7 139,294.1 133.7,299.4 128.4,304.8 123.2,310.2 117.9,315.5 112.6,320.9 
		107.3,326.2 102,331.6 96.7,336.9 91.4,342.3 86.1,347.6 80.8,353 75.6,358.3 70.3,363.7 65,369.1 59.7,374.4 54.4,379.8 
		49.1,385.1 43.8,390.5 38.5,395.8 33.2,401.2 27.9,406.5 22.6,411.9 17.4,417.3 12.1,422.6 6.8,428 1.5,433.3 	"/>
	<polyline class="st2" points="418.6,-0.5 413.4,4.9 408.1,10.3 402.8,15.6 397.5,21 392.2,26.3 386.9,31.7 381.6,37 376.3,42.4 
		371,47.7 365.7,53.1 360.5,58.5 355.2,63.8 349.9,69.2 344.6,74.5 339.3,79.9 334,85.2 328.7,90.6 323.4,95.9 318.1,101.3 
		312.8,106.7 307.5,112 302.3,117.4 297,122.7 291.7,128.1 286.4,133.4 281.1,138.8 275.8,144.1 270.5,149.5 265.2,154.8 
		259.9,160.2 254.6,165.6 249.4,170.9 244.1,176.3 238.8,181.6 233.5,187 228.2,192.3 222.9,197.7 217.6,203 212.3,208.4 207,213.8 
		201.8,219.1 196.5,224.5 191.2,229.8 185.9,235.2 180.6,240.5 175.3,245.9 170,251.2 164.7,256.6 159.4,262 154.1,267.3 
		148.9,272.7 143.6,278 138.3,283.4 133,288.7 127.7,294.1 122.4,299.4 117.1,304.8 111.8,310.2 106.5,315.5 101.2,320.9 
		95.9,326.2 90.7,331.6 85.4,336.9 80.1,342.3 74.8,347.6 69.5,353 64.2,358.3 58.9,363.7 53.6,369.1 48.3,374.4 43,379.8 
		37.8,385.1 32.5,390.5 27.2,395.8 21.9,401.2 16.6,406.5 11.3,411.9 6,417.3 0.7,422.6 	"/>
	<polyline class="st2" points="407.3,-0.5 402,4.9 396.7,10.3 391.4,15.6 386.1,21 380.9,26.3 375.6,31.7 370.3,37 365,42.4 
		359.7,47.7 354.4,53.1 349.1,58.5 343.8,63.8 338.5,69.2 333.2,74.5 328,79.9 322.7,85.2 317.4,90.6 312.1,95.9 306.8,101.3 
		301.5,106.7 296.2,112 290.9,117.4 285.6,122.7 280.3,128.1 275,133.4 269.8,138.8 264.5,144.1 259.2,149.5 253.9,154.8 
		248.6,160.2 243.3,165.6 238,170.9 232.7,176.3 227.4,181.6 222.1,187 216.9,192.3 211.6,197.7 206.3,203 201,208.4 195.7,213.8 
		190.4,219.1 185.1,224.5 179.8,229.8 174.6,235.2 169.3,240.5 164,245.9 158.7,251.2 153.4,256.6 148.1,262 142.8,267.3 
		137.5,272.7 132.2,278 126.9,283.4 121.6,288.7 116.3,294.1 111.1,299.4 105.8,304.8 100.5,310.1 95.2,315.5 89.9,320.9 
		84.6,326.2 79.3,331.6 74,336.9 68.7,342.3 63.5,347.6 58.2,353 52.9,358.3 47.6,363.7 42.3,369.1 37,374.4 31.7,379.8 26.4,385.1 
		21.1,390.5 15.8,395.8 10.6,401.2 5.3,406.5 0,411.9 	"/>
	<polyline class="st2" points="396,-0.5 390.7,4.9 385.4,10.3 380.1,15.6 374.8,21 369.5,26.3 364.2,31.7 358.9,37 353.6,42.4 
		348.4,47.7 343.1,53.1 337.8,58.5 332.5,63.8 327.2,69.2 321.9,74.5 316.6,79.9 311.3,85.2 306,90.6 300.8,95.9 295.5,101.3 
		290.2,106.7 284.9,112 279.6,117.4 274.3,122.7 269,128.1 263.7,133.4 258.4,138.8 253.1,144.1 247.9,149.5 242.6,154.8 
		237.3,160.2 232,165.6 226.7,170.9 221.4,176.3 216.1,181.6 210.8,187 205.5,192.3 200.2,197.7 194.9,203 189.7,208.4 184.4,213.8 
		179.1,219.1 173.8,224.5 168.5,229.8 163.2,235.2 157.9,240.5 152.6,245.9 147.3,251.2 142,256.6 136.8,262 131.5,267.3 
		126.2,272.7 120.9,278 115.6,283.4 110.3,288.7 105,294.1 99.7,299.4 94.4,304.8 89.2,310.2 83.9,315.5 78.6,320.9 73.3,326.2 
		68,331.6 62.7,336.9 57.4,342.3 52.1,347.6 46.8,353 41.5,358.3 36.3,363.7 31,369.1 25.7,374.4 20.4,379.8 15.1,385.1 9.8,390.5 
		4.5,395.8 -0.8,401.2 	"/>
	<polyline class="st2" points="384.6,-0.5 379.3,4.9 374,10.3 368.8,15.6 363.5,21 358.2,26.3 352.9,31.7 347.6,37 342.3,42.4 
		337,47.7 331.7,53.1 326.4,58.5 321.1,63.8 315.9,69.2 310.6,74.5 305.3,79.9 300,85.2 294.7,90.6 289.4,95.9 284.1,101.3 
		278.8,106.6 273.5,112 268.3,117.4 263,122.7 257.7,128.1 252.4,133.4 247.1,138.8 241.8,144.1 236.5,149.5 231.2,154.8 
		225.9,160.2 220.6,165.6 215.4,170.9 210.1,176.3 204.8,181.6 199.5,187 194.2,192.3 188.9,197.7 183.6,203 178.3,208.4 173,213.8 
		167.7,219.1 162.4,224.5 157.2,229.8 151.9,235.2 146.6,240.5 141.3,245.9 136,251.2 130.7,256.6 125.4,262 120.1,267.3 
		114.8,272.7 109.5,278 104.3,283.4 99,288.7 93.7,294.1 88.4,299.4 83.1,304.8 77.8,310.2 72.5,315.5 67.2,320.9 61.9,326.2 
		56.6,331.6 51.4,336.9 46.1,342.3 40.8,347.6 35.5,353 30.2,358.3 24.9,363.7 19.6,369.1 14.3,374.4 9,379.8 3.7,385.1 	"/>
	<polyline class="st2" points="373.3,-0.5 368,4.9 362.7,10.3 357.4,15.6 352.1,21 346.8,26.3 341.5,31.7 336.3,37 331,42.4 
		325.7,47.7 320.4,53.1 315.1,58.5 309.8,63.8 304.5,69.2 299.2,74.5 293.9,79.9 288.6,85.2 283.4,90.6 278.1,95.9 272.8,101.3 
		267.5,106.6 262.2,112 256.9,117.4 251.6,122.7 246.3,128.1 241,133.4 235.8,138.8 230.5,144.1 225.2,149.5 219.9,154.8 
		214.6,160.2 209.3,165.6 204,170.9 198.7,176.3 193.4,181.6 188.1,187 182.9,192.3 177.6,197.7 172.3,203 167,208.4 161.7,213.8 
		156.4,219.1 151.1,224.5 145.8,229.8 140.5,235.2 135.2,240.5 129.9,245.9 124.7,251.2 119.4,256.6 114.1,262 108.8,267.3 
		103.5,272.7 98.2,278 92.9,283.4 87.6,288.7 82.3,294.1 77.1,299.4 71.8,304.8 66.5,310.2 61.2,315.5 55.9,320.9 50.6,326.2 
		45.3,331.6 40,336.9 34.7,342.3 29.4,347.6 24.1,353 18.9,358.3 13.6,363.7 8.3,369.1 3,374.4 	"/>
	<polyline class="st2" points="362,-0.5 356.7,4.9 351.4,10.3 346.1,15.6 340.8,21 335.5,26.3 330.2,31.7 324.9,37 319.6,42.4 
		314.3,47.7 309,53.1 303.8,58.5 298.5,63.8 293.2,69.2 287.9,74.5 282.6,79.9 277.3,85.2 272,90.6 266.7,95.9 261.4,101.3 
		256.1,106.7 250.9,112 245.6,117.4 240.3,122.7 235,128.1 229.7,133.4 224.4,138.8 219.1,144.1 213.8,149.5 208.5,154.8 
		203.3,160.2 198,165.6 192.7,170.9 187.4,176.3 182.1,181.6 176.8,187 171.5,192.3 166.2,197.7 160.9,203 155.6,208.4 150.4,213.8 
		145.1,219.1 139.8,224.5 134.5,229.8 129.2,235.2 123.9,240.5 118.6,245.9 113.3,251.2 108,256.6 102.7,262 97.4,267.3 92.2,272.7 
		86.9,278 81.6,283.4 76.3,288.7 71,294.1 65.7,299.4 60.4,304.8 55.1,310.2 49.8,315.5 44.5,320.9 39.3,326.2 34,331.6 28.7,336.9 
		23.4,342.3 18.1,347.6 12.8,353 7.5,358.4 2.2,363.7 	"/>
	<polyline class="st2" points="350.6,-0.5 345.3,4.9 340,10.3 334.7,15.6 329.5,21 324.2,26.3 318.9,31.7 313.6,37 308.3,42.4 
		303,47.7 297.7,53.1 292.4,58.5 287.1,63.8 281.8,69.2 276.5,74.5 271.3,79.9 266,85.2 260.7,90.6 255.4,95.9 250.1,101.3 
		244.8,106.7 239.5,112 234.2,117.4 228.9,122.7 223.6,128.1 218.4,133.4 213.1,138.8 207.8,144.1 202.5,149.5 197.2,154.8 
		191.9,160.2 186.6,165.6 181.3,170.9 176,176.3 170.8,181.6 165.5,187 160.2,192.3 154.9,197.7 149.6,203 144.3,208.4 139,213.8 
		133.7,219.1 128.4,224.5 123.1,229.8 117.8,235.2 112.6,240.5 107.3,245.9 102,251.2 96.7,256.6 91.4,262 86.1,267.3 80.8,272.7 
		75.5,278 70.2,283.4 64.9,288.7 59.7,294.1 54.4,299.4 49.1,304.8 43.8,310.2 38.5,315.5 33.2,320.9 27.9,326.2 22.6,331.6 
		17.3,336.9 12.1,342.3 6.8,347.6 1.5,353 	"/>
	<polyline class="st2" points="339.3,-0.5 334,4.9 328.7,10.3 323.4,15.6 318.1,21 312.8,26.3 307.5,31.7 302.2,37 297,42.4 
		291.7,47.7 286.4,53.1 281.1,58.5 275.8,63.8 270.5,69.2 265.2,74.5 259.9,79.9 254.6,85.2 249.3,90.6 244.1,95.9 238.8,101.3 
		233.5,106.7 228.2,112 222.9,117.4 217.6,122.7 212.3,128.1 207,133.4 201.7,138.8 196.4,144.1 191.1,149.5 185.9,154.8 
		180.6,160.2 175.3,165.6 170,170.9 164.7,176.3 159.4,181.6 154.1,187 148.8,192.3 143.5,197.7 138.3,203 133,208.4 127.7,213.8 
		122.4,219.1 117.1,224.5 111.8,229.8 106.5,235.2 101.2,240.5 95.9,245.9 90.6,251.2 85.3,256.6 80.1,262 74.8,267.3 69.5,272.7 
		64.2,278 58.9,283.4 53.6,288.7 48.3,294.1 43,299.4 37.7,304.8 32.5,310.2 27.2,315.5 21.9,320.9 16.6,326.2 11.3,331.6 6,336.9 
		0.7,342.3 	"/>
	<polyline class="st2" points="327.9,-0.5 322.6,4.9 317.4,10.3 312.1,15.6 306.8,21 301.5,26.3 296.2,31.7 290.9,37 285.6,42.4 
		280.3,47.7 275,53.1 269.7,58.5 264.5,63.8 259.2,69.2 253.9,74.5 248.6,79.9 243.3,85.2 238,90.6 232.7,95.9 227.4,101.3 
		222.1,106.7 216.8,112 211.6,117.4 206.3,122.7 201,128.1 195.7,133.4 190.4,138.8 185.1,144.1 179.8,149.5 174.5,154.8 
		169.2,160.2 163.9,165.6 158.6,170.9 153.4,176.3 148.1,181.6 142.8,187 137.5,192.3 132.2,197.7 126.9,203 121.6,208.4 
		116.3,213.8 111,219.1 105.8,224.5 100.5,229.8 95.2,235.2 89.9,240.5 84.6,245.9 79.3,251.2 74,256.6 68.7,262 63.4,267.3 
		58.1,272.7 52.8,278 47.6,283.4 42.3,288.7 37,294.1 31.7,299.4 26.4,304.8 21.1,310.1 15.8,315.5 10.5,320.9 5.2,326.2 
		-0.1,331.6 	"/>
	<polyline class="st2" points="316.6,-0.5 311.3,4.9 306,10.3 300.7,15.6 295.4,21 290.1,26.3 284.9,31.7 279.6,37 274.3,42.4 
		269,47.7 263.7,53.1 258.4,58.5 253.1,63.8 247.8,69.2 242.5,74.5 237.3,79.9 232,85.2 226.7,90.6 221.4,95.9 216.1,101.3 
		210.8,106.7 205.5,112 200.2,117.4 194.9,122.7 189.6,128.1 184.4,133.4 179.1,138.8 173.8,144.1 168.5,149.5 163.2,154.8 
		157.9,160.2 152.6,165.6 147.3,170.9 142,176.3 136.7,181.6 131.4,187 126.2,192.3 120.9,197.7 115.6,203 110.3,208.4 105,213.8 
		99.7,219.1 94.4,224.5 89.1,229.8 83.8,235.2 78.5,240.5 73.3,245.9 68,251.2 62.7,256.6 57.4,262 52.1,267.3 46.8,272.7 41.5,278 
		36.2,283.4 30.9,288.7 25.6,294.1 20.4,299.4 15.1,304.8 9.8,310.2 4.5,315.5 -0.8,320.9 	"/>
	<polyline class="st2" points="305.3,-0.5 300,4.9 294.7,10.3 289.4,15.6 284.1,21 278.8,26.3 273.5,31.7 268.2,37 262.9,42.4 
		257.6,47.7 252.4,53.1 247.1,58.5 241.8,63.8 236.5,69.2 231.2,74.5 225.9,79.9 220.6,85.2 215.3,90.6 210,95.9 204.8,101.3 
		199.5,106.6 194.2,112 188.9,117.4 183.6,122.7 178.3,128.1 173,133.4 167.7,138.8 162.4,144.1 157.1,149.5 151.9,154.8 
		146.6,160.2 141.3,165.6 136,170.9 130.7,176.3 125.4,181.6 120.1,187 114.8,192.3 109.5,197.7 104.2,203 98.9,208.4 93.7,213.8 
		88.4,219.1 83.1,224.5 77.8,229.8 72.5,235.2 67.2,240.5 61.9,245.9 56.6,251.2 51.3,256.6 46,262 40.8,267.3 35.5,272.7 30.2,278 
		24.9,283.4 19.6,288.7 14.3,294.1 9,299.4 3.7,304.8 	"/>
	<polyline class="st2" points="293.9,-0.5 288.6,4.9 283.3,10.3 278,15.6 272.8,21 267.5,26.3 262.2,31.7 256.9,37 251.6,42.4 
		246.3,47.7 241,53.1 235.7,58.5 230.4,63.8 225.1,69.2 219.9,74.5 214.6,79.9 209.3,85.2 204,90.6 198.7,95.9 193.4,101.3 
		188.1,106.6 182.8,112 177.5,117.4 172.3,122.7 167,128.1 161.7,133.4 156.4,138.8 151.1,144.1 145.8,149.5 140.5,154.8 
		135.2,160.2 129.9,165.6 124.6,170.9 119.3,176.3 114.1,181.6 108.8,187 103.5,192.3 98.2,197.7 92.9,203 87.6,208.4 82.3,213.8 
		77,219.1 71.7,224.5 66.4,229.8 61.2,235.2 55.9,240.5 50.6,245.9 45.3,251.2 40,256.6 34.7,262 29.4,267.3 24.1,272.7 18.8,278 
		13.6,283.4 8.3,288.7 3,294.1 	"/>
	<polyline class="st2" points="282.6,-0.5 277.3,4.9 272,10.3 266.7,15.6 261.4,21 256.1,26.3 250.8,31.7 245.6,37 240.3,42.4 
		235,47.7 229.7,53.1 224.4,58.5 219.1,63.8 213.8,69.2 208.5,74.5 203.2,79.9 197.9,85.2 192.6,90.6 187.4,95.9 182.1,101.3 
		176.8,106.7 171.5,112 166.2,117.4 160.9,122.7 155.6,128.1 150.3,133.4 145,138.8 139.8,144.1 134.5,149.5 129.2,154.8 
		123.9,160.2 118.6,165.6 113.3,170.9 108,176.3 102.7,181.6 97.4,187 92.1,192.3 86.8,197.7 81.6,203.1 76.3,208.4 71,213.8 
		65.7,219.1 60.4,224.5 55.1,229.8 49.8,235.2 44.5,240.5 39.2,245.9 34,251.2 28.7,256.6 23.4,262 18.1,267.3 12.8,272.7 7.5,278 
		2.2,283.4 	"/>
	<polyline class="st2" points="271.2,-0.5 266,4.9 260.7,10.3 255.4,15.6 250.1,21 244.8,26.3 239.5,31.7 234.2,37 228.9,42.4 
		223.6,47.7 218.3,53.1 213.1,58.5 207.8,63.8 202.5,69.2 197.2,74.5 191.9,79.9 186.6,85.2 181.3,90.6 176,95.9 170.7,101.3 
		165.4,106.7 160.1,112 154.9,117.4 149.6,122.7 144.3,128.1 139,133.4 133.7,138.8 128.4,144.1 123.1,149.5 117.8,154.8 
		112.5,160.2 107.3,165.6 102,170.9 96.7,176.3 91.4,181.6 86.1,187 80.8,192.3 75.5,197.7 70.2,203 64.9,208.4 59.6,213.8 
		54.3,219.1 49.1,224.5 43.8,229.8 38.5,235.2 33.2,240.5 27.9,245.9 22.6,251.2 17.3,256.6 12,262 6.7,267.3 1.5,272.7 	"/>
	<polyline class="st2" points="259.9,-0.5 254.6,4.9 249.3,10.3 244,15.6 238.7,21 233.4,26.3 228.2,31.7 222.9,37 217.6,42.4 
		212.3,47.7 207,53.1 201.7,58.5 196.4,63.8 191.1,69.2 185.8,74.5 180.6,79.9 175.3,85.2 170,90.6 164.7,95.9 159.4,101.3 
		154.1,106.7 148.8,112 143.5,117.4 138.2,122.7 132.9,128.1 127.7,133.4 122.4,138.8 117.1,144.1 111.8,149.5 106.5,154.8 
		101.2,160.2 95.9,165.6 90.6,170.9 85.3,176.3 80,181.6 74.8,187 69.5,192.3 64.2,197.7 58.9,203 53.6,208.4 48.3,213.8 43,219.1 
		37.7,224.5 32.4,229.8 27.1,235.2 21.9,240.5 16.6,245.9 11.3,251.2 6,256.6 0.7,262 	"/>
	<polyline class="st2" points="248.6,-0.5 243.3,4.9 238,10.3 232.7,15.6 227.4,21 222.1,26.3 216.8,31.7 211.5,37 206.2,42.4 
		200.9,47.7 195.7,53.1 190.4,58.5 185.1,63.8 179.8,69.2 174.5,74.5 169.2,79.9 163.9,85.2 158.6,90.6 153.3,95.9 148.1,101.3 
		142.8,106.7 137.5,112 132.2,117.4 126.9,122.7 121.6,128.1 116.3,133.4 111,138.8 105.7,144.1 100.4,149.5 95.2,154.8 89.9,160.2 
		84.6,165.6 79.3,170.9 74,176.3 68.7,181.6 63.4,187 58.1,192.3 52.8,197.7 47.5,203 42.3,208.4 37,213.8 31.7,219.1 26.4,224.5 
		21.1,229.8 15.8,235.2 10.5,240.5 5.2,245.9 -0.1,251.2 	"/>
	<polyline class="st2" points="237.2,-0.5 231.9,4.9 226.6,10.3 221.4,15.6 216.1,21 210.8,26.3 205.5,31.7 200.2,37 194.9,42.4 
		189.6,47.7 184.3,53.1 179,58.5 173.8,63.8 168.5,69.2 163.2,74.5 157.9,79.9 152.6,85.2 147.3,90.6 142,95.9 136.7,101.3 
		131.4,106.7 126.1,112 120.8,117.4 115.6,122.7 110.3,128.1 105,133.4 99.7,138.8 94.4,144.1 89.1,149.5 83.8,154.8 78.5,160.2 
		73.2,165.6 67.9,170.9 62.7,176.3 57.4,181.6 52.1,187 46.8,192.3 41.5,197.7 36.2,203 30.9,208.4 25.6,213.8 20.3,219.1 15,224.5 
		9.8,229.8 4.5,235.2 -0.8,240.5 	"/>
	<polyline class="st2" points="225.9,-0.5 220.6,4.9 215.3,10.3 210,15.6 204.7,21 199.4,26.3 194.1,31.7 188.9,37 183.6,42.4 
		178.3,47.7 173,53.1 167.7,58.5 162.4,63.8 157.1,69.2 151.8,74.5 146.5,79.9 141.3,85.2 136,90.6 130.7,95.9 125.4,101.3 
		120.1,106.7 114.8,112 109.5,117.4 104.2,122.7 98.9,128.1 93.6,133.4 88.3,138.8 83.1,144.1 77.8,149.5 72.5,154.8 67.2,160.2 
		61.9,165.6 56.6,170.9 51.3,176.3 46,181.6 40.7,187 35.5,192.3 30.2,197.7 24.9,203 19.6,208.4 14.3,213.8 9,219.1 3.7,224.5 	"/>
	<polyline class="st2" points="214.6,-0.5 209.3,4.9 204,10.3 198.7,15.6 193.4,21 188.1,26.3 182.8,31.7 177.5,37 172.2,42.4 
		166.9,47.7 161.6,53.1 156.4,58.5 151.1,63.8 145.8,69.2 140.5,74.5 135.2,79.9 129.9,85.2 124.6,90.6 119.3,95.9 114,101.3 
		108.8,106.6 103.5,112 98.2,117.4 92.9,122.7 87.6,128.1 82.3,133.4 77,138.8 71.7,144.1 66.4,149.5 61.1,154.8 55.8,160.2 
		50.5,165.6 45.3,170.9 40,176.3 34.7,181.6 29.4,187 24.1,192.3 18.8,197.7 13.5,203 8.2,208.4 2.9,213.8 	"/>
	<polyline class="st2" points="203.2,-0.5 197.9,4.9 192.6,10.3 187.3,15.6 182.1,21 176.8,26.3 171.5,31.7 166.2,37 160.9,42.4 
		155.6,47.7 150.3,53.1 145,58.5 139.7,63.8 134.4,69.2 129.1,74.5 123.9,79.9 118.6,85.2 113.3,90.6 108,95.9 102.7,101.3 
		97.4,106.6 92.1,112 86.8,117.4 81.5,122.7 76.3,128.1 71,133.4 65.7,138.8 60.4,144.1 55.1,149.5 49.8,154.8 44.5,160.2 
		39.2,165.6 33.9,170.9 28.6,176.3 23.4,181.6 18.1,187 12.8,192.3 7.5,197.7 2.2,203 	"/>
	<polyline class="st2" points="191.9,-0.5 186.6,4.9 181.3,10.3 176,15.6 170.7,21 165.4,26.3 160.1,31.7 154.8,37 149.6,42.4 
		144.3,47.7 139,53.1 133.7,58.5 128.4,63.8 123.1,69.2 117.8,74.5 112.5,79.9 107.2,85.2 101.9,90.6 96.7,95.9 91.4,101.3 
		86.1,106.6 80.8,112 75.5,117.4 70.2,122.7 64.9,128.1 59.6,133.4 54.3,138.8 49,144.1 43.8,149.5 38.5,154.9 33.2,160.2 
		27.9,165.6 22.6,170.9 17.3,176.3 12,181.6 6.7,187 1.4,192.3 	"/>
	<polyline class="st2" points="180.5,-0.5 175.2,4.9 169.9,10.3 164.7,15.6 159.4,21 154.1,26.3 148.8,31.7 143.5,37 138.2,42.4 
		132.9,47.7 127.6,53.1 122.3,58.5 117.1,63.8 111.8,69.2 106.5,74.5 101.2,79.9 95.9,85.2 90.6,90.6 85.3,95.9 80,101.3 
		74.7,106.6 69.4,112 64.2,117.4 58.9,122.7 53.6,128.1 48.3,133.4 43,138.8 37.7,144.1 32.4,149.5 27.1,154.9 21.8,160.2 
		16.5,165.6 11.3,170.9 6,176.3 0.7,181.6 	"/>
	<polyline class="st2" points="169.2,-0.5 163.9,4.9 158.6,10.3 153.3,15.6 148,21 142.7,26.3 137.4,31.7 132.2,37 126.9,42.4 
		121.6,47.7 116.3,53.1 111,58.5 105.7,63.8 100.4,69.2 95.1,74.5 89.8,79.9 84.6,85.2 79.3,90.6 74,95.9 68.7,101.3 63.4,106.6 
		58.1,112 52.8,117.4 47.5,122.7 42.2,128.1 36.9,133.4 31.6,138.8 26.4,144.1 21.1,149.5 15.8,154.8 10.5,160.2 5.2,165.6 
		-0.1,170.9 	"/>
	<polyline class="st2" points="157.9,-0.5 152.6,4.9 147.3,10.3 142,15.6 136.7,21 131.4,26.3 126.1,31.7 120.8,37 115.5,42.4 
		110.3,47.7 105,53.1 99.7,58.5 94.4,63.8 89.1,69.2 83.8,74.5 78.5,79.9 73.2,85.2 67.9,90.6 62.6,95.9 57.3,101.3 52.1,106.7 
		46.8,112 41.5,117.4 36.2,122.7 30.9,128.1 25.6,133.4 20.3,138.8 15,144.1 9.7,149.5 4.4,154.8 -0.8,160.2 	"/>
	<polyline class="st2" points="146.5,-0.5 141.2,4.9 135.9,10.3 130.6,15.6 125.4,21 120.1,26.3 114.8,31.7 109.5,37 104.2,42.4 
		98.9,47.7 93.6,53.1 88.3,58.5 83,63.8 77.8,69.2 72.5,74.5 67.2,79.9 61.9,85.2 56.6,90.6 51.3,95.9 46,101.3 40.7,106.7 
		35.4,112 30.1,117.4 24.9,122.7 19.6,128.1 14.3,133.4 9,138.8 3.7,144.1 	"/>
	<polyline class="st2" points="135.2,-0.5 129.9,4.9 124.6,10.3 119.3,15.6 114,21 108.7,26.3 103.4,31.7 98.2,37 92.9,42.4 
		87.6,47.7 82.3,53.1 77,58.5 71.7,63.8 66.4,69.2 61.1,74.5 55.8,79.9 50.5,85.2 45.3,90.6 40,95.9 34.7,101.3 29.4,106.6 
		24.1,112 18.8,117.4 13.5,122.7 8.2,128.1 2.9,133.4 	"/>
	<polyline class="st2" points="123.8,-0.5 118.6,4.9 113.3,10.3 108,15.6 102.7,21 97.4,26.3 92.1,31.7 86.8,37 81.5,42.4 
		76.2,47.7 70.9,53.1 65.7,58.5 60.4,63.8 55.1,69.2 49.8,74.5 44.5,79.9 39.2,85.2 33.9,90.6 28.6,95.9 23.3,101.3 18,106.6 
		12.8,112 7.5,117.4 2.2,122.7 	"/>
	<polyline class="st2" points="112.5,-0.5 107.2,4.9 101.9,10.3 96.6,15.6 91.3,21 86.1,26.3 80.8,31.7 75.5,37 70.2,42.4 
		64.9,47.7 59.6,53.1 54.3,58.5 49,63.8 43.7,69.2 38.4,74.5 33.2,79.9 27.9,85.2 22.6,90.6 17.3,95.9 12,101.3 6.7,106.6 1.4,112 	
		"/>
	<polyline class="st2" points="101.2,-0.5 95.9,4.9 90.6,10.3 85.3,15.6 80,21 74.7,26.3 69.4,31.7 64.1,37 58.8,42.4 53.5,47.7 
		48.3,53.1 43,58.5 37.7,63.8 32.4,69.2 27.1,74.5 21.8,79.9 16.5,85.2 11.2,90.6 5.9,95.9 0.6,101.3 	"/>
	<polyline class="st2" points="89.8,-0.5 84.5,4.9 79.2,10.3 73.9,15.6 68.7,21 63.4,26.3 58.1,31.7 52.8,37 47.5,42.4 42.2,47.7 
		36.9,53.1 31.6,58.5 26.3,63.8 21,69.2 15.8,74.5 10.5,79.9 5.2,85.2 -0.1,90.6 	"/>
	<polyline class="st2" points="78.5,-0.5 73.2,4.9 67.9,10.3 62.6,15.6 57.3,21 52,26.3 46.8,31.7 41.5,37 36.2,42.4 30.9,47.7 
		25.6,53.1 20.3,58.5 15,63.8 9.7,69.2 4.4,74.5 -0.9,79.9 	"/>
	<polyline class="st2" points="67.2,-0.5 61.9,4.9 56.6,10.3 51.3,15.6 46,21 40.7,26.3 35.4,31.7 30.1,37 24.8,42.4 19.5,47.7 
		14.3,53.1 9,58.5 3.7,63.8 	"/>
	<polyline class="st2" points="55.8,-0.5 50.5,4.9 45.2,10.3 39.9,15.6 34.7,21 29.4,26.3 24.1,31.7 18.8,37 13.5,42.4 8.2,47.7 
		2.9,53.1 	"/>
	<polyline class="st2" points="44.5,-0.5 39.2,4.9 33.9,10.3 28.6,15.6 23.3,21 18,26.3 12.7,31.7 7.4,37 2.2,42.4 	"/>
	<polyline class="st2" points="33.1,-0.5 27.8,4.9 22.5,10.3 17.3,15.6 12,21 6.7,26.3 1.4,31.7 	"/>
	<polyline class="st2" points="21.8,-0.5 16.5,4.9 11.2,10.3 5.9,15.6 0.6,21 	"/>
	<polyline class="st2" points="10.4,-0.5 5.2,4.9 -0.1,10.3 	"/>
</g>
</svg>
