<?xml version="1.0" encoding="utf-8"?>
<!-- Generator: Adobe Illustrator 23.0.3, SVG Export Plug-In . SVG Version: 6.00 Build 0)  -->
<svg version="1.1" id="图层_1" xmlns="http://www.w3.org/2000/svg" xmlns:xlink="http://www.w3.org/1999/xlink" x="0px" y="0px"
	 viewBox="0 0 352.4 350.1" style="enable-background:new 0 0 352.4 350.1;" xml:space="preserve">
<style type="text/css">
	.st0{fill:#50B775;}
	.st1{enable-background:new    ;}
	.st2{fill:#E48659;}
	.st3{fill:#E48659;stroke:#F5E23B;stroke-width:0.25;stroke-miterlimit:10;}
	.st4{fill:#FFFFFF;}
</style>
<path class="st0" d="M257.4,143.2c0,0,18.2,1.9,19,3.6V36.5c0,0-4.3-14.5-19-14.5c-14.6,0-219.8,0-219.8,0s-18,3.4-18,18.6
	s0,277.9,0,277.9s0.8,10.5,15.5,17.4h147.5c0,0-8.6-6.8-19.7-18.9l-115.2-1c0,0-9.6,3.5-8.6-19.7c1-23.2,0-246.1,0-246.1
	s0.5-9.6,13.6-7.6h195c0,0,8.6,0,9.1,10.6C257.4,63.8,257.4,143.2,257.4,143.2z"/>
<circle class="st0" cx="247.7" cy="252.2" r="88.8"/>
<path class="st0" d="M190.1,111.3H91.8c-2.6,0-4.8-2.2-4.8-4.8V95.6c0-2.6,2.2-4.8,4.8-4.8h98.3c2.6,0,4.8,2.2,4.8,4.8v10.9
	C194.9,109.1,192.7,111.3,190.1,111.3z"/>
<path class="st0" d="M91.4,165.7h79.4c0,0-11.9,8.9-17.1,19.5H91.4c0,0-3.6,0-4.4-3.6v-11.8C87,169.8,87.4,167,91.4,165.7z"/>
<path class="st0" d="M92.6,233.7c0,0-4.8-0.3-5.3,4.6c-0.5,4.8,0,10.4,0,10.4s-0.5,4.6,5.3,5.1c5.8,0.5,40.4,0,40.4,0
	s-1.1-16.2,3.6-20L92.6,233.7z"/>
<g>
	<g>
		<g class="st1">
			<path class="st2" d="M99.2,81.1l4.2-24h3.5l-4.2,24H99.2z M99.2,81.1l0.6-3.2h15.9l-0.6,3.2H99.2z M101,70.7l0.6-3.2h12.9
				l-0.6,3.2H101z M102.8,60.3l0.6-3.2h15.9l-0.6,3.2H102.8z"/>
			<path class="st2" d="M128.4,81.4c-2.7,0-4.8-0.8-6.3-2.4c-1.5-1.6-2.3-3.8-2.3-6.6c0-2.3,0.3-4.3,0.9-6.2c0.6-1.9,1.5-3.6,2.7-5
				c1.2-1.4,2.6-2.5,4.3-3.3c1.7-0.8,3.5-1.2,5.6-1.2c1.6,0,2.9,0.3,3.9,0.9c1,0.6,1.8,1.3,2.4,2.2l-2.6,2.3
				c-0.5-0.6-1.1-1.2-1.8-1.6c-0.7-0.4-1.5-0.6-2.5-0.6c-1.3,0-2.5,0.3-3.6,0.9c-1.1,0.6-2.1,1.4-2.9,2.5c-0.8,1.1-1.5,2.4-1.9,3.8
				c-0.5,1.5-0.7,3.1-0.7,4.9c0,4.2,1.9,6.3,5.8,6.3c1.2,0,2.2-0.1,3.1-0.3c0.9-0.2,1.7-0.4,2.3-0.5l0.8,2.9
				c-0.5,0.1-1.4,0.4-2.7,0.6C131.4,81.3,129.9,81.4,128.4,81.4z M128.7,72.3l0.6-3.2h8l-0.6,3.2H128.7z M131.8,80.4l2-11.3h3.5
				l-2,11.3H131.8z"/>
			<path class="st2" d="M140.1,81.1l4.2-24h3.5l-4.2,24H140.1z M142.8,71.7l0.6-3.2h11.8l-0.6,3.2H142.8z M143.8,60.3l0.6-3.2h15.9
				l-0.6,3.2H143.8z"/>
			<path class="st2" d="M159.8,81.1l4.2-24h3.5l-4.2,24H159.8z M161.7,73.5l0.6-3.2h1.9c3.7,0,6.5-0.5,8.4-1.6
				c1.9-1.1,2.8-2.7,2.8-4.8c0-1.3-0.5-2.3-1.5-2.9c-1-0.7-2.5-1-4.5-1c-2.4,0-4.4,0.1-5.9,0.3l0.6-3.2c1.4-0.2,3.3-0.3,5.6-0.3
				c3.1,0,5.4,0.6,7,1.8c1.6,1.2,2.4,2.9,2.4,5.2c0,3.2-1.3,5.7-3.9,7.3c-2.6,1.7-6.4,2.5-11.5,2.5H161.7z M172.9,81.1l-3.3-10.7
				h3.6l3.6,10.7H172.9z"/>
		</g>
	</g>
	<g>
		<g class="st1">
			<path class="st3" d="M99.2,81.1l4.2-24h3.5l-4.2,24H99.2z M99.2,81.1l0.6-3.2h15.9l-0.6,3.2H99.2z M101,70.7l0.6-3.2h12.9
				l-0.6,3.2H101z M102.8,60.3l0.6-3.2h15.9l-0.6,3.2H102.8z"/>
			<path class="st3" d="M128.4,81.4c-2.7,0-4.8-0.8-6.3-2.4c-1.5-1.6-2.3-3.8-2.3-6.6c0-2.3,0.3-4.3,0.9-6.2c0.6-1.9,1.5-3.6,2.7-5
				c1.2-1.4,2.6-2.5,4.3-3.3c1.7-0.8,3.5-1.2,5.6-1.2c1.6,0,2.9,0.3,3.9,0.9c1,0.6,1.8,1.3,2.4,2.2l-2.6,2.3
				c-0.5-0.6-1.1-1.2-1.8-1.6c-0.7-0.4-1.5-0.6-2.5-0.6c-1.3,0-2.5,0.3-3.6,0.9c-1.1,0.6-2.1,1.4-2.9,2.5c-0.8,1.1-1.5,2.4-1.9,3.8
				c-0.5,1.5-0.7,3.1-0.7,4.9c0,4.2,1.9,6.3,5.8,6.3c1.2,0,2.2-0.1,3.1-0.3c0.9-0.2,1.7-0.4,2.3-0.5l0.8,2.9
				c-0.5,0.1-1.4,0.4-2.7,0.6C131.4,81.3,129.9,81.4,128.4,81.4z M128.7,72.3l0.6-3.2h8l-0.6,3.2H128.7z M131.8,80.4l2-11.3h3.5
				l-2,11.3H131.8z"/>
			<path class="st3" d="M140.1,81.1l4.2-24h3.5l-4.2,24H140.1z M142.8,71.7l0.6-3.2h11.8l-0.6,3.2H142.8z M143.8,60.3l0.6-3.2h15.9
				l-0.6,3.2H143.8z"/>
			<path class="st3" d="M159.8,81.1l4.2-24h3.5l-4.2,24H159.8z M161.7,73.5l0.6-3.2h1.9c3.7,0,6.5-0.5,8.4-1.6
				c1.9-1.1,2.8-2.7,2.8-4.8c0-1.3-0.5-2.3-1.5-2.9c-1-0.7-2.5-1-4.5-1c-2.4,0-4.4,0.1-5.9,0.3l0.6-3.2c1.4-0.2,3.3-0.3,5.6-0.3
				c3.1,0,5.4,0.6,7,1.8c1.6,1.2,2.4,2.9,2.4,5.2c0,3.2-1.3,5.7-3.9,7.3c-2.6,1.7-6.4,2.5-11.5,2.5H161.7z M172.9,81.1l-3.3-10.7
				h3.6l3.6,10.7H172.9z"/>
		</g>
	</g>
</g>
<g>
	<g>
		<g>
			<g class="st1">
				<path class="st3" d="M101.5,131.6l0.6-3.2h17.6l-0.6,3.2H101.5z M104.8,152.4l4.3-24h3.5l-4.3,24H104.8z"/>
				<path class="st3" d="M121.4,136.8l1.5-8.4h3.6l-1.5,8.4H121.4z M122.5,131.5l0.4-3.1h17.6l-3,3.1H122.5z M125.3,152.4l11.5-24
					h3.8l-11.5,24H125.3z"/>
				<path class="st3" d="M141.3,152.5l0.2-3.2c3.7-0.2,6.5-1,8.5-2.6c2-1.5,3.4-3.8,4.1-6.8h-0.3c-0.6,1.2-1.4,2.1-2.6,2.7
					s-2.5,1-4,1c-1.8,0-3.2-0.5-4.1-1.6c-0.9-1.1-1.4-2.6-1.4-4.5c0-1.9,0.4-3.5,1.2-5c0.8-1.4,1.9-2.5,3.3-3.3
					c1.4-0.8,3.1-1.2,4.9-1.2c2.3,0,4.1,0.6,5.3,1.7c1.2,1.1,1.8,2.8,1.8,5c0,3.7-0.6,6.9-1.9,9.5c-1.3,2.6-3.2,4.6-5.7,6
					C148.1,151.6,145,152.4,141.3,152.5z M148.8,140.5c1.1,0,2.1-0.2,3-0.7c0.9-0.5,1.5-1.2,2-2.1c0.5-0.9,0.7-1.9,0.7-3.1
					c0-2.3-1.2-3.4-3.7-3.4c-1,0-2,0.3-2.8,0.8c-0.8,0.5-1.5,1.3-2,2.2c-0.5,0.9-0.7,2-0.7,3.1c0,1,0.3,1.9,0.9,2.4
					S147.7,140.5,148.8,140.5z"/>
				<path class="st3" d="M167.6,152.7c-2,0-3.6-0.7-4.8-2.2c-1.1-1.5-1.7-3.5-1.7-6.1c0-3.5,0.4-6.4,1.3-8.9
					c0.9-2.5,2.1-4.3,3.7-5.7s3.6-2,5.8-2c2,0,3.6,0.7,4.7,2.1c1.1,1.4,1.7,3.4,1.7,5.9c0,3.5-0.4,6.5-1.3,9
					c-0.9,2.5-2.1,4.4-3.7,5.7C171.7,152.1,169.8,152.7,167.6,152.7z M168.1,149.6c1.4,0,2.6-0.5,3.6-1.6c1-1.1,1.7-2.6,2.3-4.6
					c0.5-2,0.8-4.4,0.8-7.2c0-1.6-0.3-2.9-0.9-3.8c-0.6-0.9-1.4-1.3-2.5-1.3c-1.4,0-2.6,0.5-3.6,1.6c-1,1.1-1.8,2.6-2.3,4.6
					c-0.5,2-0.8,4.4-0.8,7.2c0,1.6,0.3,2.9,0.9,3.8C166.2,149.2,167,149.6,168.1,149.6z M169.7,143.1c-0.8,0-1.4-0.2-1.8-0.7
					c-0.5-0.5-0.7-1.1-0.7-1.8c0-0.8,0.2-1.4,0.7-1.8c0.5-0.5,1.1-0.7,1.8-0.7c0.8,0,1.4,0.2,1.8,0.7s0.7,1.1,0.7,1.8
					c0,0.8-0.2,1.4-0.7,1.8C171.1,142.9,170.5,143.1,169.7,143.1z"/>
				<path class="st3" d="M180,152.4l4.1-24h3.6l-4.2,24H180z M188.2,142.6l-0.8-10h-1l0.7-4.3h2l1.1,10.3h0.1l-0.4,3.9L188.2,142.6z
					 M189.1,142.6l1.2-3.9h0.2l4.3-10.3h2.4l-0.7,4.3h-1l-4.3,10H189.1z M192.4,152.4l4.2-24h3.5l-4.2,24H192.4z"/>
			</g>
		</g>
		<g>
			<g class="st1">
				<path class="st3" d="M101.5,131.6l0.6-3.2h17.6l-0.6,3.2H101.5z M104.8,152.4l4.3-24h3.5l-4.3,24H104.8z"/>
				<path class="st3" d="M121.4,136.8l1.5-8.4h3.6l-1.5,8.4H121.4z M122.5,131.5l0.4-3.1h17.6l-3,3.1H122.5z M125.3,152.4l11.5-24
					h3.8l-11.5,24H125.3z"/>
				<path class="st3" d="M141.3,152.5l0.2-3.2c3.7-0.2,6.5-1,8.5-2.6c2-1.5,3.4-3.8,4.1-6.8h-0.3c-0.6,1.2-1.4,2.1-2.6,2.7
					s-2.5,1-4,1c-1.8,0-3.2-0.5-4.1-1.6c-0.9-1.1-1.4-2.6-1.4-4.5c0-1.9,0.4-3.5,1.2-5c0.8-1.4,1.9-2.5,3.3-3.3
					c1.4-0.8,3.1-1.2,4.9-1.2c2.3,0,4.1,0.6,5.3,1.7c1.2,1.1,1.8,2.8,1.8,5c0,3.7-0.6,6.9-1.9,9.5c-1.3,2.6-3.2,4.6-5.7,6
					C148.1,151.6,145,152.4,141.3,152.5z M148.8,140.5c1.1,0,2.1-0.2,3-0.7c0.9-0.5,1.5-1.2,2-2.1c0.5-0.9,0.7-1.9,0.7-3.1
					c0-2.3-1.2-3.4-3.7-3.4c-1,0-2,0.3-2.8,0.8c-0.8,0.5-1.5,1.3-2,2.2c-0.5,0.9-0.7,2-0.7,3.1c0,1,0.3,1.9,0.9,2.4
					S147.7,140.5,148.8,140.5z"/>
				<path class="st3" d="M167.6,152.7c-2,0-3.6-0.7-4.8-2.2c-1.1-1.5-1.7-3.5-1.7-6.1c0-3.5,0.4-6.4,1.3-8.9
					c0.9-2.5,2.1-4.3,3.7-5.7s3.6-2,5.8-2c2,0,3.6,0.7,4.7,2.1c1.1,1.4,1.7,3.4,1.7,5.9c0,3.5-0.4,6.5-1.3,9
					c-0.9,2.5-2.1,4.4-3.7,5.7C171.7,152.1,169.8,152.7,167.6,152.7z M168.1,149.6c1.4,0,2.6-0.5,3.6-1.6c1-1.1,1.7-2.6,2.3-4.6
					c0.5-2,0.8-4.4,0.8-7.2c0-1.6-0.3-2.9-0.9-3.8c-0.6-0.9-1.4-1.3-2.5-1.3c-1.4,0-2.6,0.5-3.6,1.6c-1,1.1-1.8,2.6-2.3,4.6
					c-0.5,2-0.8,4.4-0.8,7.2c0,1.6,0.3,2.9,0.9,3.8C166.2,149.2,167,149.6,168.1,149.6z M169.7,143.1c-0.8,0-1.4-0.2-1.8-0.7
					c-0.5-0.5-0.7-1.1-0.7-1.8c0-0.8,0.2-1.4,0.7-1.8c0.5-0.5,1.1-0.7,1.8-0.7c0.8,0,1.4,0.2,1.8,0.7s0.7,1.1,0.7,1.8
					c0,0.8-0.2,1.4-0.7,1.8C171.1,142.9,170.5,143.1,169.7,143.1z"/>
				<path class="st3" d="M180,152.4l4.1-24h3.6l-4.2,24H180z M188.2,142.6l-0.8-10h-1l0.7-4.3h2l1.1,10.3h0.1l-0.4,3.9L188.2,142.6z
					 M189.1,142.6l1.2-3.9h0.2l4.3-10.3h2.4l-0.7,4.3h-1l-4.3,10H189.1z M192.4,152.4l4.2-24h3.5l-4.2,24H192.4z"/>
			</g>
		</g>
	</g>
</g>
<circle class="st4" cx="247.7" cy="251.7" r="69.6"/>
<path class="st0" d="M293.8,222.1l-9-9c-1.6-1.6-4.3-1.6-5.9,0l-42.3,42.3l-19.9-19.9c-1.6-1.6-4.3-1.6-5.9,0l-9,9
	c-1.6,1.6-1.6,4.3,0,5.9l31.8,31.8c1.4,1.4,3.7,1.6,5.3,0.5c0.4-0.2,0.7-0.4,1.1-0.8l53.9-53.9C295.4,226.4,295.4,223.7,293.8,222.1
	z"/>
</svg>
